<?xml version="1.0" encoding="utf-8"?>
<!-- Generator: Adobe Illustrator 27.8.1, SVG Export Plug-In . SVG Version: 6.00 Build 0)  -->
<svg version="1.1" id="Layer_1" xmlns="http://www.w3.org/2000/svg" xmlns:xlink="http://www.w3.org/1999/xlink" x="0px" y="0px"
	 viewBox="0 0 600 400" style="enable-background:new 0 0 600 400;" xml:space="preserve">
<style type="text/css">
	.st0{fill-rule:evenodd;clip-rule:evenodd;fill:#F2F2F2;}
	.st1{fill-rule:evenodd;clip-rule:evenodd;fill:url(#SVGID_1_);}
	.st2{fill-rule:evenodd;clip-rule:evenodd;fill:#4F4F55;stroke:#141515;stroke-width:0.5669;stroke-miterlimit:10;}
	.st3{fill-rule:evenodd;clip-rule:evenodd;fill:url(#SVGID_00000039108162383320802980000014284482561708341695_);}
	.st4{fill-rule:evenodd;clip-rule:evenodd;fill:url(#SVGID_00000107576868363231932990000017307165633690180024_);}
	.st5{fill-rule:evenodd;clip-rule:evenodd;fill:url(#SVGID_00000056406482373271484180000011913190815157865103_);}
	.st6{fill-rule:evenodd;clip-rule:evenodd;fill:url(#SVGID_00000178172422454946379530000012986115671387568792_);}
	.st7{fill-rule:evenodd;clip-rule:evenodd;fill:url(#SVGID_00000076577002229194466550000016228463202251410104_);}
	.st8{fill-rule:evenodd;clip-rule:evenodd;fill:url(#SVGID_00000036955453912921765390000005901083377941376691_);}
	.st9{fill-rule:evenodd;clip-rule:evenodd;fill:#1A1A1D;stroke:#141515;stroke-width:0.5669;stroke-miterlimit:10;}
	.st10{fill-rule:evenodd;clip-rule:evenodd;fill:#777783;}
	.st11{fill-rule:evenodd;clip-rule:evenodd;fill:url(#SVGID_00000032615371444576403280000000215313842066422688_);}
	.st12{fill-rule:evenodd;clip-rule:evenodd;fill:url(#SVGID_00000070089389757717834520000006428283370876492944_);}
	.st13{fill-rule:evenodd;clip-rule:evenodd;fill:#7D7D82;}
	.st14{fill-rule:evenodd;clip-rule:evenodd;fill:#5F5F6E;}
	.st15{fill-rule:evenodd;clip-rule:evenodd;fill:#FAE013;}
	.st16{fill-rule:evenodd;clip-rule:evenodd;fill:#141515;}
	.st17{fill-rule:evenodd;clip-rule:evenodd;fill:#ADADB0;}
	.st18{fill-rule:evenodd;clip-rule:evenodd;fill:url(#SVGID_00000159471310780055928390000016619691243937088664_);}
	.st19{fill:#FEFEFE;}
	.st20{fill-rule:evenodd;clip-rule:evenodd;fill:#D8D9D9;}
	.st21{fill-rule:evenodd;clip-rule:evenodd;fill:#666666;}
</style>
<g>
	<path class="st0" d="M307.8,299.5h-129c-12.2,0-15.6-3.1-14.5-15.3l0.1-0.7c-0.1,9.4,3.7,11.9,14.6,11.9h128.6H421
		c10.6,0,14.5-2.4,14.6-11.1l0,0c1.1,12.1-2.1,15.2-14.2,15.2H307.8z"/>
	<linearGradient id="SVGID_1_" gradientUnits="userSpaceOnUse" x1="300.0274" y1="295.4312" x2="300.0274" y2="64.7375">
		<stop  offset="0" style="stop-color:#E6E6E6"/>
		<stop  offset="0.2375" style="stop-color:#CDCDCD"/>
		<stop  offset="0.4557" style="stop-color:#B3B3B3"/>
		<stop  offset="1" style="stop-color:#AEAEB5"/>
	</linearGradient>
	<path class="st1" d="M307.7,295.4H179c-12.1,0-15.5-3.1-14.4-15.3l18.1-199.4c1-10.9,3.6-16,15.1-16h87.5h117
		c11.5,0,14.1,5.1,15.1,16l18.1,199.4c1.1,12.2-2.3,15.3-14.4,15.3H307.7z"/>
	<path class="st2" d="M432.6,297.2V323c0,6.8-5.5,12.3-12.3,12.3H179.7c-6.8,0-12.3-5.5-12.3-12.3v-25.9c2.3,1.8,6,2.4,11.5,2.4h129
		h113.6C426.8,299.5,430.4,298.9,432.6,297.2L432.6,297.2z"/>
	
		<linearGradient id="SVGID_00000013900834175216415660000011599440790798580112_" gradientUnits="userSpaceOnUse" x1="360.4668" y1="314.4494" x2="432.6325" y2="314.4494">
		<stop  offset="0" style="stop-color:#73737F"/>
		<stop  offset="0.243" style="stop-color:#6E6E79"/>
		<stop  offset="0.5605" style="stop-color:#5F5F69"/>
		<stop  offset="0.7708" style="stop-color:#52525A"/>
		<stop  offset="0.8524" style="stop-color:#65656E"/>
		<stop  offset="0.9089" style="stop-color:#6C6C76"/>
		<stop  offset="1" style="stop-color:#65656B"/>
	</linearGradient>
	<path style="fill-rule:evenodd;clip-rule:evenodd;fill:url(#SVGID_00000013900834175216415660000011599440790798580112_);" d="
		M432.6,297.2V323c0,1.9-0.4,3.7-1.2,5.3c-13.4,7-17.4,1.2-29.1,0.1l-27-0.8c-6,0.2-8.7,0.5-14.6,1.6l-0.2-29.8h61
		C426.8,299.5,430.4,298.9,432.6,297.2L432.6,297.2z"/>
	
		<linearGradient id="SVGID_00000043458050965145270190000011824005848970876576_" gradientUnits="userSpaceOnUse" x1="167.3663" y1="314.3788" x2="200.5771" y2="314.3788">
		<stop  offset="0" style="stop-color:#414146"/>
		<stop  offset="0.1866" style="stop-color:#56565E"/>
		<stop  offset="0.3976" style="stop-color:#686872"/>
		<stop  offset="0.6097" style="stop-color:#72727E"/>
		<stop  offset="0.8229" style="stop-color:#767682"/>
	</linearGradient>
	<path style="fill-rule:evenodd;clip-rule:evenodd;fill:url(#SVGID_00000043458050965145270190000011824005848970876576_);" d="
		M167.7,326c-0.2-1-0.4-2-0.4-3v-25.9c0.1,0.1,0.1,0.1,0.2,0.2l0,0l0.1,0.1l0,0c0.1,0,0.1,0.1,0.2,0.2l0.1,0.1
		c0.2,0.1,0.3,0.2,0.5,0.3l0,0c0.2,0.1,0.4,0.2,0.7,0.3h0c0.1,0,0.2,0.1,0.3,0.1l0,0c0.1,0.1,0.3,0.1,0.4,0.2l0.2,0.1
		c0.1,0,0.2,0.1,0.3,0.1l0,0c0.2,0.1,0.4,0.1,0.6,0.2l0.2,0c0.1,0,0.2,0,0.3,0.1l0,0l0.1,0l0,0l0.2,0l0,0l0.2,0l0,0l0.2,0l0,0l0.2,0
		h0l0.2,0l0.2,0l0,0c0.2,0,0.4,0,0.6,0.1l0,0l0.2,0l0.2,0l0,0l0.2,0l0,0l0.2,0h0l0.1,0l0.1,0l0.1,0l0.1,0l0,0l0.2,0l0.1,0l0.2,0
		l0.2,0h0l0.2,0h0l0.2,0l0.2,0h0.1l0.1,0l0.1,0h0l0.4,0l0,0l0.2,0h0l0.2,0h0l0.2,0h0l0.2,0h0.1l0.2,0h0.1h0l0.3,0h0h0.1h0.2h0h0.3
		h21.8v23.8c0,4.6-3.8,8.3-8.3,8.3h-14.9C173.2,331.7,169.6,329.4,167.7,326L167.7,326z M167.7,297.3c0.1,0,0.1,0.1,0.2,0.2"/>
	
		<linearGradient id="SVGID_00000024683009240263127730000007385694697785965978_" gradientUnits="userSpaceOnUse" x1="203.8403" y1="314.4407" x2="285.8846" y2="314.4407">
		<stop  offset="0" style="stop-color:#414146"/>
		<stop  offset="0.2268" style="stop-color:#56565E"/>
		<stop  offset="0.4831" style="stop-color:#686872"/>
		<stop  offset="0.7409" style="stop-color:#72727E"/>
		<stop  offset="1" style="stop-color:#767682"/>
	</linearGradient>
	<path style="fill-rule:evenodd;clip-rule:evenodd;fill:url(#SVGID_00000024683009240263127730000007385694697785965978_);" d="
		M203.8,299.5l0.1,13.1c15.7,8.7,35.9,16.8,54.1,16.8h27.9v-29.9H203.8z"/>
	
		<linearGradient id="SVGID_00000091730436552144554350000002682662709150190244_" gradientUnits="userSpaceOnUse" x1="300.4946" y1="282.0815" x2="300.4946" y2="136.0763">
		<stop  offset="0" style="stop-color:#B3B3B3"/>
		<stop  offset="0.3385" style="stop-color:#E6E6E6"/>
		<stop  offset="0.4408" style="stop-color:#CDCDCD"/>
		<stop  offset="0.6567" style="stop-color:#8E8E8E"/>
		<stop  offset="0.7839" style="stop-color:#666666"/>
		<stop  offset="1" style="stop-color:#4D4D4D"/>
	</linearGradient>
	<path style="fill-rule:evenodd;clip-rule:evenodd;fill:url(#SVGID_00000091730436552144554350000002682662709150190244_);" d="
		M300.5,282.1c61.6,0,111.8-32.8,111.8-73c0-40.2-50.2-73-111.8-73c-61.6,0-111.8,32.8-111.8,73
		C188.7,249.3,238.9,282.1,300.5,282.1L300.5,282.1z"/>
	
		<linearGradient id="SVGID_00000118384433089032281230000017041176641094417058_" gradientUnits="userSpaceOnUse" x1="300.4945" y1="276.085" x2="300.4945" y2="136.3495">
		<stop  offset="0" style="stop-color:#EAEAEC"/>
		<stop  offset="0.2452" style="stop-color:#D2D2D3"/>
		<stop  offset="0.5182" style="stop-color:#B3B3B3"/>
		<stop  offset="0.9347" style="stop-color:#C7C7CC"/>
		<stop  offset="1" style="stop-color:#CBCBD0"/>
	</linearGradient>
	<path style="fill-rule:evenodd;clip-rule:evenodd;fill:url(#SVGID_00000118384433089032281230000017041176641094417058_);" d="
		M300.5,276.1c58.2,0,105.7-31.4,105.7-69.9c0-38.5-47.5-69.9-105.7-69.9c-58.2,0-105.7,31.4-105.7,69.9
		C194.8,244.7,242.3,276.1,300.5,276.1L300.5,276.1z"/>
	
		<linearGradient id="SVGID_00000034772294339116669880000001704106331976667798_" gradientUnits="userSpaceOnUse" x1="210.4411" y1="125.3559" x2="396.1139" y2="125.3559">
		<stop  offset="0" style="stop-color:#EAEAEC"/>
		<stop  offset="0.2452" style="stop-color:#D2D2D3"/>
		<stop  offset="0.5182" style="stop-color:#B3B3B3"/>
		<stop  offset="0.9347" style="stop-color:#C7C7CC"/>
		<stop  offset="1" style="stop-color:#CBCBD0"/>
	</linearGradient>
	<path style="fill-rule:evenodd;clip-rule:evenodd;fill:url(#SVGID_00000034772294339116669880000001704106331976667798_);" d="
		M396.1,171.3l-6.8-84.1c-0.8-5.1-2-7.7-8-7.7H224.9c-5.8,0-12.9,0.9-13.4,8.1l-1.1,18.1c-0.3,4.8,2.4,6.1,6.9,6.1h131.3
		c3.7,0,7.4,2.1,5,6.3L340.8,141C364,146.8,383.4,157.6,396.1,171.3L396.1,171.3z"/>
	<rect x="285.9" y="299.5" class="st9" width="74.8" height="29.8"/>
	<rect x="293" y="299.5" class="st10" width="3" height="29.8"/>
	<rect x="302" y="299.5" class="st10" width="3" height="29.8"/>
	<rect x="311" y="299.5" class="st10" width="3" height="29.8"/>
	<rect x="320" y="299.5" class="st10" width="3" height="29.8"/>
	<rect x="328.9" y="299.5" class="st10" width="3" height="29.8"/>
	<rect x="337.9" y="299.5" class="st10" width="3" height="29.8"/>
	<rect x="346.9" y="299.5" class="st10" width="3" height="29.8"/>
	
		<linearGradient id="SVGID_00000139997039220761559910000012582963968693203098_" gradientUnits="userSpaceOnUse" x1="300.3015" y1="226.4395" x2="300.3015" y2="178.6904">
		<stop  offset="0" style="stop-color:#B3B3B3"/>
		<stop  offset="0.3385" style="stop-color:#E6E6E6"/>
		<stop  offset="0.4408" style="stop-color:#CDCDCD"/>
		<stop  offset="0.6567" style="stop-color:#8E8E8E"/>
		<stop  offset="0.7839" style="stop-color:#666666"/>
		<stop  offset="1" style="stop-color:#4D4D4D"/>
	</linearGradient>
	<path style="fill-rule:evenodd;clip-rule:evenodd;fill:url(#SVGID_00000139997039220761559910000012582963968693203098_);" d="
		M300.3,226.4c20,0,36.2-10.7,36.2-23.9c0-13.2-16.3-23.9-36.2-23.9c-19.9,0-36.2,10.7-36.2,23.9
		C264.1,215.7,280.4,226.4,300.3,226.4L300.3,226.4z"/>
	
		<linearGradient id="SVGID_00000147919235241585256630000003795070886094248127_" gradientUnits="userSpaceOnUse" x1="300.3015" y1="178.6904" x2="300.3015" y2="219.9577">
		<stop  offset="0" style="stop-color:#EAEAEC"/>
		<stop  offset="0.3382" style="stop-color:#D2D2D3"/>
		<stop  offset="1" style="stop-color:#999999"/>
	</linearGradient>
	<path style="fill-rule:evenodd;clip-rule:evenodd;fill:url(#SVGID_00000147919235241585256630000003795070886094248127_);" d="
		M300.3,220c16.6,0,30.1-9.3,30.1-20.6c0-11.4-13.5-20.6-30.1-20.6c-16.6,0-30.1,9.3-30.1,20.6C270.2,210.7,283.7,220,300.3,220
		L300.3,220z"/>
	<path class="st13" d="M385,79.9c5.9,0,7.1,2.7,7.9,7.7l6.8,84.6l0.4,3.7c-1.2-1.6-2.6-3.1-4-4.6l-6.8-84.1
		C388.7,83.4,387.9,80.9,385,79.9L385,79.9z"/>
	<path class="st14" d="M387.7,326c4.4,0,8-2.6,8-5.7c0-3.1-3.6-5.7-8-5.7c-4.4,0-8,2.6-8,5.7C379.7,323.5,383.3,326,387.7,326
		L387.7,326z"/>
	<path class="st15" d="M387.7,324.2c2.5,0,4.6-1.8,4.6-3.9c0-2.1-2.1-3.9-4.6-3.9s-4.6,1.8-4.6,3.9
		C383.2,322.5,385.2,324.2,387.7,324.2L387.7,324.2z"/>
	<polygon class="st16" points="221.2,82.5 342.8,82.5 343.5,104.8 220,104.8 	"/>
	<path class="st17" d="M337.3,140.1l12.7-22.5l4.5-2.3c0.1,0.8-0.1,1.7-0.7,2.8L340.8,141l0,0C339.7,140.7,338.5,140.4,337.3,140.1
		L337.3,140.1z"/>
	
		<linearGradient id="SVGID_00000101820639818774930070000016640784125571644854_" gradientUnits="userSpaceOnUse" x1="278.715" y1="117.557" x2="278.715" y2="79.7956">
		<stop  offset="0" style="stop-color:#CBCBD0"/>
		<stop  offset="0.2007" style="stop-color:#B4B4BA"/>
		<stop  offset="0.5362" style="stop-color:#92929C"/>
		<stop  offset="0.8147" style="stop-color:#7D7D89"/>
		<stop  offset="1" style="stop-color:#767682"/>
	</linearGradient>
	<path style="fill-rule:evenodd;clip-rule:evenodd;fill:url(#SVGID_00000101820639818774930070000016640784125571644854_);" d="
		M353,113l-3,4.6H217.1c-6.6,0-13.2-1.9-12.5-9.7l1.8-20.4c0.6-6.5,8.5-6.8,13.6-7.6l0,0c-4.2,0.7-8,2.6-8.3,7.7l-1.1,18.1
		c-0.3,4.8,2.4,6.1,6.9,6.1h131.3C350.3,111.8,351.9,112.2,353,113L353,113z"/>
	<path class="st19" d="M227.2,90.4l0.2-4.5h0.6l-0.2,4.5H227.2z M228.8,90.4l0.1-3.3l0.5,0l0,0.5c0.3-0.4,0.6-0.5,1.1-0.5
		c0.2,0,0.4,0,0.5,0.1c0.2,0.1,0.3,0.2,0.4,0.3c0.1,0.1,0.1,0.3,0.2,0.4c0,0.1,0,0.3,0,0.5l-0.1,2H231l0.1-2c0-0.2,0-0.4,0-0.5
		c0-0.1-0.1-0.2-0.2-0.3c-0.1-0.1-0.2-0.1-0.4-0.1c-0.2,0-0.4,0.1-0.6,0.2c-0.2,0.2-0.3,0.4-0.3,0.9l-0.1,1.8H228.8z M233.6,89.9
		l0.1,0.5c-0.2,0-0.3,0-0.4,0c-0.2,0-0.4,0-0.5-0.1c-0.1-0.1-0.2-0.1-0.2-0.3c0-0.1-0.1-0.3,0-0.7l0.1-1.9h-0.4l0-0.4h0.4l0-0.8
		l0.6-0.3l0,1.2l0.6,0l0,0.4h-0.6l-0.1,1.9c0,0.2,0,0.3,0,0.3c0,0,0,0.1,0.1,0.1c0,0,0.1,0,0.2,0C233.5,90,233.5,90,233.6,89.9
		L233.6,89.9z M236.5,89.4l0.6,0.1c-0.1,0.3-0.3,0.6-0.5,0.8c-0.3,0.2-0.6,0.3-1,0.3c-0.5,0-0.9-0.2-1.2-0.5
		c-0.3-0.3-0.4-0.7-0.4-1.3c0-0.6,0.2-1,0.5-1.3c0.3-0.3,0.7-0.5,1.1-0.5c0.5,0,0.8,0.1,1.1,0.5c0.3,0.3,0.4,0.7,0.4,1.3
		c0,0,0,0.1,0,0.1h-2.5c0,0.4,0.1,0.6,0.3,0.8c0.2,0.2,0.4,0.3,0.7,0.3c0.2,0,0.4-0.1,0.5-0.2C236.3,89.8,236.4,89.6,236.5,89.4
		L236.5,89.4z M234.7,88.5h1.9c0-0.3-0.1-0.5-0.2-0.6c-0.2-0.2-0.4-0.3-0.7-0.3c-0.3,0-0.5,0.1-0.7,0.3
		C234.8,88,234.7,88.2,234.7,88.5L234.7,88.5z M237.8,90.5l0.1-3.3h0.5l0,0.5c0.1-0.2,0.3-0.4,0.4-0.5c0.1-0.1,0.2-0.1,0.4-0.1
		c0.2,0,0.4,0.1,0.6,0.2l-0.2,0.5c-0.1-0.1-0.3-0.1-0.4-0.1c-0.1,0-0.2,0-0.3,0.1c-0.1,0.1-0.2,0.2-0.2,0.3
		c-0.1,0.2-0.1,0.4-0.1,0.7l-0.1,1.7H237.8z M240,90.5l0.1-3.3h0.5l0,0.5c0.3-0.4,0.6-0.5,1.1-0.5c0.2,0,0.4,0,0.6,0.1
		c0.2,0.1,0.3,0.2,0.4,0.3c0.1,0.1,0.1,0.3,0.2,0.4c0,0.1,0,0.3,0,0.6l-0.1,2.1l-0.6,0l0.1-2c0-0.2,0-0.4-0.1-0.5
		c0-0.1-0.1-0.2-0.2-0.3c-0.1-0.1-0.2-0.1-0.4-0.1c-0.2,0-0.5,0.1-0.6,0.2c-0.2,0.2-0.3,0.4-0.3,0.9l0,1.8H240z M245.9,90.1
		c-0.2,0.2-0.4,0.3-0.6,0.4c-0.2,0.1-0.4,0.1-0.6,0.1c-0.4,0-0.7-0.1-0.9-0.3c-0.2-0.2-0.3-0.4-0.3-0.7c0-0.2,0-0.3,0.1-0.4
		c0.1-0.1,0.2-0.2,0.3-0.3c0.1-0.1,0.3-0.1,0.4-0.2c0.1,0,0.3-0.1,0.5-0.1c0.5,0,0.8-0.1,1-0.2c0-0.1,0-0.1,0-0.1
		c0-0.2,0-0.4-0.2-0.5c-0.1-0.1-0.4-0.2-0.7-0.2c-0.3,0-0.5,0-0.6,0.1c-0.1,0.1-0.2,0.3-0.3,0.5l-0.6-0.1c0.1-0.2,0.1-0.4,0.3-0.6
		c0.1-0.1,0.3-0.3,0.5-0.3c0.2-0.1,0.5-0.1,0.8-0.1c0.3,0,0.5,0,0.7,0.1c0.2,0.1,0.3,0.1,0.4,0.3c0.1,0.1,0.1,0.2,0.2,0.4
		c0,0.1,0,0.3,0,0.5l0,0.8c0,0.5,0,0.9,0,1c0,0.1,0.1,0.3,0.1,0.4H246C245.9,90.4,245.9,90.2,245.9,90.1L245.9,90.1z M245.9,88.8
		c-0.2,0.1-0.5,0.2-1,0.2c-0.2,0-0.4,0.1-0.5,0.1c-0.1,0-0.2,0.1-0.2,0.2c-0.1,0.1-0.1,0.2-0.1,0.3c0,0.1,0,0.3,0.2,0.4
		c0.1,0.1,0.3,0.2,0.5,0.2c0.2,0,0.4,0,0.6-0.1c0.2-0.1,0.3-0.2,0.4-0.4c0.1-0.1,0.1-0.3,0.1-0.6L245.9,88.8z M247.3,90.5l0.1-4.6
		h0.6l-0.1,4.6H247.3z M250.8,90.5l0.1-4.6l0.6,0l0,1.9l2.5,0l0-1.9h0.6l-0.1,4.7l-0.6,0l0-2.2h-2.5l0,2.2H250.8z M257.8,90.1
		c-0.2,0.2-0.4,0.3-0.6,0.4c-0.2,0.1-0.4,0.1-0.7,0.1c-0.4,0-0.7-0.1-0.9-0.3c-0.2-0.2-0.3-0.4-0.3-0.7c0-0.2,0-0.3,0.1-0.5
		c0.1-0.1,0.2-0.2,0.3-0.3c0.1-0.1,0.3-0.1,0.4-0.2c0.1,0,0.3-0.1,0.5-0.1c0.5-0.1,0.8-0.1,1.1-0.2c0-0.1,0-0.1,0-0.1
		c0-0.2,0-0.4-0.2-0.5c-0.1-0.1-0.4-0.2-0.7-0.2c-0.3,0-0.5,0-0.6,0.1c-0.1,0.1-0.2,0.3-0.3,0.5l-0.6-0.1c0.1-0.2,0.1-0.4,0.3-0.6
		c0.1-0.1,0.3-0.3,0.5-0.3c0.2-0.1,0.5-0.1,0.8-0.1c0.3,0,0.5,0,0.7,0.1c0.2,0.1,0.3,0.2,0.4,0.3c0.1,0.1,0.1,0.2,0.2,0.4
		c0,0.1,0,0.3,0,0.5l0,0.8c0,0.5,0,0.9,0,1c0,0.1,0.1,0.3,0.1,0.4h-0.6C257.9,90.4,257.8,90.2,257.8,90.1L257.8,90.1z M257.8,88.8
		c-0.2,0.1-0.5,0.2-1,0.2c-0.2,0-0.4,0.1-0.5,0.1c-0.1,0-0.2,0.1-0.2,0.2c-0.1,0.1-0.1,0.2-0.1,0.3c0,0.2,0.1,0.3,0.2,0.4
		c0.1,0.1,0.3,0.2,0.5,0.2c0.2,0,0.4,0,0.6-0.1c0.2-0.1,0.3-0.2,0.4-0.4c0.1-0.1,0.1-0.3,0.1-0.6L257.8,88.8z M259.3,90.5l0.1-3.4
		h0.5l0,0.5c0.1-0.2,0.3-0.4,0.4-0.5c0.1-0.1,0.2-0.1,0.4-0.1c0.2,0,0.4,0.1,0.6,0.2l-0.2,0.5c-0.1-0.1-0.3-0.1-0.4-0.1
		c-0.1,0-0.2,0-0.4,0.1c-0.1,0.1-0.2,0.2-0.2,0.3c-0.1,0.2-0.1,0.4-0.1,0.7l0,1.8H259.3z M263.8,90.5l0-0.4c-0.2,0.3-0.6,0.5-1,0.5
		c-0.3,0-0.5-0.1-0.8-0.2c-0.2-0.1-0.4-0.4-0.5-0.6c-0.1-0.3-0.2-0.6-0.2-0.9c0-0.3,0.1-0.6,0.2-0.9c0.1-0.3,0.3-0.5,0.5-0.6
		c0.2-0.1,0.5-0.2,0.8-0.2c0.2,0,0.4,0,0.6,0.1c0.2,0.1,0.3,0.2,0.4,0.3l0-1.7h0.6l-0.1,4.7H263.8z M262,88.8c0,0.4,0.1,0.8,0.3,1
		c0.2,0.2,0.4,0.3,0.7,0.3c0.3,0,0.5-0.1,0.7-0.3c0.2-0.2,0.3-0.5,0.3-0.9c0-0.5-0.1-0.8-0.3-1c-0.2-0.2-0.4-0.3-0.7-0.3
		c-0.3,0-0.5,0.1-0.7,0.3C262.1,88,262,88.4,262,88.8L262,88.8z M267.3,90.5l0-4.7l1.7,0c0.4,0,0.7,0,0.9,0.1
		c0.3,0.1,0.5,0.2,0.7,0.3c0.3,0.2,0.5,0.5,0.6,0.8c0.1,0.3,0.2,0.7,0.2,1.1c0,0.4,0,0.7-0.1,1c-0.1,0.3-0.2,0.5-0.3,0.7
		c-0.1,0.2-0.3,0.3-0.5,0.4c-0.2,0.1-0.4,0.2-0.6,0.2c-0.2,0.1-0.5,0.1-0.8,0.1L267.3,90.5z M268,90h1.1c0.3,0,0.6,0,0.8-0.1
		c0.2-0.1,0.3-0.1,0.4-0.2c0.2-0.1,0.3-0.3,0.4-0.6c0.1-0.3,0.1-0.6,0.1-0.9c0-0.5-0.1-0.9-0.2-1.1c-0.2-0.3-0.4-0.4-0.6-0.5
		c-0.2-0.1-0.5-0.1-0.8-0.1h-1L268,90z M272.3,86.5l0-0.7h0.6l0,0.7L272.3,86.5z M272.3,90.5l0-3.4h0.6l0,3.4H272.3z M273.6,89.5
		l0.6-0.1c0,0.2,0.1,0.4,0.3,0.5c0.2,0.1,0.4,0.2,0.7,0.2c0.3,0,0.5-0.1,0.6-0.2c0.1-0.1,0.2-0.2,0.2-0.4c0-0.1-0.1-0.2-0.2-0.3
		c-0.1-0.1-0.3-0.1-0.6-0.2c-0.5-0.1-0.8-0.2-0.9-0.3c-0.2-0.1-0.3-0.2-0.4-0.3c-0.1-0.1-0.1-0.3-0.1-0.5c0-0.2,0-0.3,0.1-0.4
		c0.1-0.1,0.2-0.2,0.3-0.3c0.1-0.1,0.2-0.1,0.4-0.2c0.2,0,0.3-0.1,0.5-0.1c0.3,0,0.5,0,0.7,0.1c0.2,0.1,0.4,0.2,0.5,0.3
		c0.1,0.1,0.2,0.3,0.2,0.5l-0.6,0.1c0-0.2-0.1-0.3-0.2-0.4c-0.1-0.1-0.3-0.2-0.5-0.2c-0.3,0-0.5,0-0.6,0.1c-0.1,0.1-0.2,0.2-0.2,0.3
		c0,0.1,0,0.1,0.1,0.2c0,0.1,0.1,0.1,0.2,0.2c0.1,0,0.2,0.1,0.5,0.1c0.4,0.1,0.7,0.2,0.9,0.3c0.2,0.1,0.3,0.2,0.4,0.3
		c0.1,0.1,0.1,0.3,0.1,0.5s-0.1,0.4-0.2,0.5c-0.1,0.2-0.3,0.3-0.5,0.4c-0.2,0.1-0.5,0.1-0.8,0.1c-0.5,0-0.8-0.1-1.1-0.3
		C273.8,90.1,273.7,89.9,273.6,89.5L273.6,89.5z M277.3,90.5l0-4.8h0.6l0,2.7l1.5-1.4l0.8,0l-1.4,1.3l1.5,2.2l-0.8,0l-1.2-1.8
		l-0.4,0.4v1.4L277.3,90.5z"/>
	<polygon class="st20" points="222.2,92.9 245.7,92.9 245.6,94.9 222.1,94.9 	"/>
	<polygon class="st20" points="247.3,92.9 259.1,92.9 259.1,94.9 247.3,94.9 	"/>
	<polygon class="st20" points="261,92.9 281.7,92.9 281.8,94.9 261,94.9 	"/>
	<polygon class="st20" points="283.1,92.9 295,92.9 295.1,94.8 283.1,94.9 	"/>
	<polygon class="st20" points="296.4,92.9 315.5,92.8 315.6,94.8 296.5,94.8 	"/>
	<polygon class="st20" points="315.8,96.6 291.8,96.6 291.8,98.6 315.9,98.6 	"/>
	<polygon class="st20" points="290.1,96.6 278.2,96.6 278.2,98.6 290.2,98.6 	"/>
	<polygon class="st20" points="276.2,96.6 255.4,96.6 255.4,98.6 276.3,98.6 	"/>
	<polygon class="st20" points="254.1,96.6 242.3,96.6 242.2,98.6 254.1,98.6 	"/>
	<polygon class="st20" points="240.9,96.6 222,96.6 221.9,98.6 240.8,98.6 	"/>
	<polygon class="st20" points="221.8,100 245.5,100 245.5,102 221.8,102 	"/>
	<polygon class="st20" points="248.1,100 281.9,100 282,102.1 248.1,102 	"/>
	<polygon class="st20" points="283.3,100 295.3,100 295.4,102.1 283.3,102.1 	"/>
	<polygon class="st20" points="296.7,100 316,100 316.1,102.1 296.8,102.1 	"/>
	<g>
		<path class="st21" d="M180.2,279.9c3.4,0,6.2,1.9,6.2,4.3c0,1.3-0.8,2.5-2.2,3.3l-7-7C178.1,280.1,179.1,279.9,180.2,279.9
			L180.2,279.9z M183.2,288c-0.9,0.3-1.9,0.5-3,0.5c-3.4,0-6.2-1.9-6.2-4.3c0-1.3,0.8-2.5,2.2-3.3L183.2,288z"/>
	</g>
	<g>
		<path class="st21" d="M190.4,167.1c3.1,0,5.6,1.8,5.6,3.9c0,1.2-0.8,2.3-2,3l-6.4-6.4C188.4,167.3,189.4,167.1,190.4,167.1
			L190.4,167.1z M193.1,174.5c-0.8,0.3-1.8,0.5-2.8,0.5c-3.1,0-5.6-1.8-5.6-3.9c0-1.2,0.8-2.3,2-3L193.1,174.5z"/>
	</g>
	<g>
		<path class="st21" d="M199,69.4c3.1,0,5.6,1.8,5.6,3.9c0,1.2-0.8,2.3-2,3l-6.4-6.4C197,69.6,198,69.4,199,69.4L199,69.4z
			 M201.7,76.8c-0.8,0.3-1.8,0.5-2.8,0.5c-3.1,0-5.6-1.8-5.6-3.9c0-1.2,0.8-2.3,2-3L201.7,76.8z"/>
	</g>
	<g>
		<path class="st21" d="M400.2,69.7c3.1,0,5.6,1.8,5.6,3.9c0,1.2-0.8,2.3-2,3l-6.4-6.4C398.3,69.8,399.2,69.7,400.2,69.7L400.2,69.7
			z M403,77c-0.8,0.3-1.8,0.5-2.8,0.5c-3.1,0-5.6-1.8-5.6-3.9c0-1.2,0.8-2.3,2-3L403,77z"/>
	</g>
	<g>
		<path class="st21" d="M409.2,166.4c3.1,0,5.6,1.8,5.6,3.9c0,1.2-0.8,2.3-2,3l-6.4-6.4C407.3,166.6,408.2,166.4,409.2,166.4
			L409.2,166.4z M412,173.8c-0.8,0.3-1.8,0.5-2.8,0.5c-3.1,0-5.6-1.8-5.6-3.9c0-1.2,0.8-2.3,2-3L412,173.8z"/>
	</g>
	<g>
		<path class="st21" d="M419.8,280.4c3.4,0,6.2,1.9,6.2,4.3c0,1.3-0.8,2.5-2.2,3.3l-7-7C417.7,280.6,418.7,280.4,419.8,280.4
			L419.8,280.4z M422.8,288.5c-0.9,0.3-1.9,0.5-3,0.5c-3.4,0-6.2-1.9-6.2-4.3c0-1.3,0.8-2.5,2.2-3.3L422.8,288.5z"/>
	</g>
</g>
</svg>
