<?xml version="1.0" encoding="utf-8"?>
<!-- Generator: Adobe Illustrator 26.0.1, SVG Export Plug-In . SVG Version: 6.00 Build 0)  -->
<svg version="1.1" id="Layer_1" xmlns="http://www.w3.org/2000/svg" xmlns:xlink="http://www.w3.org/1999/xlink" x="0px" y="0px"
	 viewBox="0 0 600 400" style="enable-background:new 0 0 600 400;" xml:space="preserve">
<style type="text/css">
	.st0{fill:#027065;}
	.st1{fill:#B4CCDA;}
	.st2{fill:#353237;}
	.st3{fill:#96C7CE;}
	.st4{fill:#FFC034;}
	.st5{fill:#FF9430;}
	.st6{fill:#DBEFFA;}
</style>
<g id="XMLID_921_">
	<rect id="XMLID_593_" x="162.8" y="115.9" class="st0" width="304" height="173.3"/>
	<polygon id="XMLID_648_" class="st1" points="133.2,71.3 133.2,78.4 155.5,78.4 155.5,328.7 162.8,328.7 162.8,78.4 162.8,71.3 	
		"/>
	<g id="XMLID_708_">
		<rect id="XMLID_631_" x="162.8" y="129.9" class="st2" width="5.7" height="68.7"/>
		<rect id="XMLID_654_" x="168.5" y="140.2" class="st2" width="32.8" height="48.1"/>
	</g>
	<g id="XMLID_699_">
		<rect id="XMLID_669_" x="140.7" y="223" class="st3" width="14.8" height="49.3"/>
		<rect id="XMLID_646_" x="148" y="276.2" class="st3" width="7.5" height="7"/>
		<rect id="XMLID_704_" x="148" y="212.7" class="st3" width="7.5" height="7"/>
	</g>
	<g id="XMLID_707_">
		<rect id="XMLID_684_" x="140.7" y="142.5" class="st3" width="14.8" height="43.6"/>
		<rect id="XMLID_705_" x="148" y="188.3" class="st3" width="7.5" height="7"/>
		<rect id="XMLID_706_" x="148" y="133.2" class="st3" width="7.5" height="7"/>
	</g>
	<g id="XMLID_734_">
		<rect id="XMLID_647_" x="162.8" y="208.9" class="st2" width="5.7" height="77.5"/>
		<rect id="XMLID_649_" x="168.5" y="220.2" class="st2" width="19.5" height="55"/>
		<g id="XMLID_714_">
			<rect id="XMLID_709_" x="182.1" y="223" class="st3" width="6" height="2.1"/>
			<rect id="XMLID_719_" x="182.1" y="227.3" class="st3" width="6" height="2.1"/>
			<rect id="XMLID_721_" x="182.1" y="231.6" class="st3" width="6" height="2.1"/>
			<rect id="XMLID_720_" x="182.1" y="235.9" class="st3" width="6" height="2.1"/>
			<rect id="XMLID_729_" x="182.1" y="240.2" class="st3" width="6" height="2.1"/>
			<rect id="XMLID_724_" x="182.1" y="244.5" class="st3" width="6" height="2.1"/>
			<rect id="XMLID_723_" x="182.1" y="248.7" class="st3" width="6" height="2.1"/>
			<rect id="XMLID_722_" x="182.1" y="253" class="st3" width="6" height="2.1"/>
			<rect id="XMLID_739_" x="182.1" y="257.3" class="st3" width="6" height="2.1"/>
			<rect id="XMLID_738_" x="182.1" y="261.6" class="st3" width="6" height="2.1"/>
			<rect id="XMLID_737_" x="182.1" y="265.9" class="st3" width="6" height="2.1"/>
			<rect id="XMLID_736_" x="182.1" y="270.2" class="st3" width="6" height="2.1"/>
		</g>
	</g>
	<rect id="XMLID_735_" x="162.8" y="288.9" class="st0" width="10.7" height="17.9"/>
	<rect id="XMLID_891_" x="162.8" y="98" class="st0" width="10.7" height="17.9"/>
	<g id="XMLID_890_">
		<g id="XMLID_759_">
			<rect id="XMLID_889_" x="259.3" y="289.1" class="st4" width="52.4" height="17.7"/>
			<rect id="XMLID_892_" x="314.8" y="289.1" class="st4" width="52.4" height="17.7"/>
			<rect id="XMLID_893_" x="370.2" y="289.1" class="st4" width="43.1" height="17.7"/>
			<g id="XMLID_764_">
				<rect id="XMLID_888_" x="259.3" y="289.1" class="st5" width="1.5" height="17.7"/>
				<rect id="XMLID_887_" x="263.9" y="289.1" class="st5" width="1.5" height="17.7"/>
				<rect id="XMLID_886_" x="268.6" y="289.1" class="st5" width="1.5" height="17.7"/>
				<rect id="XMLID_885_" x="273.2" y="289.1" class="st5" width="1.5" height="17.7"/>
				<rect id="XMLID_884_" x="277.8" y="289.1" class="st5" width="1.5" height="17.7"/>
				<rect id="XMLID_883_" x="282.4" y="289.1" class="st5" width="1.5" height="17.7"/>
				<rect id="XMLID_882_" x="287" y="289.1" class="st5" width="1.5" height="17.7"/>
				<rect id="XMLID_881_" x="291.7" y="289.1" class="st5" width="1.5" height="17.7"/>
				<rect id="XMLID_880_" x="296.3" y="289.1" class="st5" width="1.5" height="17.7"/>
				<rect id="XMLID_879_" x="300.9" y="289.1" class="st5" width="1.5" height="17.7"/>
				<rect id="XMLID_864_" x="305.5" y="289.1" class="st5" width="1.5" height="17.7"/>
				<rect id="XMLID_849_" x="310.1" y="289.1" class="st5" width="1.5" height="17.7"/>
				<rect id="XMLID_834_" x="314.8" y="289.1" class="st5" width="1.5" height="17.7"/>
				<rect id="XMLID_819_" x="319.4" y="289.1" class="st5" width="1.5" height="17.7"/>
				<rect id="XMLID_804_" x="324" y="289.1" class="st5" width="1.5" height="17.7"/>
				<rect id="XMLID_799_" x="328.6" y="289.1" class="st5" width="1.5" height="17.7"/>
				<rect id="XMLID_798_" x="333.2" y="289.1" class="st5" width="1.5" height="17.7"/>
				<rect id="XMLID_797_" x="337.9" y="289.1" class="st5" width="1.5" height="17.7"/>
				<rect id="XMLID_796_" x="342.5" y="289.1" class="st5" width="1.5" height="17.7"/>
				<rect id="XMLID_795_" x="347.1" y="289.1" class="st5" width="1.5" height="17.7"/>
				<rect id="XMLID_794_" x="351.7" y="289.1" class="st5" width="1.5" height="17.7"/>
				<rect id="XMLID_789_" x="356.3" y="289.1" class="st5" width="1.5" height="17.7"/>
				<rect id="XMLID_784_" x="361" y="289.1" class="st5" width="1.5" height="17.7"/>
				<rect id="XMLID_783_" x="365.6" y="289.1" class="st5" width="1.5" height="17.7"/>
				<rect id="XMLID_782_" x="370.2" y="289.1" class="st5" width="1.5" height="17.7"/>
				<rect id="XMLID_781_" x="374.8" y="289.1" class="st5" width="1.5" height="17.7"/>
				<rect id="XMLID_780_" x="379.4" y="289.1" class="st5" width="1.5" height="17.7"/>
				<rect id="XMLID_779_" x="384.1" y="289.1" class="st5" width="1.5" height="17.7"/>
				<rect id="XMLID_774_" x="388.7" y="289.1" class="st5" width="1.5" height="17.7"/>
				<rect id="XMLID_769_" x="393.3" y="289.1" class="st5" width="1.5" height="17.7"/>
				<rect id="XMLID_768_" x="398" y="289.1" class="st5" width="1.5" height="17.7"/>
				<rect id="XMLID_767_" x="402.6" y="289.1" class="st5" width="1.5" height="17.7"/>
				<rect id="XMLID_766_" x="407.2" y="289.1" class="st5" width="1.5" height="17.7"/>
				<rect id="XMLID_765_" x="411.8" y="289.1" class="st5" width="1.5" height="17.7"/>
			</g>
		</g>
		<g id="XMLID_744_">
			<rect id="XMLID_754_" x="224" y="289.1" class="st4" width="15.4" height="17.7"/>
			<g id="XMLID_749_">
				<rect id="XMLID_753_" x="224" y="289.1" class="st5" width="1.5" height="17.7"/>
				<rect id="XMLID_752_" x="228.6" y="289.1" class="st5" width="1.5" height="17.7"/>
				<rect id="XMLID_751_" x="233.3" y="289.1" class="st5" width="1.5" height="17.7"/>
				<rect id="XMLID_750_" x="237.9" y="289.1" class="st5" width="1.5" height="17.7"/>
			</g>
		</g>
		<path id="XMLID_896_" class="st4" d="M429,293.8v-4.7h-11.3v17.7h24.7V298h-9.2C430.9,298,429,296.1,429,293.8z"/>
	</g>
	<rect id="XMLID_894_" x="311.7" y="186.1" class="st2" width="101.7" height="93.7"/>
	<rect id="XMLID_895_" x="418.8" y="258.8" class="st2" width="40.7" height="21"/>
	<rect id="XMLID_898_" x="418.8" y="209.7" class="st2" width="40.7" height="21"/>
	
		<rect id="XMLID_900_" x="303" y="149.9" transform="matrix(-1.836970e-16 1 -1 -1.836970e-16 483.758 -162.8844)" class="st2" width="40.7" height="21"/>
	
		<rect id="XMLID_899_" x="352.1" y="149.9" transform="matrix(-1.836970e-16 1 -1 -1.836970e-16 532.8349 -211.9613)" class="st2" width="40.7" height="21"/>
	<g id="XMLID_902_">
		<path id="XMLID_897_" class="st1" d="M304.2,194.3c0,4.5-3.7,8.2-8.2,8.2c-4.5,0-8.2-3.7-8.2-8.2c0-4.5,3.7-8.2,8.2-8.2
			C300.6,186.1,304.2,189.7,304.2,194.3z"/>
		<path id="XMLID_901_" class="st6" d="M301.7,194.3c0,3.2-2.6,5.7-5.7,5.7c-3.2,0-5.7-2.6-5.7-5.7c0-3.2,2.6-5.7,5.7-5.7
			C299.2,188.6,301.7,191.1,301.7,194.3z"/>
	</g>
	<g id="XMLID_907_">
		<path id="XMLID_909_" class="st1" d="M282.6,194.3c0,4.5-3.7,8.2-8.2,8.2c-4.5,0-8.2-3.7-8.2-8.2c0-4.5,3.7-8.2,8.2-8.2
			C278.9,186.1,282.6,189.7,282.6,194.3z"/>
		<path id="XMLID_908_" class="st6" d="M280.1,194.3c0,3.2-2.6,5.7-5.7,5.7c-3.2,0-5.7-2.6-5.7-5.7c0-3.2,2.6-5.7,5.7-5.7
			C277.6,188.6,280.1,191.1,280.1,194.3z"/>
	</g>
	<g id="XMLID_904_">
		<circle id="XMLID_906_" class="st1" cx="296" cy="172.5" r="8.2"/>
		<circle id="XMLID_905_" class="st6" cx="296" cy="172.5" r="5.7"/>
	</g>
	<path id="XMLID_903_" class="st6" d="M299.7,278.3L299.7,278.3c-1.9,0-3.4-1.5-3.4-3.4v-8.7c0-1.9,1.5-3.4,3.4-3.4l0,0
		c1.9,0,3.4,1.5,3.4,3.4v8.7C303.2,276.7,301.6,278.3,299.7,278.3z"/>
	<g id="XMLID_911_">
		<path id="XMLID_910_" class="st6" d="M238.4,274.6c0,2-1.6,3.6-3.6,3.6c-2,0-3.6-1.6-3.6-3.6c0-2,1.6-3.6,3.6-3.6
			C236.8,271,238.4,272.6,238.4,274.6z"/>
		<circle id="XMLID_912_" class="st6" cx="243.1" cy="274.6" r="3.6"/>
	</g>
	<g id="XMLID_918_">
		<path id="XMLID_920_" class="st6" d="M423.9,137.4c0,2-1.6,3.6-3.6,3.6c-2,0-3.6-1.6-3.6-3.6c0-2,1.6-3.6,3.6-3.6
			C422.3,133.7,423.9,135.4,423.9,137.4z"/>
		<circle id="XMLID_919_" class="st6" cx="432.2" cy="144.6" r="3.6"/>
	</g>
	<g id="XMLID_916_">
		<circle id="XMLID_913_" class="st6" cx="284.6" cy="266.3" r="3.6"/>
		<circle id="XMLID_914_" class="st6" cx="276.2" cy="266.3" r="3.6"/>
		<path id="XMLID_915_" class="st6" d="M284.2,274.6c0,2-1.6,3.6-3.6,3.6c-2,0-3.6-1.6-3.6-3.6c0-2,1.6-3.6,3.6-3.6
			C282.6,271,284.2,272.6,284.2,274.6z"/>
	</g>
	<rect id="XMLID_917_" x="230.2" y="177.3" class="st2" width="7.7" height="8.7"/>
	<rect id="XMLID_922_" x="277.5" y="174.9" class="st2" width="7.7" height="8.7"/>
	<rect id="XMLID_923_" x="266.2" y="168.6" class="st2" width="7.7" height="4.4"/>
	
		<rect id="XMLID_924_" x="227.9" y="235.9" transform="matrix(-1.836970e-16 1 -1 -1.836970e-16 469.7545 6.3094)" class="st2" width="7.7" height="4.4"/>
</g>
</svg>
