<?xml version="1.0" encoding="utf-8"?>
<!-- Generator: Adobe Illustrator 27.8.1, SVG Export Plug-In . SVG Version: 6.00 Build 0)  -->
<svg version="1.1" id="Layer_1" xmlns="http://www.w3.org/2000/svg" xmlns:xlink="http://www.w3.org/1999/xlink" x="0px" y="0px"
	 viewBox="0 0 600 400" style="enable-background:new 0 0 600 400;" xml:space="preserve">
<style type="text/css">
	.st0{opacity:0.3;}
	.st1{fill:#403531;}
	.st2{fill:#544540;}
	.st3{fill:#685750;}
	.st4{fill:#836E69;}
	.st5{fill:#362C29;}
	.st6{fill:#0A0808;}
	.st7{fill:#574943;}
	.st8{fill:#D8D1C7;}
	.st9{fill:#E6E1DD;}
	.st10{opacity:0.4;fill:#BAF3FF;}
	.st11{opacity:0.1;fill:#FFFFFF;}
	.st12{fill:#A39C95;}
	.st13{fill:#B5AFA7;}
	.st14{fill:#575757;}
	.st15{fill:#0A0A0A;}
	.st16{fill:#363636;}
	.st17{fill:#CFDB77;}
	.st18{fill:#7DD2E3;}
	.st19{fill:#211A1A;}
	.st20{fill:#A39685;}
</style>
<g>
	<g>
		<polygon class="st0" points="304,325.8 235,286 303.5,246.5 372.4,286.3 		"/>
		<g>
			<g>
				<polygon class="st1" points="368.8,283.5 368.8,288 366.3,289.5 365.4,284.4 				"/>
				<rect x="362.8" y="284.9" class="st2" width="3.5" height="4.5"/>
				<polygon class="st3" points="362.8,284.9 362.8,289.5 360.4,288 360.4,283.5 				"/>
				<polygon class="st4" points="360.4,281.5 360.4,283.5 362.8,284.9 366.3,284.9 368.8,283.5 368.8,281.5 366.3,280.1 
					362.8,280.1 				"/>
			</g>
			<g>
				<polygon class="st1" points="307.6,248.2 307.6,252.8 305.2,254.2 304.3,249.1 				"/>
				<rect x="301.7" y="249.7" class="st2" width="3.5" height="4.5"/>
				<polygon class="st3" points="301.7,249.7 301.7,254.2 299.2,252.8 299.2,248.2 				"/>
				<polygon class="st4" points="299.2,246.2 299.2,248.2 301.7,249.7 305.2,249.7 307.6,248.2 307.6,246.2 305.2,244.8 
					301.7,244.8 				"/>
			</g>
			<g>
				<polygon class="st1" points="308.2,318.5 308.2,323 305.7,324.4 304.9,319.4 				"/>
				<rect x="302.2" y="319.9" class="st2" width="3.5" height="4.5"/>
				<polygon class="st3" points="302.2,319.9 302.2,324.4 299.8,323 299.8,318.5 				"/>
				<polygon class="st4" points="299.8,316.5 299.8,318.5 302.2,319.9 305.7,319.9 308.2,318.5 308.2,316.5 305.7,315 302.2,315 
									"/>
			</g>
			<g>
				<polygon class="st1" points="247.1,283.2 247.1,287.7 244.6,289.1 243.7,284.1 				"/>
				<rect x="241.1" y="284.6" class="st2" width="3.5" height="4.5"/>
				<polygon class="st3" points="241.1,284.6 241.1,289.1 238.7,287.7 238.7,283.2 				"/>
				<polygon class="st4" points="238.7,281.2 238.7,283.2 241.1,284.6 244.6,284.6 247.1,283.2 247.1,281.2 244.6,279.8 
					241.1,279.8 				"/>
			</g>
		</g>
		<g>
			<polygon class="st5" points="304,321.9 235,282.1 235,278.9 372.4,279.2 			"/>
			<polygon class="st6" points="304,321.9 304,318.7 313.7,305.8 372.4,279.2 372.4,282.4 			"/>
			<polygon class="st7" points="304,318.7 235,278.9 303.5,239.4 372.4,279.2 			"/>
		</g>
		<g>
			<polygon class="st5" points="238.8,79.4 238.8,276.8 241.5,278.3 302.4,45.8 			"/>
			<polygon class="st6" points="238.8,79.4 241.5,81 253.8,81.2 302.4,45.8 299.7,44.2 			"/>
			<polygon class="st6" points="241.5,81 241.5,278.3 302.4,243.2 302.4,45.8 			"/>
		</g>
		<g>
			<polygon class="st8" points="169.9,316.6 173.6,318.7 177.2,310.3 175.3,128.1 173.6,121.4 169.9,119.2 			"/>
			<polygon class="st8" points="232.6,273.2 236.4,275.4 239.9,267 238,97.5 236.4,92.3 232.6,90.1 			"/>
			<polygon class="st9" points="169.9,119.2 173.6,121.4 181.4,120.2 235.6,89.3 242.6,81.6 238.8,79.4 			"/>
			<polygon class="st9" points="176,305.9 179.8,308 183.8,309.8 229.4,283.1 236.4,275.4 232.6,273.2 			"/>
			<g>
				<polygon class="st10" points="177.7,306.8 234.3,274.1 234.3,91.1 177.7,123.7 				"/>
				<polygon class="st11" points="234.3,192.4 177.7,156.1 177.7,136 234.3,172.2 				"/>
				<polygon class="st11" points="234.3,258.6 177.7,222.3 177.7,207.4 234.3,243.7 				"/>
				<polygon class="st11" points="234.3,210.5 177.7,174.2 177.7,164.2 234.3,200.4 				"/>
			</g>
			<path class="st12" d="M173.6,121.4v197.3l68.9-39.8V81.6L173.6,121.4z M179.8,125l56.6-32.7v183.1L179.8,308L179.8,125z"/>
		</g>
		<g>
			<polygon class="st6" points="372.4,279.2 368.6,281.4 365.1,273 367,90.8 368.6,84.1 372.4,81.9 			"/>
			<polygon class="st7" points="372.4,81.9 368.7,84.1 360.9,82.9 306.7,52 299.7,44.2 303.5,42.1 			"/>
			<path d="M299.7,44.2v197.3l68.9,39.8l0-197.3L299.7,44.2z"/>
		</g>
		<g>
			<g>
				<g>
					<g>
						<polygon class="st6" points="307.7,249 303.9,251.2 300.4,242.8 302.3,60.6 303.9,53.9 307.7,51.7 						"/>
						<polygon class="st7" points="307.7,51.7 303.9,53.9 296.2,52.7 303.3,57.2 296.3,49.5 300,47.3 						"/>
						<path class="st5" d="M296.3,49.5v197.3l7.7,4.4l0-197.3L296.3,49.5z"/>
					</g>
					<g>
						<polygon class="st6" points="260.2,276.4 256.5,278.6 252.9,270.2 254.8,87.9 256.5,81.2 260.2,79.1 						"/>
						<polygon class="st7" points="260.2,79.1 256.5,81.2 248.7,80 255.8,84.6 248.8,76.8 252.6,74.6 						"/>
						<path class="st5" d="M248.8,76.8v197.3l7.7,4.4l0-197.3L248.8,76.8z"/>
					</g>
				</g>
				<g>
					<g>
						<polygon class="st8" points="305.3,53.1 305.3,250.4 307.3,251.6 309.8,52.9 						"/>
						<polygon class="st9" points="305.3,53.1 307.4,54.3 308.6,55.2 309.8,52.9 307.7,51.7 						"/>
						<polygon class="st12" points="307.4,54.3 307.3,251.6 309.8,250.2 309.8,52.9 						"/>
					</g>
					<g>
						<polygon class="st9" points="307.3,160.1 258.9,192.7 258.9,185.6 305.3,158.9 						"/>
						<polygon class="st12" points="307.3,167.1 261,193.9 261,186.9 307.3,160.1 						"/>
					</g>
					<g>
						<polygon class="st9" points="307.3,54.3 258.9,86.9 258.9,79.9 305.3,53.1 						"/>
						<polygon class="st12" points="307.3,61.3 261,88.1 261,81.1 307.3,54.3 						"/>
					</g>
					<g>
						<polygon class="st9" points="307.3,244.6 258.9,277.2 258.9,270.1 305.3,243.3 						"/>
						<polygon class="st12" points="307.3,251.6 261,278.4 261,271.3 307.3,244.6 						"/>
					</g>
					<g>
						<polygon class="st8" points="256.5,81.3 256.5,278.6 258.5,279.8 261,81.1 						"/>
						<polygon class="st9" points="256.5,81.3 258.5,82.5 259.7,83.4 261,81.1 258.9,79.9 						"/>
						<polygon class="st12" points="258.5,82.5 258.5,279.8 261,278.4 261,81.1 						"/>
					</g>
				</g>
			</g>
			<g>
				<g>
					<g>
						<polygon class="st12" points="356.1,235.8 304,265.9 302.5,262.2 303.3,254.1 304,251.1 356.1,221.1 						"/>
						<polygon class="st9" points="356.1,221.1 304,251.1 300.6,250.6 263.3,229.3 260.2,225.8 312.3,195.8 						"/>
						<path class="st8" d="M260.2,225.8v14.7l43.8,25.3v-14.7L260.2,225.8z"/>
					</g>
					<g>
						<g>
							<g>
								<polygon class="st13" points="310.9,245.4 310.2,245.8 267,224.5 266.3,224.1 270.1,221.9 								"/>
								<polygon class="st8" points="310.2,245.8 307.1,247.6 267,224.5 270.1,222.7 								"/>
							</g>
							<g>
								<polygon class="st13" points="317.3,241.7 316.7,242.1 273.4,220.7 272.8,220.3 276.6,218.1 								"/>
								<polygon class="st8" points="316.7,242.1 313.5,243.9 273.4,220.7 276.6,218.9 								"/>
							</g>
							<g>
								<polygon class="st13" points="323.8,237.9 323.2,238.3 279.9,217 279.3,216.6 283.1,214.4 								"/>
								<polygon class="st8" points="323.2,238.3 320,240.1 279.9,217 283.1,215.2 								"/>
							</g>
							<g>
								<polygon class="st13" points="330.3,234.2 329.6,234.6 286.4,213.2 285.7,212.9 289.5,210.7 								"/>
								<polygon class="st8" points="329.6,234.6 326.5,236.4 286.4,213.2 289.5,211.4 								"/>
							</g>
							<g>
								<polygon class="st13" points="336.8,230.5 336.1,230.8 292.9,209.5 292.2,209.1 296,206.9 								"/>
								<polygon class="st8" points="336.1,230.8 333,232.6 292.9,209.5 296,207.7 								"/>
							</g>
						</g>
						<g>
							<g>
								<polygon class="st9" points="338.3,233.2 337.7,233.6 334.5,246.1 334.5,246.9 338.3,244.7 								"/>
								<polygon class="st13" points="337.7,233.6 334.5,235.4 334.5,246.1 337.7,244.3 								"/>
							</g>
							<g>
								<polygon class="st9" points="331.9,236.9 331.2,237.3 328.1,249.8 328.1,250.6 331.9,248.4 								"/>
								<polygon class="st13" points="331.2,237.3 328.1,239.1 328.1,249.8 331.2,248 								"/>
							</g>
							<g>
								<polygon class="st9" points="325.5,240.6 324.8,241 321.7,253.5 321.7,254.3 325.5,252.1 								"/>
								<polygon class="st13" points="324.8,241 321.7,242.8 321.7,253.5 324.8,251.7 								"/>
							</g>
							<g>
								<polygon class="st9" points="319,244.4 318.4,244.7 315.2,257.2 315.2,258 319,255.8 								"/>
								<polygon class="st13" points="318.4,244.7 315.2,246.5 315.2,257.2 318.4,255.4 								"/>
							</g>
							<g>
								<polygon class="st9" points="312.6,248.1 311.9,248.4 308.8,260.9 308.8,261.7 312.6,259.5 								"/>
								<polygon class="st13" points="311.9,248.4 308.8,250.3 308.8,260.9 311.9,259.1 								"/>
							</g>
						</g>
					</g>
					<g>
						<path class="st14" d="M260.2,225.8l-1.5,0.9l43.8,40.1l1.5-15.6L260.2,225.8z"/>
						<path class="st15" d="M297.6,262l4.9,4.7l1.5-0.9v-14.7l-1.5,0.9L297.6,262z"/>
						<path class="st16" d="M258.7,226.7v14.8l43.8,25.3V252L258.7,226.7z"/>
						<g>
							<g>
								<polygon points="295,248.6 295,261.2 301.6,265.1 301.6,252.4 								"/>
								<polygon class="st17" points="297.4,258.9 297.4,261.6 299.3,262.7 299.3,260.1 								"/>
								<polygon class="st17" points="295.8,250.1 295.8,251.9 300.9,254.8 300.9,253 								"/>
							</g>
							<g>
								<polygon points="288,244.5 288,257.2 294.6,261 294.6,248.3 								"/>
								<polygon class="st17" points="290.3,254.9 290.3,257.5 292.2,258.6 292.2,256 								"/>
								<polygon class="st17" points="288.7,246 288.7,247.8 293.8,250.7 293.8,249 								"/>
							</g>
							<g>
								<polygon points="280.9,240.4 280.9,253.1 287.5,256.9 287.5,244.2 								"/>
								<polygon class="st17" points="283.2,250.8 283.2,253.4 285.2,254.5 285.2,251.9 								"/>
								<polygon class="st17" points="281.7,242 281.7,243.7 286.7,246.7 286.7,244.9 								"/>
							</g>
							<g>
								<polygon points="273.8,236.3 273.8,249 280.4,252.8 280.4,240.1 								"/>
								<polygon class="st17" points="276.1,246.7 276.1,249.3 278.1,250.4 278.1,247.8 								"/>
								<polygon class="st17" points="274.6,237.9 274.6,239.7 279.7,242.6 279.7,240.8 								"/>
							</g>
							<g>
								<polygon points="266.8,232.2 266.8,244.9 273.4,248.7 273.4,236 								"/>
								<polygon class="st17" points="269.1,242.6 269.1,245.2 271,246.4 271,243.7 								"/>
								<polygon class="st17" points="267.5,233.8 267.5,235.6 272.6,238.5 272.6,236.7 								"/>
							</g>
							<g>
								<polygon points="259.7,228.1 259.7,240.8 266.3,244.6 266.3,231.9 								"/>
								<polygon class="st17" points="262,238.5 262,241.1 264,242.3 264,239.6 								"/>
								<polygon class="st17" points="260.4,229.7 260.4,231.5 265.5,234.4 265.5,232.6 								"/>
							</g>
						</g>
					</g>
				</g>
				<g>
					<g>
						<polygon class="st12" points="356.1,184.3 304,214.3 302.5,210.6 303.3,202.5 304,199.6 356.1,169.5 						"/>
						<polygon class="st9" points="356.1,169.5 304,199.6 300.6,199 263.3,177.7 260.2,174.2 312.3,144.2 						"/>
						<path class="st8" d="M260.2,174.2V189l43.8,25.3v-14.7L260.2,174.2z"/>
					</g>
					<g>
						<g>
							<g>
								<polygon class="st13" points="310.9,193.8 310.2,194.2 267,172.9 266.3,172.5 270.1,170.3 								"/>
								<polygon class="st8" points="310.2,194.2 307.1,196 267,172.9 270.1,171.1 								"/>
							</g>
							<g>
								<polygon class="st13" points="317.3,190.1 316.7,190.5 273.4,169.1 272.8,168.7 276.6,166.6 								"/>
								<polygon class="st8" points="316.7,190.5 313.5,192.3 273.4,169.1 276.6,167.3 								"/>
							</g>
							<g>
								<polygon class="st13" points="323.8,186.3 323.2,186.7 279.9,165.4 279.3,165 283.1,162.8 								"/>
								<polygon class="st8" points="323.2,186.7 320,188.5 279.9,165.4 283.1,163.6 								"/>
							</g>
							<g>
								<polygon class="st13" points="330.3,182.6 329.6,183 286.4,161.6 285.7,161.3 289.5,159.1 								"/>
								<polygon class="st8" points="329.6,183 326.5,184.8 286.4,161.6 289.5,159.8 								"/>
							</g>
							<g>
								<polygon class="st13" points="336.8,178.9 336.1,179.2 292.9,157.9 292.2,157.5 296,155.3 								"/>
								<polygon class="st8" points="336.1,179.2 333,181.1 292.9,157.9 296,156.1 								"/>
							</g>
						</g>
						<g>
							<g>
								<polygon class="st9" points="338.3,181.6 337.7,182 334.5,194.5 334.5,195.3 338.3,193.1 								"/>
								<polygon class="st13" points="337.7,182 334.5,183.8 334.5,194.5 337.7,192.7 								"/>
							</g>
							<g>
								<polygon class="st9" points="331.9,185.3 331.2,185.7 328.1,198.2 328.1,199 331.9,196.8 								"/>
								<polygon class="st13" points="331.2,185.7 328.1,187.5 328.1,198.2 331.2,196.4 								"/>
							</g>
							<g>
								<polygon class="st9" points="325.5,189 324.8,189.4 321.7,201.9 321.7,202.7 325.5,200.5 								"/>
								<polygon class="st13" points="324.8,189.4 321.7,191.2 321.7,201.9 324.8,200.1 								"/>
							</g>
							<g>
								<polygon class="st9" points="319,192.8 318.4,193.1 315.2,205.6 315.2,206.4 319,204.2 								"/>
								<polygon class="st13" points="318.4,193.1 315.2,194.9 315.2,205.6 318.4,203.8 								"/>
							</g>
							<g>
								<polygon class="st9" points="312.6,196.5 311.9,196.9 308.8,209.3 308.8,210.1 312.6,207.9 								"/>
								<polygon class="st13" points="311.9,196.9 308.8,198.7 308.8,209.3 311.9,207.5 								"/>
							</g>
						</g>
					</g>
					<g>
						<path class="st14" d="M260.2,174.2l-1.5,0.9l43.8,40.1l1.5-15.6L260.2,174.2z"/>
						<path class="st15" d="M297.6,210.5l4.9,4.7l1.5-0.9v-14.7l-1.5,0.9L297.6,210.5z"/>
						<path class="st16" d="M258.7,175.1v14.8l43.8,25.3v-14.7L258.7,175.1z"/>
						<g>
							<g>
								<polygon class="st15" points="286.8,202.6 286.8,203.7 274.4,196.5 274.4,192.1 275.4,192.7 278,195.7 								"/>
								<polygon class="st18" points="286.8,199.3 286.8,202.6 275.4,196 275.4,192.7 								"/>
							</g>
							<polygon class="st15" points="274.4,186 274.4,190.4 286.8,197.5 286.8,193.2 							"/>
							<g>
								<g>
									<polygon class="st15" points="260.7,177.4 259.9,177 259.9,189.4 262.5,190.9 262.5,190 261.4,186.7 									"/>
									<polygon class="st14" points="262.5,178.5 260.7,177.4 260.7,188.9 262.5,190 									"/>
									<polygon class="st17" points="261,178 261,179.8 262.3,180.5 262.3,178.8 									"/>
								</g>
								<g>
									<polygon class="st15" points="264.2,179.5 263.4,179 263.4,191.5 266,193 266,192 264.9,188.7 									"/>
									<polygon class="st14" points="266,180.5 264.2,179.5 264.2,191 266,192 									"/>
									<polygon class="st17" points="264.6,180 264.6,181.8 265.9,182.6 265.9,180.8 									"/>
								</g>
								<g>
									<polygon class="st15" points="267.8,181.5 267,181.1 267,193.5 269.6,195 269.6,194.1 268.5,190.8 									"/>
									<polygon class="st14" points="269.6,182.6 267.8,181.5 267.8,193 269.6,194.1 									"/>
									<polygon class="st17" points="268.1,182.1 268.1,183.9 269.4,184.7 269.4,182.9 									"/>
								</g>
								<g>
									<polygon class="st15" points="271.4,183.6 270.5,183.1 270.5,195.6 273.1,197.1 273.1,196.1 272,192.8 									"/>
									<polygon class="st14" points="273.1,184.6 271.4,183.6 271.4,195.1 273.1,196.1 									"/>
									<polygon class="st17" points="271.7,184.2 271.7,185.9 273,186.7 273,184.9 									"/>
								</g>
							</g>
							<g>
								<g>
									<polygon class="st15" points="288.9,193.7 288.1,193.3 288.1,205.7 290.7,207.2 290.7,206.3 289.6,203 									"/>
									<polygon class="st14" points="290.7,194.8 288.9,193.7 288.9,205.2 290.7,206.3 									"/>
									<polygon class="st17" points="289.3,194.3 289.3,196.1 290.6,196.8 290.6,195.1 									"/>
								</g>
								<g>
									<polygon class="st15" points="292.5,195.8 291.7,195.3 291.7,207.8 294.3,209.3 294.3,208.3 293.2,205 									"/>
									<polygon class="st14" points="294.3,196.8 292.5,195.8 292.5,207.3 294.3,208.3 									"/>
									<polygon class="st17" points="292.8,196.3 292.8,198.1 294.1,198.9 294.1,197.1 									"/>
								</g>
								<g>
									<polygon class="st15" points="296.1,197.8 295.2,197.4 295.2,209.8 297.8,211.3 297.8,210.4 296.7,207.1 									"/>
									<polygon class="st14" points="297.8,198.9 296.1,197.8 296.1,209.3 297.8,210.4 									"/>
									<polygon class="st17" points="296.4,198.4 296.4,200.2 297.7,201 297.7,199.2 									"/>
								</g>
								<g>
									<polygon class="st15" points="299.6,199.9 298.8,199.4 298.8,211.9 301.4,213.4 301.4,212.4 300.3,209.1 									"/>
									<polygon class="st14" points="301.4,200.9 299.6,199.9 299.6,211.4 301.4,212.4 									"/>
									<polygon class="st17" points="299.9,200.5 299.9,202.2 301.2,203 301.2,201.2 									"/>
								</g>
							</g>
						</g>
					</g>
				</g>
				<g>
					<g>
						<polygon class="st12" points="356.1,169.5 304,199.5 302.5,195.9 303.3,187.7 304,184.8 356.1,154.8 						"/>
						<polygon class="st9" points="356.1,154.8 304,184.8 300.6,184.3 263.3,162.9 260.2,159.5 312.3,129.4 						"/>
						<path class="st8" d="M260.2,159.5v14.7l43.8,25.3v-14.7L260.2,159.5z"/>
					</g>
					<g>
						<g>
							<g>
								<polygon class="st13" points="310.9,179.1 310.2,179.5 267,158.1 266.3,157.7 270.1,155.5 								"/>
								<polygon class="st8" points="310.2,179.5 307.1,181.3 267,158.1 270.1,156.3 								"/>
							</g>
							<g>
								<polygon class="st13" points="317.3,175.3 316.7,175.7 273.4,154.4 272.8,154 276.6,151.8 								"/>
								<polygon class="st8" points="316.7,175.7 313.5,177.5 273.4,154.4 276.6,152.6 								"/>
							</g>
							<g>
								<polygon class="st13" points="323.8,171.6 323.2,172 279.9,150.6 279.3,150.3 283.1,148.1 								"/>
								<polygon class="st8" points="323.2,172 320,173.8 279.9,150.6 283.1,148.8 								"/>
							</g>
							<g>
								<polygon class="st13" points="330.3,167.9 329.6,168.2 286.4,146.9 285.7,146.5 289.5,144.3 								"/>
								<polygon class="st8" points="329.6,168.2 326.5,170 286.4,146.9 289.5,145.1 								"/>
							</g>
							<g>
								<polygon class="st13" points="336.8,164.1 336.1,164.5 292.9,143.1 292.2,142.8 296,140.6 								"/>
								<polygon class="st8" points="336.1,164.5 333,166.3 292.9,143.1 296,141.3 								"/>
							</g>
						</g>
						<g>
							<g>
								<polygon class="st9" points="338.3,166.9 337.7,167.3 334.5,179.7 334.5,180.5 338.3,178.3 								"/>
								<polygon class="st13" points="337.7,167.3 334.5,169.1 334.5,179.7 337.7,177.9 								"/>
							</g>
							<g>
								<polygon class="st9" points="331.9,170.6 331.2,171 328.1,183.5 328.1,184.2 331.9,182 								"/>
								<polygon class="st13" points="331.2,171 328.1,172.8 328.1,183.5 331.2,181.6 								"/>
							</g>
							<g>
								<polygon class="st9" points="325.5,174.3 324.8,174.7 321.7,187.2 321.7,187.9 325.5,185.7 								"/>
								<polygon class="st13" points="324.8,174.7 321.7,176.5 321.7,187.2 324.8,185.4 								"/>
							</g>
							<g>
								<polygon class="st9" points="319,178 318.4,178.4 315.2,190.9 315.2,191.6 319,189.5 								"/>
								<polygon class="st13" points="318.4,178.4 315.2,180.2 315.2,190.9 318.4,189.1 								"/>
							</g>
							<g>
								<polygon class="st9" points="312.6,181.7 311.9,182.1 308.8,194.6 308.8,195.4 312.6,193.2 								"/>
								<polygon class="st13" points="311.9,182.1 308.8,183.9 308.8,194.6 311.9,192.8 								"/>
							</g>
						</g>
					</g>
					<g>
						<path class="st14" d="M260.2,159.5l-1.5,0.9l43.8,40.1l1.5-15.6L260.2,159.5z"/>
						<path class="st15" d="M297.6,195.7l4.9,4.7l1.5-0.9v-14.7l-1.5,0.9L297.6,195.7z"/>
						<path class="st16" d="M258.7,160.3v14.8l43.8,25.3v-14.7L258.7,160.3z"/>
						<g>
							<g>
								<polygon class="st15" points="286.8,187.8 286.8,188.9 274.4,181.8 274.4,177.4 275.4,177.9 278,180.9 								"/>
								<polygon class="st18" points="286.8,184.6 286.8,187.8 275.4,181.2 275.4,177.9 								"/>
							</g>
							<polygon class="st15" points="274.4,171.2 274.4,175.6 286.8,182.8 286.8,178.4 							"/>
							<g>
								<g>
									<polygon class="st15" points="260.7,162.7 259.9,162.2 259.9,174.7 262.5,176.1 262.5,175.2 261.4,171.9 									"/>
									<polygon class="st14" points="262.5,163.7 260.7,162.7 260.7,174.2 262.5,175.2 									"/>
									<polygon class="st17" points="261,163.2 261,165 262.3,165.8 262.3,164 									"/>
								</g>
								<g>
									<polygon class="st15" points="264.2,164.7 263.4,164.3 263.4,176.7 266,178.2 266,177.3 264.9,174 									"/>
									<polygon class="st14" points="266,165.8 264.2,164.7 264.2,176.2 266,177.3 									"/>
									<polygon class="st17" points="264.6,165.3 264.6,167.1 265.9,167.9 265.9,166.1 									"/>
								</g>
								<g>
									<polygon class="st15" points="267.8,166.8 267,166.3 267,178.8 269.6,180.3 269.6,179.3 268.5,176 									"/>
									<polygon class="st14" points="269.6,167.8 267.8,166.8 267.8,178.3 269.6,179.3 									"/>
									<polygon class="st17" points="268.1,167.3 268.1,169.1 269.4,169.9 269.4,168.1 									"/>
								</g>
								<g>
									<polygon class="st15" points="271.4,168.8 270.5,168.4 270.5,180.8 273.1,182.3 273.1,181.4 272,178.1 									"/>
									<polygon class="st14" points="273.1,169.9 271.4,168.8 271.4,180.3 273.1,181.4 									"/>
									<polygon class="st17" points="271.7,169.4 271.7,171.2 273,172 273,170.2 									"/>
								</g>
							</g>
							<g>
								<g>
									<polygon class="st15" points="288.9,179 288.1,178.5 288.1,191 290.7,192.5 290.7,191.5 289.6,188.2 									"/>
									<polygon class="st14" points="290.7,180 288.9,179 288.9,190.5 290.7,191.5 									"/>
									<polygon class="st17" points="289.3,179.5 289.3,181.3 290.6,182.1 290.6,180.3 									"/>
								</g>
								<g>
									<polygon class="st15" points="292.5,181 291.7,180.6 291.7,193 294.3,194.5 294.3,193.6 293.2,190.3 									"/>
									<polygon class="st14" points="294.3,182.1 292.5,181 292.5,192.5 294.3,193.6 									"/>
									<polygon class="st17" points="292.8,181.6 292.8,183.4 294.1,184.1 294.1,182.4 									"/>
								</g>
								<g>
									<polygon class="st15" points="296.1,183.1 295.2,182.6 295.2,195.1 297.8,196.6 297.8,195.6 296.7,192.3 									"/>
									<polygon class="st14" points="297.8,184.1 296.1,183.1 296.1,194.6 297.8,195.6 									"/>
									<polygon class="st17" points="296.4,183.7 296.4,185.4 297.7,186.2 297.7,184.4 									"/>
								</g>
								<g>
									<polygon class="st15" points="299.6,185.1 298.8,184.7 298.8,197.1 301.4,198.6 301.4,197.7 300.3,194.4 									"/>
									<polygon class="st14" points="301.4,186.2 299.6,185.1 299.6,196.7 301.4,197.7 									"/>
									<polygon class="st17" points="299.9,185.7 299.9,187.5 301.2,188.3 301.2,186.5 									"/>
								</g>
							</g>
						</g>
					</g>
				</g>
				<g>
					<g>
						<polygon class="st12" points="356.1,154.8 304,184.8 302.5,181.1 303.3,173 304,170 356.1,140 						"/>
						<polygon class="st9" points="356.1,140 304,170 300.6,169.5 263.3,148.2 260.2,144.7 312.3,114.7 						"/>
						<path class="st8" d="M260.2,144.7v14.8l43.8,25.3V170L260.2,144.7z"/>
					</g>
					<g>
						<g>
							<g>
								<polygon class="st13" points="310.9,164.3 310.2,164.7 267,143.4 266.3,143 270.1,140.8 								"/>
								<polygon class="st8" points="310.2,164.7 307.1,166.5 267,143.4 270.1,141.6 								"/>
							</g>
							<g>
								<polygon class="st13" points="317.3,160.6 316.7,161 273.4,139.6 272.8,139.2 276.6,137.1 								"/>
								<polygon class="st8" points="316.7,161 313.5,162.8 273.4,139.6 276.6,137.8 								"/>
							</g>
							<g>
								<polygon class="st13" points="323.8,156.8 323.2,157.2 279.9,135.9 279.3,135.5 283.1,133.3 								"/>
								<polygon class="st8" points="323.2,157.2 320,159 279.9,135.9 283.1,134.1 								"/>
							</g>
							<g>
								<polygon class="st13" points="330.3,153.1 329.6,153.5 286.4,132.1 285.7,131.8 289.5,129.6 								"/>
								<polygon class="st8" points="329.6,153.5 326.5,155.3 286.4,132.1 289.5,130.3 								"/>
							</g>
							<g>
								<polygon class="st13" points="336.8,149.4 336.1,149.7 292.9,128.4 292.2,128 296,125.8 								"/>
								<polygon class="st8" points="336.1,149.7 333,151.6 292.9,128.4 296,126.6 								"/>
							</g>
						</g>
						<g>
							<g>
								<polygon class="st9" points="338.3,152.1 337.7,152.5 334.5,165 334.5,165.8 338.3,163.6 								"/>
								<polygon class="st13" points="337.7,152.5 334.5,154.3 334.5,165 337.7,163.2 								"/>
							</g>
							<g>
								<polygon class="st9" points="331.9,155.8 331.2,156.2 328.1,168.7 328.1,169.5 331.9,167.3 								"/>
								<polygon class="st13" points="331.2,156.2 328.1,158 328.1,168.7 331.2,166.9 								"/>
							</g>
							<g>
								<polygon class="st9" points="325.5,159.5 324.8,159.9 321.7,172.4 321.7,173.2 325.5,171 								"/>
								<polygon class="st13" points="324.8,159.9 321.7,161.7 321.7,172.4 324.8,170.6 								"/>
							</g>
							<g>
								<polygon class="st9" points="319,163.3 318.4,163.6 315.2,176.1 315.2,176.9 319,174.7 								"/>
								<polygon class="st13" points="318.4,163.6 315.2,165.5 315.2,176.1 318.4,174.3 								"/>
							</g>
							<g>
								<polygon class="st9" points="312.6,167 311.9,167.4 308.8,179.8 308.8,180.6 312.6,178.4 								"/>
								<polygon class="st13" points="311.9,167.4 308.8,169.2 308.8,179.8 311.9,178 								"/>
							</g>
						</g>
					</g>
					<g>
						<path class="st14" d="M260.2,144.7l-1.5,0.9l43.8,40.1L304,170L260.2,144.7z"/>
						<path class="st15" d="M297.6,180.9l4.9,4.7l1.5-0.9V170l-1.5,0.9L297.6,180.9z"/>
						<path class="st16" d="M258.7,145.6v14.7l43.8,25.3v-14.8L258.7,145.6z"/>
						<g>
							<g>
								<polygon points="295,167.5 295,180.2 301.6,184 301.6,171.3 								"/>
								<polygon class="st17" points="297.4,177.9 297.4,180.5 299.3,181.6 299.3,179 								"/>
								<polygon class="st17" points="295.8,169 295.8,170.8 300.9,173.7 300.9,172 								"/>
							</g>
							<g>
								<polygon points="288,163.4 288,176.1 294.6,179.9 294.6,167.2 								"/>
								<polygon class="st17" points="290.3,173.8 290.3,176.4 292.2,177.5 292.2,174.9 								"/>
								<polygon class="st17" points="288.7,164.9 288.7,166.7 293.8,169.7 293.8,167.9 								"/>
							</g>
							<g>
								<polygon points="280.9,159.3 280.9,172 287.5,175.8 287.5,163.1 								"/>
								<polygon class="st17" points="283.2,169.7 283.2,172.3 285.2,173.4 285.2,170.8 								"/>
								<polygon class="st17" points="281.7,160.9 281.7,162.6 286.7,165.6 286.7,163.8 								"/>
							</g>
							<g>
								<polygon points="273.8,155.2 273.8,167.9 280.4,171.7 280.4,159 								"/>
								<polygon class="st17" points="276.1,165.6 276.1,168.2 278.1,169.4 278.1,166.7 								"/>
								<polygon class="st17" points="274.6,156.8 274.6,158.6 279.7,161.5 279.7,159.7 								"/>
							</g>
							<g>
								<polygon points="266.8,151.1 266.8,163.8 273.4,167.6 273.4,154.9 								"/>
								<polygon class="st17" points="269.1,161.5 269.1,164.1 271,165.3 271,162.6 								"/>
								<polygon class="st17" points="267.5,152.7 267.5,154.5 272.6,157.4 272.6,155.6 								"/>
							</g>
							<g>
								<polygon points="259.7,147 259.7,159.7 266.3,163.6 266.3,150.9 								"/>
								<polygon class="st17" points="262,157.4 262,160 264,161.2 264,158.5 								"/>
								<polygon class="st17" points="260.4,148.6 260.4,150.4 265.5,153.3 265.5,151.5 								"/>
							</g>
						</g>
					</g>
				</g>
			</g>
			<g>
				<g>
					<polygon class="st7" points="304.4,298.1 302.9,298.9 259,249.4 260.4,248.5 304.4,273.9 					"/>
					<polygon class="st5" points="302.9,298.9 259,273.6 259,249.4 302.9,274.7 					"/>
				</g>
				<g>
					<polygon class="st7" points="304.4,247.1 302.9,248 259,198.4 260.4,197.6 304.4,222.9 					"/>
					<polygon class="st5" points="302.9,248 259,222.6 259,198.4 302.9,223.7 					"/>
				</g>
				<g>
					<polygon class="st7" points="304.4,165.9 302.9,166.7 259,129.3 260.4,128.4 304.4,153.8 					"/>
					<polygon class="st5" points="302.9,166.7 259,141.4 259,129.3 302.9,154.6 					"/>
				</g>
			</g>
			<g>
				<g>
					<g>
						<polygon class="st8" points="351.3,79.6 351.3,276.9 353.4,278.1 355.8,79.4 						"/>
						<polygon class="st9" points="351.3,79.6 353.4,80.8 354.6,81.7 355.8,79.4 353.8,78.2 						"/>
						<polygon class="st12" points="353.4,80.8 353.4,278.1 355.8,276.7 355.8,79.4 						"/>
					</g>
					<g>
						<polygon class="st9" points="353.4,186.6 304.9,219.2 304.9,212.2 351.3,185.4 						"/>
						<polygon class="st12" points="353.4,193.6 307,220.4 307,213.4 353.4,186.6 						"/>
					</g>
					<g>
						<polygon class="st9" points="353.4,80.8 304.9,113.5 304.9,106.4 351.3,79.6 						"/>
						<polygon class="st12" points="353.4,87.9 307,114.7 307,107.6 353.4,80.8 						"/>
					</g>
					<g>
						<polygon class="st9" points="353.4,271.1 304.9,303.7 304.9,296.7 351.3,269.9 						"/>
						<polygon class="st12" points="353.4,278.1 307,304.9 307,297.9 353.4,271.1 						"/>
					</g>
					<g>
						<polygon class="st8" points="302.5,107.8 302.5,305.1 304.6,306.3 307,107.6 						"/>
						<polygon class="st9" points="302.5,107.8 304.6,109 305.8,109.9 307,107.6 304.9,106.4 						"/>
						<polygon class="st12" points="304.6,109 304.6,306.3 307,304.9 307,107.6 						"/>
					</g>
				</g>
				<g>
					<g>
						<polygon class="st6" points="363.5,281.3 359.7,283.4 356.2,275 358.1,92.8 359.7,86.1 363.5,83.9 						"/>
						<polygon class="st7" points="363.5,83.9 359.7,86.1 352,84.9 359.1,89.4 352.1,81.7 355.8,79.5 						"/>
						<path class="st19" d="M352.1,81.7V279l7.7,4.4V86.1L352.1,81.7z"/>
					</g>
					<g>
						<polygon class="st6" points="316,308.6 312.3,310.8 308.7,302.4 310.6,120.2 312.3,113.4 316,111.3 						"/>
						<polygon class="st7" points="316,111.3 312.3,113.4 304.5,112.2 311.6,116.8 304.6,109 308.4,106.9 						"/>
						<path class="st5" d="M304.6,109v197.3l7.7,4.4V113.4L304.6,109z"/>
					</g>
				</g>
			</g>
		</g>
		<g>
			<polygon class="st5" points="305,315 307.7,316.6 311.3,308.2 309.4,125.9 307.7,119.2 305,117.6 			"/>
			<polygon class="st5" points="359.7,276.2 362.5,277.8 366,269.4 364.1,100 362.5,94.8 359.7,93.2 			"/>
			<polygon class="st7" points="305,117.6 307.7,119.2 315.5,118 361.6,91.8 368.6,84.1 365.9,82.5 			"/>
			<polygon class="st7" points="311.2,304.3 313.9,305.9 317.9,307.6 355.5,285.6 362.5,277.8 359.7,276.2 			"/>
			<path class="st6" d="M307.7,119.2v197.3l60.9-35.2V84.1L307.7,119.2z M313.9,122.8l48.5-28v183.1l-48.5,28V122.8z"/>
		</g>
		<g>
			<polygon class="st5" points="304,121.4 235,81.6 235,78.4 372.4,78.7 			"/>
			<polygon class="st6" points="304,121.4 304,118.2 313.7,105.3 372.4,78.7 372.4,81.9 			"/>
			<polygon class="st7" points="304,118.2 235,78.4 303.5,38.9 372.4,78.7 			"/>
			<g>
				<g>
					<polygon class="st5" points="325,100.6 325.8,100.2 266.4,65.9 264.1,67.2 264.9,67.7 					"/>
					<polygon class="st15" points="323.4,101.5 325,100.6 266.4,66.8 264.9,67.7 					"/>
				</g>
				<g>
					<polygon class="st5" points="329.1,98.3 329.9,97.8 270.5,63.5 268.2,64.9 269,65.3 					"/>
					<polygon class="st15" points="327.5,99.1 329.1,98.3 270.5,64.5 269,65.3 					"/>
				</g>
				<g>
					<polygon class="st5" points="333.2,95.9 334,95.4 274.6,61.2 272.3,62.5 273.1,63 					"/>
					<polygon class="st15" points="331.6,96.8 333.2,95.9 274.6,62.1 273.1,63 					"/>
				</g>
				<g>
					<polygon class="st5" points="337.2,93.5 338.1,93.1 278.7,58.8 276.4,60.1 277.2,60.6 					"/>
					<polygon class="st15" points="335.7,94.4 337.2,93.5 278.7,59.7 277.2,60.6 					"/>
				</g>
				<g>
					<polygon class="st5" points="341.3,91.2 342.2,90.7 282.8,56.4 280.5,57.8 281.3,58.2 					"/>
					<polygon class="st15" points="339.8,92 341.3,91.2 282.8,57.4 281.3,58.2 					"/>
				</g>
				<g>
					<polygon class="st5" points="345.4,88.8 346.3,88.3 286.9,54.1 284.6,55.4 285.4,55.9 					"/>
					<polygon class="st15" points="343.9,89.7 345.4,88.8 286.9,55 285.4,55.9 					"/>
				</g>
			</g>
		</g>
		<g>
			<polygon class="st7" points="330.7,132.5 333.6,133.8 337.7,135.1 372.5,108.9 378.6,100.4 375.7,99.1 			"/>
			<polygon class="st5" points="351.6,314.4 354.5,315.7 357.1,306.9 335.8,138.8 333.6,133.8 330.7,132.5 			"/>
			<polygon class="st6" points="399.5,282.2 354.5,315.7 333.6,133.8 378.6,100.4 			"/>
			<polygon class="st5" points="363,225.6 351.2,234.4 348,207 359.9,198.2 			"/>
			<polygon class="st6" points="357.1,207.9 355.5,207.2 353.6,208.6 352.4,211.3 353.8,223.8 355.4,224.5 357.3,223 358.5,220.3 
							"/>
		</g>
	</g>
	<g>
		<g>
			<g>
				<polygon class="st12" points="428.7,330.2 376.7,360.2 375.1,356.5 376,348.4 376.7,345.5 428.7,315.4 				"/>
				<polygon class="st9" points="428.7,315.4 376.7,345.5 373.3,345 335.9,323.6 332.9,320.2 384.9,290.1 				"/>
				<path class="st8" d="M332.9,320.2v14.7l43.8,25.3v-14.7L332.9,320.2z"/>
			</g>
			<g>
				<g>
					<g>
						<polygon class="st13" points="383.5,339.8 382.8,340.1 339.6,318.8 338.9,318.4 342.7,316.2 						"/>
						<polygon class="st8" points="382.8,340.1 379.7,342 339.6,318.8 342.7,317 						"/>
					</g>
					<g>
						<polygon class="st13" points="390,336 389.3,336.4 346.1,315.1 345.4,314.7 349.2,312.5 						"/>
						<polygon class="st8" points="389.3,336.4 386.2,338.2 346.1,315.1 349.2,313.3 						"/>
					</g>
					<g>
						<polygon class="st13" points="396.5,332.3 395.8,332.7 352.6,311.3 351.9,310.9 355.7,308.7 						"/>
						<polygon class="st8" points="395.8,332.7 392.7,334.5 352.6,311.3 355.7,309.5 						"/>
					</g>
					<g>
						<polygon class="st13" points="403,328.5 402.3,328.9 359.1,307.6 358.4,307.2 362.2,305 						"/>
						<polygon class="st8" points="402.3,328.9 399.2,330.7 359.1,307.6 362.2,305.8 						"/>
					</g>
					<g>
						<polygon class="st13" points="409.4,324.8 408.8,325.2 365.5,303.8 364.9,303.4 368.7,301.3 						"/>
						<polygon class="st8" points="408.8,325.2 405.6,327 365.5,303.8 368.7,302 						"/>
					</g>
				</g>
				<g>
					<g>
						<polygon class="st9" points="411,327.6 410.3,327.9 407.2,340.4 407.2,341.2 411,339 						"/>
						<polygon class="st13" points="410.3,327.9 407.2,329.7 407.2,340.4 410.3,338.6 						"/>
					</g>
					<g>
						<polygon class="st9" points="404.6,331.3 403.9,331.7 400.8,344.1 400.8,344.9 404.6,342.7 						"/>
						<polygon class="st13" points="403.9,331.7 400.8,333.5 400.8,344.1 403.9,342.3 						"/>
					</g>
					<g>
						<polygon class="st9" points="398.1,335 397.5,335.4 394.3,347.9 394.3,348.6 398.1,346.4 						"/>
						<polygon class="st13" points="397.5,335.4 394.3,337.2 394.3,347.9 397.5,346 						"/>
					</g>
					<g>
						<polygon class="st9" points="391.7,338.7 391,339.1 387.9,351.6 387.9,352.3 391.7,350.1 						"/>
						<polygon class="st13" points="391,339.1 387.9,340.9 387.9,351.6 391,349.8 						"/>
					</g>
					<g>
						<polygon class="st9" points="385.3,342.4 384.6,342.8 381.5,355.3 381.5,356 385.3,353.8 						"/>
						<polygon class="st13" points="384.6,342.8 381.5,344.6 381.5,355.3 384.6,353.5 						"/>
					</g>
				</g>
			</g>
			<g>
				<path class="st14" d="M332.9,320.2l-1.5,0.9l43.8,40.1l1.5-15.6L332.9,320.2z"/>
				<path class="st15" d="M370.3,356.4l4.9,4.7l1.5-0.9v-14.7l-1.5,0.9L370.3,356.4z"/>
				<path class="st16" d="M331.4,321v14.7l43.8,25.3v-14.7L331.4,321z"/>
				<g>
					<g>
						<polygon class="st15" points="359.5,348.5 359.5,349.6 347.1,342.5 347.1,338.1 348,338.6 350.7,341.6 						"/>
						<polygon class="st20" points="359.5,345.2 359.5,348.5 348,341.9 348,338.6 						"/>
					</g>
					<polygon class="st15" points="347.1,331.9 347.1,336.3 359.5,343.5 359.5,339.1 					"/>
					<g>
						<g>
							<polygon class="st15" points="333.3,323.4 332.5,322.9 332.5,335.3 335.1,336.8 335.1,335.9 334,332.6 							"/>
							<polygon class="st14" points="335.1,324.4 333.3,323.4 333.3,334.9 335.1,335.9 							"/>
							<polygon class="st20" points="333.7,323.9 333.7,325.7 335,326.5 335,324.7 							"/>
						</g>
						<g>
							<polygon class="st15" points="336.9,325.4 336.1,324.9 336.1,337.4 338.7,338.9 338.7,338 337.6,334.7 							"/>
							<polygon class="st14" points="338.7,326.4 336.9,325.4 336.9,336.9 338.7,338 							"/>
							<polygon class="st20" points="337.2,326 337.2,327.8 338.5,328.5 338.5,326.7 							"/>
						</g>
						<g>
							<polygon class="st15" points="340.5,327.5 339.6,327 339.6,339.5 342.2,340.9 342.2,340 341.1,336.7 							"/>
							<polygon class="st14" points="342.2,328.5 340.5,327.5 340.5,339 342.2,340 							"/>
							<polygon class="st20" points="340.8,328 340.8,329.8 342.1,330.6 342.1,328.8 							"/>
						</g>
						<g>
							<polygon class="st15" points="344,329.5 343.2,329.1 343.2,341.5 345.8,343 345.8,342.1 344.7,338.8 							"/>
							<polygon class="st14" points="345.8,330.6 344,329.5 344,341 345.8,342.1 							"/>
							<polygon class="st20" points="344.3,330.1 344.3,331.9 345.6,332.6 345.6,330.9 							"/>
						</g>
					</g>
					<g>
						<g>
							<polygon class="st15" points="361.6,339.7 360.8,339.2 360.8,351.6 363.4,353.1 363.4,352.2 362.3,348.9 							"/>
							<polygon class="st14" points="363.4,340.7 361.6,339.7 361.6,351.2 363.4,352.2 							"/>
							<polygon class="st20" points="361.9,340.2 361.9,342 363.2,342.8 363.2,341 							"/>
						</g>
						<g>
							<polygon class="st15" points="365.2,341.7 364.3,341.3 364.3,353.7 366.9,355.2 366.9,354.3 365.8,351 							"/>
							<polygon class="st14" points="366.9,342.7 365.2,341.7 365.1,353.2 366.9,354.3 							"/>
							<polygon class="st20" points="365.5,342.3 365.5,344.1 366.8,344.8 366.8,343 							"/>
						</g>
						<g>
							<polygon class="st15" points="368.7,343.8 367.9,343.3 367.9,355.7 370.5,357.2 370.5,356.3 369.4,353 							"/>
							<polygon class="st14" points="370.5,344.8 368.7,343.8 368.7,355.3 370.5,356.3 							"/>
							<polygon class="st20" points="369,344.3 369,346.1 370.3,346.9 370.3,345.1 							"/>
						</g>
						<g>
							<polygon class="st15" points="372.3,345.8 371.4,345.4 371.4,357.8 374,359.3 374,358.4 372.9,355.1 							"/>
							<polygon class="st14" points="374,346.9 372.3,345.8 372.3,357.3 374,358.4 							"/>
							<polygon class="st20" points="372.6,346.4 372.6,348.2 373.9,348.9 373.9,347.2 							"/>
						</g>
					</g>
				</g>
			</g>
		</g>
		<g>
			<g>
				<polygon class="st12" points="430.1,308.8 378.1,338.8 376.5,335.1 377.4,327 378.1,324.1 430.1,294 				"/>
				<polygon class="st9" points="430.1,294 378.1,324.1 374.7,323.5 337.3,302.2 334.3,298.8 386.3,268.7 				"/>
				<path class="st8" d="M334.3,298.8v14.7l43.8,25.3v-14.7L334.3,298.8z"/>
			</g>
			<g>
				<g>
					<g>
						<polygon class="st13" points="384.9,318.4 384.2,318.7 341,297.4 340.3,297 344.1,294.8 						"/>
						<polygon class="st8" points="384.2,318.7 381.1,320.5 341,297.4 344.1,295.6 						"/>
					</g>
					<g>
						<polygon class="st13" points="391.4,314.6 390.7,315 347.5,293.6 346.8,293.3 350.6,291.1 						"/>
						<polygon class="st8" points="390.7,315 387.6,316.8 347.5,293.6 350.6,291.8 						"/>
					</g>
					<g>
						<polygon class="st13" points="397.9,310.9 397.2,311.2 354,289.9 353.3,289.5 357.1,287.3 						"/>
						<polygon class="st8" points="397.2,311.2 394.1,313.1 354,289.9 357.1,288.1 						"/>
					</g>
					<g>
						<polygon class="st13" points="404.4,307.1 403.7,307.5 360.5,286.2 359.8,285.8 363.6,283.6 						"/>
						<polygon class="st8" points="403.7,307.5 400.6,309.3 360.5,286.2 363.6,284.4 						"/>
					</g>
					<g>
						<polygon class="st13" points="410.8,303.4 410.2,303.8 367,282.4 366.3,282 370.1,279.8 						"/>
						<polygon class="st8" points="410.2,303.8 407,305.6 367,282.4 370.1,280.6 						"/>
					</g>
				</g>
				<g>
					<g>
						<polygon class="st9" points="412.4,306.1 411.7,306.5 408.6,319 408.6,319.8 412.4,317.6 						"/>
						<polygon class="st13" points="411.7,306.5 408.6,308.3 408.6,319 411.7,317.2 						"/>
					</g>
					<g>
						<polygon class="st9" points="406,309.8 405.3,310.2 402.2,322.7 402.2,323.5 406,321.3 						"/>
						<polygon class="st13" points="405.3,310.2 402.2,312 402.2,322.7 405.3,320.9 						"/>
					</g>
					<g>
						<polygon class="st9" points="399.5,313.6 398.9,313.9 395.7,326.4 395.7,327.2 399.5,325 						"/>
						<polygon class="st13" points="398.9,313.9 395.7,315.8 395.7,326.4 398.9,324.6 						"/>
					</g>
					<g>
						<polygon class="st9" points="393.1,317.3 392.4,317.7 389.3,330.1 389.3,330.9 393.1,328.7 						"/>
						<polygon class="st13" points="392.4,317.7 389.3,319.5 389.3,330.1 392.4,328.3 						"/>
					</g>
					<g>
						<polygon class="st9" points="386.7,321 386,321.4 382.9,333.9 382.9,334.6 386.7,332.4 						"/>
						<polygon class="st13" points="386,321.4 382.9,323.2 382.9,333.9 386,332 						"/>
					</g>
				</g>
			</g>
			<g>
				<path class="st14" d="M334.3,298.8l-1.5,0.9l43.8,40.1l1.5-15.6L334.3,298.8z"/>
				<path class="st15" d="M371.7,335l4.9,4.7l1.5-0.9v-14.7l-1.5,0.9L371.7,335z"/>
				<path class="st16" d="M332.8,299.6v14.8l43.8,25.3v-14.8L332.8,299.6z"/>
				<g>
					<g>
						<polygon points="369.1,321.5 369.1,334.2 375.7,338 375.7,325.3 						"/>
						<polygon class="st20" points="371.4,331.9 371.4,334.5 373.4,335.6 373.4,333 						"/>
						<polygon class="st20" points="369.9,323 369.9,324.8 374.9,327.8 374.9,326 						"/>
					</g>
					<g>
						<polygon points="362,317.4 362,330.1 368.6,333.9 368.6,321.2 						"/>
						<polygon class="st20" points="364.3,327.8 364.3,330.4 366.3,331.6 366.3,328.9 						"/>
						<polygon class="st20" points="362.8,319 362.8,320.7 367.9,323.7 367.9,321.9 						"/>
					</g>
					<g>
						<polygon points="355,313.3 355,326 361.6,329.8 361.6,317.1 						"/>
						<polygon class="st20" points="357.3,323.7 357.3,326.3 359.2,327.5 359.2,324.8 						"/>
						<polygon class="st20" points="355.7,314.9 355.7,316.7 360.8,319.6 360.8,317.8 						"/>
					</g>
					<g>
						<polygon points="347.9,309.2 347.9,321.9 354.5,325.7 354.5,313 						"/>
						<polygon class="st20" points="350.2,319.6 350.2,322.2 352.2,323.4 352.2,320.7 						"/>
						<polygon class="st20" points="348.6,310.8 348.6,312.6 353.7,315.5 353.7,313.7 						"/>
					</g>
					<g>
						<polygon points="340.8,305.2 340.8,317.8 347.4,321.7 347.4,309 						"/>
						<polygon class="st20" points="343.1,315.5 343.1,318.2 345.1,319.3 345.1,316.6 						"/>
						<polygon class="st20" points="341.6,306.7 341.6,308.5 346.6,311.4 346.6,309.6 						"/>
					</g>
					<g>
						<polygon points="333.7,301.1 333.7,313.8 340.3,317.6 340.3,304.9 						"/>
						<polygon class="st20" points="336.1,311.4 336.1,314.1 338,315.2 338,312.5 						"/>
						<polygon class="st20" points="334.5,302.6 334.5,304.4 339.6,307.3 339.6,305.6 						"/>
					</g>
				</g>
			</g>
		</g>
	</g>
</g>
</svg>
