<?xml version="1.0" encoding="utf-8"?>
<!-- Generator: Adobe Illustrator 26.0.1, SVG Export Plug-In . SVG Version: 6.00 Build 0)  -->
<svg version="1.1" id="Layer_1" xmlns="http://www.w3.org/2000/svg" xmlns:xlink="http://www.w3.org/1999/xlink" x="0px" y="0px"
	 viewBox="0 0 600 400" style="enable-background:new 0 0 600 400;" xml:space="preserve">
<style type="text/css">
	.st0{fill:#B0B5F1;}
	.st1{fill:#3E4950;}
	.st2{fill:#2E353A;}
	.st3{fill:#DD5555;}
	.st4{fill:#8A8DBD;}
	.st5{fill:#D9DDFD;}
	.st6{fill:#61727F;}
</style>
<g>
	<g>
		<polygon class="st0" points="300,364.6 75,234.7 75,165.3 300,295.2 		"/>
		<polygon class="st1" points="292.6,354.5 82.4,233.1 82.4,182.4 292.6,303.8 		"/>
		<polygon class="st1" points="292.6,294.3 82.4,172.9 82.4,179.4 292.6,300.8 		"/>
		<g>
			<path class="st0" d="M284.7,293c0-1.1,0.8-1.6,1.8-1c1,0.6,1.8,2,1.8,3.1c0,1.1-0.8,1.6-1.8,1C285.5,295.5,284.7,294.1,284.7,293
				z"/>
			<path class="st0" d="M277.7,288.9c0-1.1,0.8-1.6,1.8-1c1,0.6,1.8,2,1.8,3.1c0,1.1-0.8,1.6-1.8,1
				C278.5,291.4,277.7,290.1,277.7,288.9z"/>
			<path class="st0" d="M270.7,284.9c0-1.1,0.8-1.6,1.8-1c1,0.6,1.8,2,1.8,3.1c0,1.1-0.8,1.6-1.8,1
				C271.5,287.4,270.7,286,270.7,284.9z"/>
		</g>
		<g>
			<polygon class="st2" points="101.4,188.4 86.3,179.6 86.3,177.2 101.4,186 			"/>
			<polygon class="st2" points="125.7,202.4 110.6,193.7 110.6,191.2 125.7,200 			"/>
			<polygon class="st2" points="150,216.4 134.8,207.7 134.8,205.2 150,214 			"/>
			<polygon class="st2" points="174.2,230.4 159.1,221.7 159.1,219.3 174.2,228 			"/>
		</g>
		<g>
			<g>
				<g>
					<g>
						<polygon class="st2" points="131.8,216 97,195.9 97,194 131.8,214.1 						"/>
						<polygon class="st2" points="131.8,219.5 97,199.4 97,197.5 131.8,217.6 						"/>
					</g>
					<polygon class="st2" points="85.3,187.2 95.3,193 95.3,198.4 85.3,192.6 					"/>
					<polygon class="st3" points="86.3,189 94.2,193.5 94.2,196.7 86.3,192.1 					"/>
				</g>
				<g>
					<g>
						<polygon class="st2" points="184.4,246.4 149.7,226.3 149.7,224.4 184.4,244.5 						"/>
						<polygon class="st2" points="184.4,249.9 149.7,229.8 149.7,227.9 184.4,248 						"/>
					</g>
					<polygon class="st2" points="137.9,217.6 147.9,223.4 147.9,228.8 137.9,223 					"/>
					<polygon class="st3" points="139,219.3 146.9,223.9 146.9,227.1 139,222.5 					"/>
				</g>
				<g>
					<g>
						<polygon class="st2" points="237.1,276.8 202.3,256.7 202.3,254.8 237.1,274.9 						"/>
						<polygon class="st2" points="237.1,280.3 202.3,260.2 202.3,258.3 237.1,278.4 						"/>
					</g>
					<polygon class="st2" points="190.6,248 200.6,253.8 200.6,259.2 190.6,253.4 					"/>
					<polygon class="st3" points="191.6,249.7 199.5,254.3 199.5,257.5 191.6,252.9 					"/>
				</g>
				<g>
					<g>
						<polygon class="st2" points="289.7,307.1 255,287.1 255,285.2 289.7,305.3 						"/>
						<polygon class="st2" points="289.7,310.6 255,290.6 255,288.7 289.7,308.8 						"/>
					</g>
					<polygon class="st2" points="243.2,278.4 253.2,284.2 253.2,289.6 243.2,283.8 					"/>
					<polygon class="st3" points="244.3,280.1 252.2,284.7 252.2,287.9 244.3,283.3 					"/>
				</g>
			</g>
			<g>
				<g>
					<g>
						<polygon class="st2" points="131.8,225.7 97,205.6 97,203.8 131.8,223.8 						"/>
						<polygon class="st2" points="131.8,229.2 97,209.1 97,207.3 131.8,227.3 						"/>
					</g>
					<polygon class="st2" points="85.3,197 95.3,202.8 95.3,208.1 85.3,202.3 					"/>
					<polygon class="st3" points="86.3,198.7 94.2,203.3 94.2,206.4 86.3,201.8 					"/>
				</g>
				<g>
					<g>
						<polygon class="st2" points="184.4,256.1 149.7,236 149.7,234.2 184.4,254.2 						"/>
						<polygon class="st2" points="184.4,259.6 149.7,239.5 149.7,237.7 184.4,257.7 						"/>
					</g>
					<polygon class="st2" points="137.9,227.4 147.9,233.2 147.9,238.5 137.9,232.7 					"/>
					<polygon class="st3" points="139,229.1 146.9,233.7 146.9,236.8 139,232.2 					"/>
				</g>
				<g>
					<g>
						<polygon class="st2" points="237.1,286.5 202.3,266.4 202.3,264.6 237.1,284.6 						"/>
						<polygon class="st2" points="237.1,290 202.3,269.9 202.3,268.1 237.1,288.1 						"/>
					</g>
					<polygon class="st2" points="190.6,257.8 200.6,263.6 200.6,268.9 190.6,263.1 					"/>
					<polygon class="st3" points="191.6,259.5 199.5,264.1 199.5,267.2 191.6,262.6 					"/>
				</g>
				<g>
					<g>
						<polygon class="st2" points="289.7,316.9 255,296.8 255,295 289.7,315 						"/>
						<polygon class="st2" points="289.7,320.4 255,300.3 255,298.5 289.7,318.5 						"/>
					</g>
					<polygon class="st2" points="243.2,288.2 253.2,294 253.2,299.3 243.2,293.5 					"/>
					<polygon class="st3" points="244.3,289.9 252.2,294.5 252.2,297.6 244.3,293 					"/>
				</g>
			</g>
			<g>
				<g>
					<g>
						<polygon class="st2" points="131.8,235.4 97,215.4 97,213.5 131.8,233.6 						"/>
						<polygon class="st2" points="131.8,238.9 97,218.9 97,217 131.8,237.1 						"/>
					</g>
					<polygon class="st2" points="85.3,206.7 95.3,212.5 95.3,217.9 85.3,212.1 					"/>
					<polygon class="st3" points="86.3,208.4 94.2,213 94.2,216.2 86.3,211.6 					"/>
				</g>
				<g>
					<g>
						<polygon class="st2" points="184.4,265.8 149.7,245.8 149.7,243.9 184.4,264 						"/>
						<polygon class="st2" points="184.4,269.3 149.7,249.3 149.7,247.4 184.4,267.5 						"/>
					</g>
					<polygon class="st2" points="137.9,237.1 147.9,242.9 147.9,248.3 137.9,242.5 					"/>
					<polygon class="st3" points="139,238.8 146.9,243.4 146.9,246.6 139,242 					"/>
				</g>
				<g>
					<g>
						<polygon class="st2" points="237.1,296.2 202.3,276.2 202.3,274.3 237.1,294.4 						"/>
						<polygon class="st2" points="237.1,299.7 202.3,279.7 202.3,277.8 237.1,297.9 						"/>
					</g>
					<polygon class="st2" points="190.6,267.5 200.6,273.3 200.6,278.7 190.6,272.9 					"/>
					<polygon class="st3" points="191.6,269.2 199.5,273.8 199.5,276.9 191.6,272.4 					"/>
				</g>
				<g>
					<g>
						<polygon class="st2" points="289.7,326.6 255,306.6 255,304.7 289.7,324.8 						"/>
						<polygon class="st2" points="289.7,330.1 255,310.1 255,308.2 289.7,328.3 						"/>
					</g>
					<polygon class="st2" points="243.2,297.9 253.2,303.7 253.2,309.1 243.2,303.3 					"/>
					<polygon class="st3" points="244.3,299.6 252.2,304.2 252.2,307.3 244.3,302.8 					"/>
				</g>
			</g>
			<g>
				<g>
					<g>
						<polygon class="st2" points="131.8,245.2 97,225.1 97,223.3 131.8,243.3 						"/>
						<polygon class="st2" points="131.8,248.7 97,228.6 97,226.8 131.8,246.8 						"/>
					</g>
					<polygon class="st2" points="85.3,216.5 95.3,222.3 95.3,227.6 85.3,221.8 					"/>
					<polygon class="st3" points="86.3,218.2 94.2,222.7 94.2,225.9 86.3,221.3 					"/>
				</g>
				<g>
					<g>
						<polygon class="st2" points="184.4,275.6 149.7,255.5 149.7,253.7 184.4,273.7 						"/>
						<polygon class="st2" points="184.4,279.1 149.7,259 149.7,257.2 184.4,277.2 						"/>
					</g>
					<polygon class="st2" points="137.9,246.9 147.9,252.6 147.9,258 137.9,252.2 					"/>
					<polygon class="st3" points="139,248.6 146.9,253.1 146.9,256.3 139,251.7 					"/>
				</g>
				<g>
					<g>
						<polygon class="st2" points="237.1,306 202.3,285.9 202.3,284.1 237.1,304.1 						"/>
						<polygon class="st2" points="237.1,309.5 202.3,289.4 202.3,287.6 237.1,307.6 						"/>
					</g>
					<polygon class="st2" points="190.6,277.3 200.6,283 200.6,288.4 190.6,282.6 					"/>
					<polygon class="st3" points="191.6,279 199.5,283.5 199.5,286.7 191.6,282.1 					"/>
				</g>
				<g>
					<g>
						<polygon class="st2" points="289.7,336.4 255,316.3 255,314.5 289.7,334.5 						"/>
						<polygon class="st2" points="289.7,339.9 255,319.8 255,318 289.7,338 						"/>
					</g>
					<polygon class="st2" points="243.2,307.7 253.2,313.4 253.2,318.8 243.2,313 					"/>
					<polygon class="st3" points="244.3,309.4 252.2,313.9 252.2,317.1 244.3,312.5 					"/>
				</g>
			</g>
			<g>
				<g>
					<g>
						<polygon class="st2" points="131.8,254.9 97,234.9 97,233 131.8,253.1 						"/>
						<polygon class="st2" points="131.8,258.4 97,238.4 97,236.5 131.8,256.6 						"/>
					</g>
					<polygon class="st2" points="85.3,226.2 95.3,232 95.3,237.3 85.3,231.6 					"/>
					<polygon class="st3" points="86.3,227.9 94.2,232.5 94.2,235.6 86.3,231.1 					"/>
				</g>
				<g>
					<g>
						<polygon class="st2" points="184.4,285.3 149.7,265.3 149.7,263.4 184.4,283.5 						"/>
						<polygon class="st2" points="184.4,288.8 149.7,268.8 149.7,266.9 184.4,287 						"/>
					</g>
					<polygon class="st2" points="137.9,256.6 147.9,262.4 147.9,267.7 137.9,262 					"/>
					<polygon class="st3" points="139,258.3 146.9,262.9 146.9,266 139,261.5 					"/>
				</g>
				<g>
					<g>
						<polygon class="st2" points="237.1,315.7 202.3,295.7 202.3,293.8 237.1,313.9 						"/>
						<polygon class="st2" points="237.1,319.2 202.3,299.2 202.3,297.3 237.1,317.4 						"/>
					</g>
					<polygon class="st2" points="190.6,287 200.6,292.8 200.6,298.1 190.6,292.4 					"/>
					<polygon class="st3" points="191.6,288.7 199.5,293.3 199.5,296.4 191.6,291.9 					"/>
				</g>
				<g>
					<g>
						<polygon class="st2" points="289.7,346.1 255,326 255,324.2 289.7,344.3 						"/>
						<polygon class="st2" points="289.7,349.6 255,329.5 255,327.7 289.7,347.8 						"/>
					</g>
					<polygon class="st2" points="243.2,317.4 253.2,323.2 253.2,328.5 243.2,322.8 					"/>
					<polygon class="st3" points="244.3,319.1 252.2,323.7 252.2,326.8 244.3,322.3 					"/>
				</g>
			</g>
		</g>
	</g>
	<g>
		<polygon class="st4" points="525,234.7 300,364.6 300,295.2 525,165.3 		"/>
		<polygon class="st0" points="518.8,214.1 306.2,336.9 306.2,315.8 518.8,193 		"/>
		<polygon class="st4" points="515.8,213 309.2,332.3 309.2,316.9 515.8,197.6 		"/>
		<g>
			<g>
				<path class="st2" d="M307.8,353.1L307.8,353.1c-0.9,0.5-1.6,0-1.6-1.2v-8.3c0-1.2,0.7-2.5,1.6-3.1l0,0c0.9-0.5,1.6,0,1.6,1.2
					v8.3C309.4,351.2,308.7,352.6,307.8,353.1z"/>
				<path class="st2" d="M313.9,349.5L313.9,349.5c-0.9,0.5-1.6,0-1.6-1.2V340c0-1.2,0.7-2.5,1.6-3.1l0,0c0.9-0.5,1.6,0,1.6,1.2v8.3
					C315.5,347.7,314.8,349,313.9,349.5z"/>
				<path class="st2" d="M320.1,346L320.1,346c-0.9,0.5-1.6,0-1.6-1.2v-8.3c0-1.2,0.7-2.5,1.6-3.1l0,0c0.9-0.5,1.6,0,1.6,1.2v8.3
					C321.7,344.1,321,345.5,320.1,346z"/>
				<path class="st2" d="M326.2,342.5L326.2,342.5c-0.9,0.5-1.6,0-1.6-1.2v-8.3c0-1.2,0.7-2.5,1.6-3.1l0,0c0.9-0.5,1.6,0,1.6,1.2
					v8.3C327.8,340.6,327.1,342,326.2,342.5z"/>
				<path class="st2" d="M332.3,338.9L332.3,338.9c-0.9,0.5-1.6,0-1.6-1.2v-8.3c0-1.2,0.7-2.5,1.6-3.1l0,0c0.9-0.5,1.6,0,1.6,1.2
					v8.3C333.9,337,333.2,338.4,332.3,338.9z"/>
				<path class="st2" d="M338.5,335.4L338.5,335.4c-0.9,0.5-1.6,0-1.6-1.2v-8.3c0-1.2,0.7-2.5,1.6-3.1l0,0c0.9-0.5,1.6,0,1.6,1.2
					v8.3C340.1,333.5,339.4,334.9,338.5,335.4z"/>
			</g>
			<g>
				<path class="st2" d="M397.2,301.5L397.2,301.5c-0.9,0.5-1.6,0-1.6-1.2v-8.3c0-1.2,0.7-2.5,1.6-3.1l0,0c0.9-0.5,1.6,0,1.6,1.2
					v8.3C398.8,299.6,398.1,301,397.2,301.5z"/>
				<path class="st2" d="M403.3,297.9L403.3,297.9c-0.9,0.5-1.6,0-1.6-1.2v-8.3c0-1.2,0.7-2.5,1.6-3.1l0,0c0.9-0.5,1.6,0,1.6,1.2
					v8.3C404.9,296.1,404.2,297.4,403.3,297.9z"/>
				<path class="st2" d="M409.4,294.4L409.4,294.4c-0.9,0.5-1.6,0-1.6-1.2v-8.3c0-1.2,0.7-2.5,1.6-3.1l0,0c0.9-0.5,1.6,0,1.6,1.2
					v8.3C411,292.5,410.3,293.9,409.4,294.4z"/>
				<path class="st2" d="M415.6,290.9L415.6,290.9c-0.9,0.5-1.6,0-1.6-1.2v-8.3c0-1.2,0.7-2.5,1.6-3.1l0,0c0.9-0.5,1.6,0,1.6,1.2
					v8.3C417.2,289,416.4,290.4,415.6,290.9z"/>
				<path class="st2" d="M421.7,287.3L421.7,287.3c-0.9,0.5-1.6,0-1.6-1.2v-8.3c0-1.2,0.7-2.5,1.6-3.1l0,0c0.9-0.5,1.6,0,1.6,1.2
					v8.3C423.3,285.5,422.6,286.8,421.7,287.3z"/>
				<path class="st2" d="M427.8,283.8L427.8,283.8c-0.9,0.5-1.6,0-1.6-1.2v-8.3c0-1.2,0.7-2.5,1.6-3.1l0,0c0.9-0.5,1.6,0,1.6,1.2
					v8.3C429.4,281.9,428.7,283.3,427.8,283.8z"/>
			</g>
			<g>
				<path class="st2" d="M486.5,249.9L486.5,249.9c-0.9,0.5-1.6,0-1.6-1.2v-8.3c0-1.2,0.7-2.5,1.6-3.1l0,0c0.9-0.5,1.6,0,1.6,1.2
					v8.3C488.1,248,487.4,249.4,486.5,249.9z"/>
				<path class="st2" d="M492.7,246.4L492.7,246.4c-0.9,0.5-1.6,0-1.6-1.2v-8.3c0-1.2,0.7-2.5,1.6-3.1l0,0c0.9-0.5,1.6,0,1.6,1.2
					v8.3C494.3,244.5,493.5,245.8,492.7,246.4z"/>
				<path class="st2" d="M498.8,242.8L498.8,242.8c-0.9,0.5-1.6,0-1.6-1.2v-8.3c0-1.2,0.7-2.5,1.6-3.1l0,0c0.9-0.5,1.6,0,1.6,1.2
					v8.3C500.4,240.9,499.7,242.3,498.8,242.8z"/>
				<path class="st2" d="M504.9,239.3L504.9,239.3c-0.9,0.5-1.6,0-1.6-1.2v-8.3c0-1.2,0.7-2.5,1.6-3.1l0,0c0.9-0.5,1.6,0,1.6,1.2
					v8.3C506.5,237.4,505.8,238.8,504.9,239.3z"/>
				<path class="st2" d="M511.1,235.7L511.1,235.7c-0.9,0.5-1.6,0-1.6-1.2v-8.3c0-1.2,0.7-2.5,1.6-3.1l0,0c0.9-0.5,1.6,0,1.6,1.2
					v8.3C512.7,233.9,511.9,235.2,511.1,235.7z"/>
				<path class="st2" d="M517.2,232.2L517.2,232.2c-0.9,0.5-1.6,0-1.6-1.2v-8.3c0-1.2,0.7-2.5,1.6-3.1l0,0c0.9-0.5,1.6,0,1.6,1.2
					v8.3C518.8,230.3,518.1,231.7,517.2,232.2z"/>
			</g>
		</g>
		<g>
			<g>
				<path class="st2" d="M307.8,297.7L307.8,297.7c-0.9,0.5-1.6,1.9-1.6,3.1v8.3c0,1.2,0.7,1.7,1.6,1.2l0,0c0.9-0.5,1.6-1.9,1.6-3.1
					v-8.3C309.4,297.7,308.7,297.2,307.8,297.7z"/>
				<path class="st2" d="M313.9,294.2L313.9,294.2c-0.9,0.5-1.6,1.9-1.6,3.1v8.3c0,1.2,0.7,1.7,1.6,1.2l0,0c0.9-0.5,1.6-1.9,1.6-3.1
					v-8.3C315.5,294.2,314.8,293.7,313.9,294.2z"/>
				<path class="st2" d="M320.1,290.6L320.1,290.6c-0.9,0.5-1.6,1.9-1.6,3.1v8.3c0,1.2,0.7,1.7,1.6,1.2l0,0c0.9-0.5,1.6-1.9,1.6-3.1
					v-8.3C321.7,290.7,321,290.1,320.1,290.6z"/>
				<path class="st2" d="M326.2,287.1L326.2,287.1c-0.9,0.5-1.6,1.9-1.6,3.1v8.3c0,1.2,0.7,1.7,1.6,1.2l0,0c0.9-0.5,1.6-1.9,1.6-3.1
					v-8.3C327.8,287.1,327.1,286.6,326.2,287.1z"/>
				<path class="st2" d="M332.3,283.5L332.3,283.5c-0.9,0.5-1.6,1.9-1.6,3.1v8.3c0,1.2,0.7,1.7,1.6,1.2l0,0c0.9-0.5,1.6-1.9,1.6-3.1
					v-8.3C333.9,283.6,333.2,283,332.3,283.5z"/>
				<path class="st2" d="M338.5,280L338.5,280c-0.9,0.5-1.6,1.9-1.6,3.1v8.3c0,1.2,0.7,1.7,1.6,1.2l0,0c0.9-0.5,1.6-1.9,1.6-3.1
					v-8.3C340.1,280,339.4,279.5,338.5,280z"/>
			</g>
			<g>
				<path class="st2" d="M397.2,246.1L397.2,246.1c-0.9,0.5-1.6,1.9-1.6,3.1v8.3c0,1.2,0.7,1.7,1.6,1.2l0,0c0.9-0.5,1.6-1.9,1.6-3.1
					v-8.3C398.8,246.1,398.1,245.6,397.2,246.1z"/>
				<path class="st2" d="M403.3,242.6L403.3,242.6c-0.9,0.5-1.6,1.9-1.6,3.1v8.3c0,1.2,0.7,1.7,1.6,1.2l0,0c0.9-0.5,1.6-1.9,1.6-3.1
					v-8.3C404.9,242.6,404.2,242.1,403.3,242.6z"/>
				<path class="st2" d="M409.4,239L409.4,239c-0.9,0.5-1.6,1.9-1.6,3.1v8.3c0,1.2,0.7,1.7,1.6,1.2l0,0c0.9-0.5,1.6-1.9,1.6-3.1
					v-8.3C411,239.1,410.3,238.5,409.4,239z"/>
				<path class="st2" d="M415.6,235.5L415.6,235.5c-0.9,0.5-1.6,1.9-1.6,3.1v8.3c0,1.2,0.7,1.7,1.6,1.2l0,0c0.9-0.5,1.6-1.9,1.6-3.1
					v-8.3C417.2,235.5,416.4,235,415.6,235.5z"/>
				<path class="st2" d="M421.7,232L421.7,232c-0.9,0.5-1.6,1.9-1.6,3.1v8.3c0,1.2,0.7,1.7,1.6,1.2l0,0c0.9-0.5,1.6-1.9,1.6-3.1
					v-8.3C423.3,232,422.6,231.4,421.7,232z"/>
				<path class="st2" d="M427.8,228.4L427.8,228.4c-0.9,0.5-1.6,1.9-1.6,3.1v8.3c0,1.2,0.7,1.7,1.6,1.2l0,0c0.9-0.5,1.6-1.9,1.6-3.1
					v-8.3C429.4,228.4,428.7,227.9,427.8,228.4z"/>
			</g>
			<g>
				<path class="st2" d="M486.5,194.5L486.5,194.5c-0.9,0.5-1.6,1.9-1.6,3.1v8.3c0,1.2,0.7,1.7,1.6,1.2l0,0c0.9-0.5,1.6-1.9,1.6-3.1
					v-8.3C488.1,194.6,487.4,194,486.5,194.5z"/>
				<path class="st2" d="M492.7,191L492.7,191c-0.9,0.5-1.6,1.9-1.6,3.1v8.3c0,1.2,0.7,1.7,1.6,1.2l0,0c0.9-0.5,1.6-1.9,1.6-3.1
					v-8.3C494.3,191,493.5,190.5,492.7,191z"/>
				<path class="st2" d="M498.8,187.4L498.8,187.4c-0.9,0.5-1.6,1.9-1.6,3.1v8.3c0,1.2,0.7,1.7,1.6,1.2l0,0c0.9-0.5,1.6-1.9,1.6-3.1
					v-8.3C500.4,187.5,499.7,186.9,498.8,187.4z"/>
				<path class="st2" d="M504.9,183.9L504.9,183.9c-0.9,0.5-1.6,1.9-1.6,3.1v8.3c0,1.2,0.7,1.7,1.6,1.2l0,0c0.9-0.5,1.6-1.9,1.6-3.1
					v-8.3C506.5,183.9,505.8,183.4,504.9,183.9z"/>
				<path class="st2" d="M511.1,180.4L511.1,180.4c-0.9,0.5-1.6,1.9-1.6,3.1v8.3c0,1.2,0.7,1.7,1.6,1.2l0,0c0.9-0.5,1.6-1.9,1.6-3.1
					v-8.3C512.7,180.4,511.9,179.9,511.1,180.4z"/>
				<path class="st2" d="M517.2,176.8L517.2,176.8c-0.9,0.5-1.6,1.9-1.6,3.1v8.3c0,1.2,0.7,1.7,1.6,1.2l0,0c0.9-0.5,1.6-1.9,1.6-3.1
					V178C518.8,176.9,518.1,176.3,517.2,176.8z"/>
			</g>
		</g>
	</g>
	<g>
		<polygon class="st5" points="525,165.3 300,35.4 75,165.3 300,295.2 		"/>
		<polygon class="st0" points="501.5,165.3 300,49 98.5,165.3 300,281.7 		"/>
		<polygon class="st5" points="494.3,165.3 300,53.1 105.7,165.3 300,277.5 		"/>
		<path class="st6" d="M321.5,189.3l-63-36.4c-4.8-2.8-4.2-7.6,1.3-10.8l0,0c5.6-3.2,14-3.6,18.8-0.8l63,36.4
			c4.8,2.8,4.2,7.6-1.3,10.8l0,0C334.7,191.8,326.3,192.1,321.5,189.3z"/>
	</g>
</g>
</svg>
