<?xml version="1.0" encoding="utf-8"?>
<!-- Generator: Adobe Illustrator 26.0.1, SVG Export Plug-In . SVG Version: 6.00 Build 0)  -->
<svg version="1.1" id="Layer_1" xmlns="http://www.w3.org/2000/svg" xmlns:xlink="http://www.w3.org/1999/xlink" x="0px" y="0px"
	 viewBox="0 0 600 400" style="enable-background:new 0 0 600 400;" xml:space="preserve">
<style type="text/css">
	.st0{fill-rule:evenodd;clip-rule:evenodd;fill:#364559;}
	.st1{fill-rule:evenodd;clip-rule:evenodd;fill:#475A70;}
	.st2{fill-rule:evenodd;clip-rule:evenodd;fill:#121A21;}
	.st3{fill-rule:evenodd;clip-rule:evenodd;fill:#273442;}
	.st4{fill-rule:evenodd;clip-rule:evenodd;fill:#5E728C;}
	.st5{fill-rule:evenodd;clip-rule:evenodd;fill:#88A3BA;}
	.st6{fill-rule:evenodd;clip-rule:evenodd;fill:#93ABBF;}
	.st7{fill:#475A70;}
	
		.st8{clip-path:url(#SVGID_00000120531069350370461690000010414826620610319037_);fill-rule:evenodd;clip-rule:evenodd;fill:#273442;}
	.st9{fill-rule:evenodd;clip-rule:evenodd;}
	.st10{fill-rule:evenodd;clip-rule:evenodd;fill:#698293;}
	
		.st11{clip-path:url(#SVGID_00000057827818549320837500000001161390501746913410_);fill-rule:evenodd;clip-rule:evenodd;fill:#273442;}
	
		.st12{clip-path:url(#SVGID_00000080196850535132802470000016482773182182520251_);fill-rule:evenodd;clip-rule:evenodd;fill:#273442;}
	
		.st13{clip-path:url(#SVGID_00000124867928824430478730000006479031206629389224_);fill-rule:evenodd;clip-rule:evenodd;fill:#273442;}
	
		.st14{clip-path:url(#SVGID_00000004542445350345256650000005644062100516482214_);fill-rule:evenodd;clip-rule:evenodd;fill:#273442;}
	
		.st15{clip-path:url(#SVGID_00000060022916487550552880000001698508531736576906_);fill-rule:evenodd;clip-rule:evenodd;fill:#273442;}
	
		.st16{clip-path:url(#SVGID_00000124158435422752989330000015779437693102357133_);fill-rule:evenodd;clip-rule:evenodd;fill:#273442;}
	
		.st17{clip-path:url(#SVGID_00000157300747377980365110000012237128409179415457_);fill-rule:evenodd;clip-rule:evenodd;fill:#273442;}
	
		.st18{clip-path:url(#SVGID_00000088126382467731919380000007470056794227143040_);fill-rule:evenodd;clip-rule:evenodd;fill:#273442;}
	
		.st19{clip-path:url(#SVGID_00000178905885051784910230000016798784845461036702_);fill-rule:evenodd;clip-rule:evenodd;fill:#273442;}
	
		.st20{clip-path:url(#SVGID_00000145059165028324157300000015332818125742746039_);fill-rule:evenodd;clip-rule:evenodd;fill:#273442;}
	
		.st21{clip-path:url(#SVGID_00000055689542304658328530000015838130251344982701_);fill-rule:evenodd;clip-rule:evenodd;fill:#273442;}
	
		.st22{clip-path:url(#SVGID_00000077283666623657761010000004697456634090223542_);fill-rule:evenodd;clip-rule:evenodd;fill:#273442;}
	
		.st23{clip-path:url(#SVGID_00000141430582588159670180000014814788406648278657_);fill-rule:evenodd;clip-rule:evenodd;fill:#273442;}
	
		.st24{clip-path:url(#SVGID_00000007393041872168260570000011476359237223573414_);fill-rule:evenodd;clip-rule:evenodd;fill:#273442;}
	
		.st25{clip-path:url(#SVGID_00000160173386095361249040000009975251049636648578_);fill-rule:evenodd;clip-rule:evenodd;fill:#273442;}
	
		.st26{clip-path:url(#SVGID_00000095318898015110640500000010005978054331239070_);fill-rule:evenodd;clip-rule:evenodd;fill:#273442;}
	
		.st27{clip-path:url(#SVGID_00000167393895720927142210000014386849575574896056_);fill-rule:evenodd;clip-rule:evenodd;fill:#273442;}
	
		.st28{clip-path:url(#SVGID_00000123428869001648594030000012884274505548980864_);fill-rule:evenodd;clip-rule:evenodd;fill:#273442;}
	
		.st29{clip-path:url(#SVGID_00000157304118581873985150000001639853747456167855_);fill-rule:evenodd;clip-rule:evenodd;fill:#273442;}
	
		.st30{clip-path:url(#SVGID_00000173876427829761871750000007620019269482672047_);fill-rule:evenodd;clip-rule:evenodd;fill:#273442;}
	
		.st31{clip-path:url(#SVGID_00000069362177117235977070000005023176609680751274_);fill-rule:evenodd;clip-rule:evenodd;fill:#273442;}
	
		.st32{clip-path:url(#SVGID_00000003065208310813359930000009272221708587023746_);fill-rule:evenodd;clip-rule:evenodd;fill:#273442;}
	
		.st33{clip-path:url(#SVGID_00000087382824153796702170000017030249109905103748_);fill-rule:evenodd;clip-rule:evenodd;fill:#273442;}
	
		.st34{clip-path:url(#SVGID_00000161605967703782160580000016076487194021105043_);fill-rule:evenodd;clip-rule:evenodd;fill:#273442;}
	
		.st35{clip-path:url(#SVGID_00000088818543688121724740000014083329069990847156_);fill-rule:evenodd;clip-rule:evenodd;fill:#141C26;}
	
		.st36{clip-path:url(#SVGID_00000132774649568086884850000008466921725841667770_);fill-rule:evenodd;clip-rule:evenodd;fill:#141C26;}
	
		.st37{clip-path:url(#SVGID_00000118396662069798351780000002744860334706261903_);fill-rule:evenodd;clip-rule:evenodd;fill:#141C26;}
	
		.st38{clip-path:url(#SVGID_00000036941368750432155200000002838775899288796314_);fill-rule:evenodd;clip-rule:evenodd;fill:#141C26;}
	
		.st39{clip-path:url(#SVGID_00000181775737013773347380000011137864044713052084_);fill-rule:evenodd;clip-rule:evenodd;fill:#141C26;}
	
		.st40{clip-path:url(#SVGID_00000062894753454985590450000000933067659036630700_);fill-rule:evenodd;clip-rule:evenodd;fill:#141C26;}
	
		.st41{clip-path:url(#SVGID_00000013877933009868893040000016846812691058186931_);fill-rule:evenodd;clip-rule:evenodd;fill:#141C26;}
	
		.st42{clip-path:url(#SVGID_00000042002008707949601850000001434233851973971847_);fill-rule:evenodd;clip-rule:evenodd;fill:#141C26;}
	
		.st43{clip-path:url(#SVGID_00000054969404326112827480000010380079370642496131_);fill-rule:evenodd;clip-rule:evenodd;fill:#141C26;}
	
		.st44{clip-path:url(#SVGID_00000054969404326112827480000010380079370642496131_);fill-rule:evenodd;clip-rule:evenodd;fill:#273442;}
	
		.st45{clip-path:url(#SVGID_00000100351089233867495790000003799704371246435972_);fill-rule:evenodd;clip-rule:evenodd;fill:#141C26;}
	
		.st46{clip-path:url(#SVGID_00000100351089233867495790000003799704371246435972_);fill-rule:evenodd;clip-rule:evenodd;fill:#273442;}
	
		.st47{clip-path:url(#SVGID_00000103223294296911405100000005814425469258889860_);fill-rule:evenodd;clip-rule:evenodd;fill:#141C26;}
	
		.st48{clip-path:url(#SVGID_00000103223294296911405100000005814425469258889860_);fill-rule:evenodd;clip-rule:evenodd;fill:#273442;}
	
		.st49{clip-path:url(#SVGID_00000160184065453885710810000001555336611746545042_);fill-rule:evenodd;clip-rule:evenodd;fill:#141C26;}
	
		.st50{clip-path:url(#SVGID_00000160184065453885710810000001555336611746545042_);fill-rule:evenodd;clip-rule:evenodd;fill:#273442;}
	
		.st51{clip-path:url(#SVGID_00000089575753433936070670000012430882992148565638_);fill-rule:evenodd;clip-rule:evenodd;fill:#141C26;}
	
		.st52{clip-path:url(#SVGID_00000089575753433936070670000012430882992148565638_);fill-rule:evenodd;clip-rule:evenodd;fill:#273442;}
	
		.st53{clip-path:url(#SVGID_00000028289210467358660010000004751671388924275590_);fill-rule:evenodd;clip-rule:evenodd;fill:#141C26;}
	
		.st54{clip-path:url(#SVGID_00000028289210467358660010000004751671388924275590_);fill-rule:evenodd;clip-rule:evenodd;fill:#273442;}
	
		.st55{clip-path:url(#SVGID_00000103253040034440630360000016199794714532311205_);fill-rule:evenodd;clip-rule:evenodd;fill:#141C26;}
	
		.st56{clip-path:url(#SVGID_00000103253040034440630360000016199794714532311205_);fill-rule:evenodd;clip-rule:evenodd;fill:#273442;}
	
		.st57{clip-path:url(#SVGID_00000121246989657215005500000014057372320524912050_);fill-rule:evenodd;clip-rule:evenodd;fill:#141C26;}
	
		.st58{clip-path:url(#SVGID_00000121246989657215005500000014057372320524912050_);fill-rule:evenodd;clip-rule:evenodd;fill:#273442;}
	.st59{opacity:0.2;clip-path:url(#SVGID_00000160189480849923067190000012169558866406517662_);}
	.st60{opacity:0.29;fill:#FFFFFF;}
</style>
<g>
	<polygon class="st0" points="334.8,286.7 334.8,340.1 94.3,200 94.3,146.5 	"/>
	<polygon class="st1" points="171.8,195.4 171.8,241.5 97.5,198.2 97.5,152.1 	"/>
	<polygon class="st2" points="505.7,187.1 505.7,244.2 328.5,347.5 328.5,290.3 	"/>
	<polygon class="st1" points="360.1,273.7 360.1,327.2 336.4,341 336.4,287.6 	"/>
	<polygon class="st1" points="451.9,220.3 451.9,273.7 361.7,326.3 361.7,272.8 	"/>
	<polygon class="st1" points="453.5,219.4 453.5,272.8 458.2,270.1 458.2,216.6 	"/>
	<polygon class="st1" points="459.8,215.7 459.8,234.1 497.8,212 497.8,193.5 	"/>
	<polygon class="st3" points="459.8,236 459.8,269.1 497.8,247 497.8,213.8 	"/>
	<polygon class="st1" points="499.3,192.6 499.3,246.1 504.1,243.3 504.1,189.9 	"/>
	<polygon class="st1" points="330.1,291.3 330.1,344.7 334.8,342 334.8,288.5 	"/>
	<polygon class="st0" points="357,292.2 357,312.5 339.6,322.6 339.6,302.3 	"/>
	<polygon class="st3" points="466.1,213.8 466.1,219.4 461.4,222.1 461.4,216.6 	"/>
	<polygon class="st3" points="466.1,223 466.1,228.6 461.4,231.3 461.4,225.8 	"/>
	<polygon class="st3" points="472.5,210.1 472.5,215.7 467.7,218.4 467.7,212.9 	"/>
	<polygon class="st3" points="472.5,219.4 472.5,224.9 467.7,227.7 467.7,222.1 	"/>
	<polygon class="st3" points="478.8,206.5 478.8,212 474,214.7 474,209.2 	"/>
	<polygon class="st3" points="478.8,215.7 478.8,221.2 474,224 474,218.4 	"/>
	<polygon class="st3" points="485.1,202.8 485.1,208.3 480.4,211.1 480.4,205.5 	"/>
	<polygon class="st3" points="485.1,212 485.1,217.5 480.4,220.3 480.4,214.7 	"/>
	<polygon class="st3" points="491.4,199.1 491.4,204.6 486.7,207.4 486.7,201.8 	"/>
	<polygon class="st3" points="491.4,208.3 491.4,213.8 486.7,216.6 486.7,211.1 	"/>
	<polygon class="st3" points="356.2,293.6 356.2,312 340.3,321.2 340.3,302.8 	"/>
	<path class="st0" d="M355.4,299.3l0.6-0.4l-2.3-1.4l0,0c-1.4-0.7-3.3-0.6-5.4,0.6c-4.4,2.5-7.9,8.7-7.9,13.8c0,2.5,0.8,4.2,2.2,5.1
		l0,0l0.2,0.1c0,0,0,0,0,0l2.2,1.3l1.5-0.9l-0.1-0.1c0.6-0.2,1.3-0.5,2-0.9c4.4-2.5,7.9-8.7,7.9-13.8
		C356.2,301.4,355.9,300.2,355.4,299.3z"/>
	<path class="st4" d="M350.4,299.4c4.4-2.5,7.9-0.5,7.9,4.6c0,5.1-3.5,11.3-7.9,13.8c-4.4,2.5-7.9,0.5-7.9-4.6S346,302,350.4,299.4z
		"/>
	<path class="st0" d="M350.4,300.7c3.9-2.3,7-0.5,7,4s-3.1,9.9-7,12.2c-3.9,2.3-7,0.5-7-4C343.4,308.4,346.5,303,350.4,300.7z"/>
	<path class="st3" d="M350.4,307.2c0.7-0.4,1.3-0.1,1.3,0.8s-0.6,1.8-1.3,2.3c-0.7,0.4-1.3,0.1-1.3-0.8S349.7,307.6,350.4,307.2z"/>
	<polygon class="st2" points="456.6,219.4 456.6,221.2 455,222.1 455,220.3 	"/>
	<polygon class="st5" points="496.2,196.3 496.2,198.2 494.6,199.1 494.6,197.2 	"/>
	<polygon class="st2" points="496.2,200 496.2,201.8 494.6,202.8 494.6,200.9 	"/>
	<polygon class="st5" points="496.2,205.5 496.2,207.4 494.6,208.3 494.6,206.5 	"/>
	<polygon class="st5" points="496.2,209.2 496.2,211.1 494.6,212 494.6,210.1 	"/>
	<polygon class="st5" points="456.6,226.7 456.6,228.6 455,229.5 455,227.7 	"/>
	<polygon class="st2" points="456.6,234.1 456.6,236 455,236.9 455,235 	"/>
	<polygon class="st2" points="456.6,241.5 456.6,243.3 455,244.2 455,242.4 	"/>
	<polygon class="st5" points="456.6,248.9 456.6,250.7 455,251.6 455,249.8 	"/>
	<polygon class="st2" points="456.6,256.2 456.6,258.1 455,259 455,257.2 	"/>
	<polygon class="st5" points="456.6,263.6 456.6,265.5 455,266.4 455,264.5 	"/>
	<polygon class="st5" points="456.6,223 456.6,224.9 455,225.8 455,224 	"/>
	<polygon class="st2" points="456.6,230.4 456.6,232.3 455,233.2 455,231.3 	"/>
	<polygon class="st5" points="456.6,237.8 456.6,239.6 455,240.6 455,238.7 	"/>
	<polygon class="st2" points="456.6,245.2 456.6,247 455,247.9 455,246.1 	"/>
	<polygon class="st2" points="456.6,252.5 456.6,254.4 455,255.3 455,253.5 	"/>
	<polygon class="st5" points="456.6,259.9 456.6,261.8 455,262.7 455,260.8 	"/>
	<polygon class="st2" points="456.6,267.3 456.6,269.1 455,270.1 455,268.2 	"/>
	<g>
		<path class="st2" d="M462.2,236.4c0.4-0.3,0.8,0,0.8,0.5c0,0.5-0.4,1.1-0.8,1.4c-0.4,0.3-0.8,0-0.8-0.5
			C461.4,237.3,461.7,236.7,462.2,236.4z"/>
		<path class="st2" d="M462.2,241.9c0.4-0.3,0.8,0,0.8,0.5s-0.4,1.1-0.8,1.4c-0.4,0.3-0.8,0-0.8-0.5
			C461.4,242.8,461.7,242.2,462.2,241.9z"/>
		<path class="st2" d="M462.2,247.5c0.4-0.3,0.8,0,0.8,0.5c0,0.5-0.4,1.1-0.8,1.4c-0.4,0.3-0.8,0-0.8-0.5S461.7,247.7,462.2,247.5z"
			/>
		<path class="st2" d="M462.2,253c0.4-0.3,0.8,0,0.8,0.5c0,0.5-0.4,1.1-0.8,1.4c-0.4,0.3-0.8,0-0.8-0.5
			C461.4,253.9,461.7,253.3,462.2,253z"/>
		<path class="st2" d="M462.2,258.5c0.4-0.3,0.8,0,0.8,0.5c0,0.5-0.4,1.1-0.8,1.4c-0.4,0.3-0.8,0-0.8-0.5S461.7,258.8,462.2,258.5z"
			/>
		<path class="st2" d="M462.2,264.1c0.4-0.3,0.8,0,0.8,0.5c0,0.5-0.4,1.1-0.8,1.4c-0.4,0.3-0.8,0-0.8-0.5S461.7,264.3,462.2,264.1z"
			/>
		<path class="st2" d="M462.2,239.2c0.4-0.3,0.8,0,0.8,0.5c0,0.5-0.4,1.1-0.8,1.4c-0.4,0.3-0.8,0-0.8-0.5
			C461.4,240.1,461.7,239.4,462.2,239.2z"/>
		<path class="st2" d="M462.2,244.7c0.4-0.3,0.8,0,0.8,0.5s-0.4,1.1-0.8,1.4c-0.4,0.3-0.8,0-0.8-0.5S461.7,245,462.2,244.7z"/>
		<path class="st2" d="M462.2,250.2c0.4-0.3,0.8,0,0.8,0.5c0,0.5-0.4,1.1-0.8,1.4c-0.4,0.3-0.8,0-0.8-0.5
			C461.4,251.1,461.7,250.5,462.2,250.2z"/>
		<path class="st2" d="M462.2,255.8c0.4-0.3,0.8,0,0.8,0.5c0,0.5-0.4,1.1-0.8,1.4c-0.4,0.3-0.8,0-0.8-0.5
			C461.4,256.6,461.7,256,462.2,255.8z"/>
		<path class="st2" d="M462.2,261.3c0.4-0.3,0.8,0,0.8,0.5s-0.4,1.1-0.8,1.4c-0.4,0.3-0.8,0-0.8-0.5S461.7,261.6,462.2,261.3z"/>
		<path class="st2" d="M471.7,230.9c0.4-0.3,0.8,0,0.8,0.5s-0.4,1.1-0.8,1.4c-0.4,0.3-0.8,0-0.8-0.5
			C470.9,231.8,471.2,231.1,471.7,230.9z"/>
		<path class="st2" d="M471.7,236.4c0.4-0.3,0.8,0,0.8,0.5c0,0.5-0.4,1.1-0.8,1.4c-0.4,0.3-0.8,0-0.8-0.5
			C470.9,237.3,471.2,236.7,471.7,236.4z"/>
		<path class="st2" d="M471.7,241.9c0.4-0.3,0.8,0,0.8,0.5s-0.4,1.1-0.8,1.4c-0.4,0.3-0.8,0-0.8-0.5
			C470.9,242.8,471.2,242.2,471.7,241.9z"/>
		<path class="st2" d="M471.7,247.5c0.4-0.3,0.8,0,0.8,0.5c0,0.5-0.4,1.1-0.8,1.4c-0.4,0.3-0.8,0-0.8-0.5S471.2,247.7,471.7,247.5z"
			/>
		<path class="st2" d="M471.7,253c0.4-0.3,0.8,0,0.8,0.5c0,0.5-0.4,1.1-0.8,1.4c-0.4,0.3-0.8,0-0.8-0.5
			C470.9,253.9,471.2,253.3,471.7,253z"/>
		<path class="st2" d="M471.7,258.5c0.4-0.3,0.8,0,0.8,0.5c0,0.5-0.4,1.1-0.8,1.4c-0.4,0.3-0.8,0-0.8-0.5S471.2,258.8,471.7,258.5z"
			/>
		<path class="st2" d="M471.7,233.6c0.4-0.3,0.8,0,0.8,0.5c0,0.5-0.4,1.1-0.8,1.4c-0.4,0.3-0.8,0-0.8-0.5
			C470.9,234.5,471.2,233.9,471.7,233.6z"/>
		<path class="st2" d="M471.7,239.2c0.4-0.3,0.8,0,0.8,0.5c0,0.5-0.4,1.1-0.8,1.4c-0.4,0.3-0.8,0-0.8-0.5
			C470.9,240.1,471.2,239.4,471.7,239.2z"/>
		<path class="st2" d="M471.7,244.7c0.4-0.3,0.8,0,0.8,0.5s-0.4,1.1-0.8,1.4c-0.4,0.3-0.8,0-0.8-0.5S471.2,245,471.7,244.7z"/>
		<path class="st2" d="M471.7,250.2c0.4-0.3,0.8,0,0.8,0.5c0,0.5-0.4,1.1-0.8,1.4c-0.4,0.3-0.8,0-0.8-0.5
			C470.9,251.1,471.2,250.5,471.7,250.2z"/>
		<path class="st2" d="M471.7,255.8c0.4-0.3,0.8,0,0.8,0.5c0,0.5-0.4,1.1-0.8,1.4c-0.4,0.3-0.8,0-0.8-0.5
			C470.9,256.6,471.2,256,471.7,255.8z"/>
		<path class="st2" d="M481.2,225.4c0.4-0.3,0.8,0,0.8,0.5s-0.4,1.1-0.8,1.4c-0.4,0.3-0.8,0-0.8-0.5S480.7,225.6,481.2,225.4z"/>
		<path class="st2" d="M481.2,230.9c0.4-0.3,0.8,0,0.8,0.5s-0.4,1.1-0.8,1.4s-0.8,0-0.8-0.5C480.4,231.8,480.7,231.1,481.2,230.9z"
			/>
		<path class="st2" d="M481.2,236.4c0.4-0.3,0.8,0,0.8,0.5c0,0.5-0.4,1.1-0.8,1.4s-0.8,0-0.8-0.5
			C480.4,237.3,480.7,236.7,481.2,236.4z"/>
		<path class="st2" d="M481.2,241.9c0.4-0.3,0.8,0,0.8,0.5s-0.4,1.1-0.8,1.4c-0.4,0.3-0.8,0-0.8-0.5
			C480.4,242.8,480.7,242.2,481.2,241.9z"/>
		<path class="st2" d="M481.2,247.5c0.4-0.3,0.8,0,0.8,0.5c0,0.5-0.4,1.1-0.8,1.4c-0.4,0.3-0.8,0-0.8-0.5S480.7,247.7,481.2,247.5z"
			/>
		<path class="st2" d="M481.2,253c0.4-0.3,0.8,0,0.8,0.5c0,0.5-0.4,1.1-0.8,1.4s-0.8,0-0.8-0.5C480.4,253.9,480.7,253.3,481.2,253z"
			/>
		<path class="st2" d="M481.2,228.1c0.4-0.3,0.8,0,0.8,0.5c0,0.5-0.4,1.1-0.8,1.4c-0.4,0.3-0.8,0-0.8-0.5
			C480.4,229,480.7,228.4,481.2,228.1z"/>
		<path class="st2" d="M481.2,233.6c0.4-0.3,0.8,0,0.8,0.5c0,0.5-0.4,1.1-0.8,1.4s-0.8,0-0.8-0.5
			C480.4,234.5,480.7,233.9,481.2,233.6z"/>
		<path class="st2" d="M481.2,239.2c0.4-0.3,0.8,0,0.8,0.5c0,0.5-0.4,1.1-0.8,1.4c-0.4,0.3-0.8,0-0.8-0.5
			C480.4,240.1,480.7,239.4,481.2,239.2z"/>
		<path class="st2" d="M481.2,244.7c0.4-0.3,0.8,0,0.8,0.5s-0.4,1.1-0.8,1.4c-0.4,0.3-0.8,0-0.8-0.5S480.7,245,481.2,244.7z"/>
		<path class="st2" d="M481.2,250.2c0.4-0.3,0.8,0,0.8,0.5c0,0.5-0.4,1.1-0.8,1.4s-0.8,0-0.8-0.5
			C480.4,251.1,480.7,250.5,481.2,250.2z"/>
		<path class="st2" d="M490.6,219.8c0.4-0.3,0.8,0,0.8,0.5c0,0.5-0.4,1.1-0.8,1.4c-0.4,0.3-0.8,0-0.8-0.5
			C489.9,220.7,490.2,220.1,490.6,219.8z"/>
		<path class="st2" d="M490.6,225.4c0.4-0.3,0.8,0,0.8,0.5s-0.4,1.1-0.8,1.4c-0.4,0.3-0.8,0-0.8-0.5S490.2,225.6,490.6,225.4z"/>
		<path class="st2" d="M490.6,230.9c0.4-0.3,0.8,0,0.8,0.5s-0.4,1.1-0.8,1.4c-0.4,0.3-0.8,0-0.8-0.5
			C489.9,231.8,490.2,231.1,490.6,230.9z"/>
		<path class="st2" d="M490.6,236.4c0.4-0.3,0.8,0,0.8,0.5c0,0.5-0.4,1.1-0.8,1.4c-0.4,0.3-0.8,0-0.8-0.5
			C489.9,237.3,490.2,236.7,490.6,236.4z"/>
		<path class="st2" d="M490.6,241.9c0.4-0.3,0.8,0,0.8,0.5s-0.4,1.1-0.8,1.4c-0.4,0.3-0.8,0-0.8-0.5
			C489.9,242.8,490.2,242.2,490.6,241.9z"/>
		<path class="st2" d="M490.6,247.5c0.4-0.3,0.8,0,0.8,0.5c0,0.5-0.4,1.1-0.8,1.4c-0.4,0.3-0.8,0-0.8-0.5S490.2,247.7,490.6,247.5z"
			/>
		<path class="st2" d="M490.6,222.6c0.4-0.3,0.8,0,0.8,0.5s-0.4,1.1-0.8,1.4c-0.4,0.3-0.8,0-0.8-0.5
			C489.9,223.5,490.2,222.8,490.6,222.6z"/>
		<path class="st2" d="M490.6,228.1c0.4-0.3,0.8,0,0.8,0.5c0,0.5-0.4,1.1-0.8,1.4c-0.4,0.3-0.8,0-0.8-0.5
			C489.9,229,490.2,228.4,490.6,228.1z"/>
		<path class="st2" d="M490.6,233.6c0.4-0.3,0.8,0,0.8,0.5c0,0.5-0.4,1.1-0.8,1.4c-0.4,0.3-0.8,0-0.8-0.5
			C489.9,234.5,490.2,233.9,490.6,233.6z"/>
		<path class="st2" d="M490.6,239.2c0.4-0.3,0.8,0,0.8,0.5c0,0.5-0.4,1.1-0.8,1.4c-0.4,0.3-0.8,0-0.8-0.5
			C489.9,240.1,490.2,239.4,490.6,239.2z"/>
		<path class="st2" d="M490.6,244.7c0.4-0.3,0.8,0,0.8,0.5s-0.4,1.1-0.8,1.4c-0.4,0.3-0.8,0-0.8-0.5S490.2,245,490.6,244.7z"/>
		<path class="st2" d="M466.9,233.6c0.4-0.3,0.8,0,0.8,0.5c0,0.5-0.4,1.1-0.8,1.4s-0.8,0-0.8-0.5
			C466.1,234.5,466.5,233.9,466.9,233.6z"/>
		<path class="st2" d="M466.9,239.2c0.4-0.3,0.8,0,0.8,0.5c0,0.5-0.4,1.1-0.8,1.4c-0.4,0.3-0.8,0-0.8-0.5
			C466.1,240.1,466.5,239.4,466.9,239.2z"/>
		<path class="st2" d="M466.9,244.7c0.4-0.3,0.8,0,0.8,0.5s-0.4,1.1-0.8,1.4c-0.4,0.3-0.8,0-0.8-0.5S466.5,245,466.9,244.7z"/>
		<path class="st2" d="M466.9,250.2c0.4-0.3,0.8,0,0.8,0.5c0,0.5-0.4,1.1-0.8,1.4s-0.8,0-0.8-0.5
			C466.1,251.1,466.5,250.5,466.9,250.2z"/>
		<path class="st2" d="M466.9,255.8c0.4-0.3,0.8,0,0.8,0.5c0,0.5-0.4,1.1-0.8,1.4c-0.4,0.3-0.8,0-0.8-0.5
			C466.1,256.6,466.5,256,466.9,255.8z"/>
		<path class="st2" d="M466.9,261.3c0.4-0.3,0.8,0,0.8,0.5s-0.4,1.1-0.8,1.4s-0.8,0-0.8-0.5S466.5,261.6,466.9,261.3z"/>
		<path class="st2" d="M466.9,236.4c0.4-0.3,0.8,0,0.8,0.5c0,0.5-0.4,1.1-0.8,1.4s-0.8,0-0.8-0.5
			C466.1,237.3,466.5,236.7,466.9,236.4z"/>
		<path class="st2" d="M466.9,241.9c0.4-0.3,0.8,0,0.8,0.5s-0.4,1.1-0.8,1.4c-0.4,0.3-0.8,0-0.8-0.5
			C466.1,242.8,466.5,242.2,466.9,241.9z"/>
		<path class="st2" d="M466.9,247.5c0.4-0.3,0.8,0,0.8,0.5c0,0.5-0.4,1.1-0.8,1.4c-0.4,0.3-0.8,0-0.8-0.5S466.5,247.7,466.9,247.5z"
			/>
		<path class="st2" d="M466.9,253c0.4-0.3,0.8,0,0.8,0.5c0,0.5-0.4,1.1-0.8,1.4s-0.8,0-0.8-0.5C466.1,253.9,466.5,253.3,466.9,253z"
			/>
		<path class="st2" d="M466.9,258.5c0.4-0.3,0.8,0,0.8,0.5c0,0.5-0.4,1.1-0.8,1.4s-0.8,0-0.8-0.5S466.5,258.8,466.9,258.5z"/>
		<path class="st2" d="M476.4,228.1c0.4-0.3,0.8,0,0.8,0.5c0,0.5-0.4,1.1-0.8,1.4c-0.4,0.3-0.8,0-0.8-0.5
			C475.6,229,476,228.4,476.4,228.1z"/>
		<path class="st2" d="M476.4,233.6c0.4-0.3,0.8,0,0.8,0.5c0,0.5-0.4,1.1-0.8,1.4c-0.4,0.3-0.8,0-0.8-0.5
			C475.6,234.5,476,233.9,476.4,233.6z"/>
		<path class="st2" d="M476.4,239.2c0.4-0.3,0.8,0,0.8,0.5c0,0.5-0.4,1.1-0.8,1.4c-0.4,0.3-0.8,0-0.8-0.5
			C475.6,240.1,476,239.4,476.4,239.2z"/>
		<path class="st2" d="M476.4,244.7c0.4-0.3,0.8,0,0.8,0.5s-0.4,1.1-0.8,1.4c-0.4,0.3-0.8,0-0.8-0.5S476,245,476.4,244.7z"/>
		<path class="st2" d="M476.4,250.2c0.4-0.3,0.8,0,0.8,0.5c0,0.5-0.4,1.1-0.8,1.4c-0.4,0.3-0.8,0-0.8-0.5
			C475.6,251.1,476,250.5,476.4,250.2z"/>
		<path class="st2" d="M476.4,255.8c0.4-0.3,0.8,0,0.8,0.5c0,0.5-0.4,1.1-0.8,1.4c-0.4,0.3-0.8,0-0.8-0.5
			C475.6,256.6,476,256,476.4,255.8z"/>
		<path class="st2" d="M476.4,230.9c0.4-0.3,0.8,0,0.8,0.5s-0.4,1.1-0.8,1.4c-0.4,0.3-0.8,0-0.8-0.5
			C475.6,231.8,476,231.1,476.4,230.9z"/>
		<path class="st2" d="M476.4,236.4c0.4-0.3,0.8,0,0.8,0.5c0,0.5-0.4,1.1-0.8,1.4c-0.4,0.3-0.8,0-0.8-0.5
			C475.6,237.3,476,236.7,476.4,236.4z"/>
		<path class="st2" d="M476.4,241.9c0.4-0.3,0.8,0,0.8,0.5s-0.4,1.1-0.8,1.4c-0.4,0.3-0.8,0-0.8-0.5
			C475.6,242.8,476,242.2,476.4,241.9z"/>
		<path class="st2" d="M476.4,247.5c0.4-0.3,0.8,0,0.8,0.5c0,0.5-0.4,1.1-0.8,1.4c-0.4,0.3-0.8,0-0.8-0.5S476,247.7,476.4,247.5z"/>
		<path class="st2" d="M476.4,253c0.4-0.3,0.8,0,0.8,0.5c0,0.5-0.4,1.1-0.8,1.4c-0.4,0.3-0.8,0-0.8-0.5
			C475.6,253.9,476,253.3,476.4,253z"/>
		<path class="st2" d="M485.9,222.6c0.4-0.3,0.8,0,0.8,0.5s-0.4,1.1-0.8,1.4c-0.4,0.3-0.8,0-0.8-0.5
			C485.1,223.5,485.5,222.8,485.9,222.6z"/>
		<path class="st2" d="M485.9,228.1c0.4-0.3,0.8,0,0.8,0.5c0,0.5-0.4,1.1-0.8,1.4c-0.4,0.3-0.8,0-0.8-0.5
			C485.1,229,485.5,228.4,485.9,228.1z"/>
		<path class="st2" d="M485.9,233.6c0.4-0.3,0.8,0,0.8,0.5c0,0.5-0.4,1.1-0.8,1.4c-0.4,0.3-0.8,0-0.8-0.5
			C485.1,234.5,485.5,233.9,485.9,233.6z"/>
		<path class="st2" d="M485.9,239.2c0.4-0.3,0.8,0,0.8,0.5c0,0.5-0.4,1.1-0.8,1.4c-0.4,0.3-0.8,0-0.8-0.5
			C485.1,240.1,485.5,239.4,485.9,239.2z"/>
		<path class="st2" d="M485.9,244.7c0.4-0.3,0.8,0,0.8,0.5s-0.4,1.1-0.8,1.4c-0.4,0.3-0.8,0-0.8-0.5S485.5,245,485.9,244.7z"/>
		<path class="st2" d="M485.9,250.2c0.4-0.3,0.8,0,0.8,0.5c0,0.5-0.4,1.1-0.8,1.4c-0.4,0.3-0.8,0-0.8-0.5
			C485.1,251.1,485.5,250.5,485.9,250.2z"/>
		<path class="st2" d="M485.9,225.4c0.4-0.3,0.8,0,0.8,0.5s-0.4,1.1-0.8,1.4c-0.4,0.3-0.8,0-0.8-0.5S485.5,225.6,485.9,225.4z"/>
		<path class="st2" d="M485.9,230.9c0.4-0.3,0.8,0,0.8,0.5s-0.4,1.1-0.8,1.4c-0.4,0.3-0.8,0-0.8-0.5
			C485.1,231.8,485.5,231.1,485.9,230.9z"/>
		<path class="st2" d="M485.9,236.4c0.4-0.3,0.8,0,0.8,0.5c0,0.5-0.4,1.1-0.8,1.4c-0.4,0.3-0.8,0-0.8-0.5
			C485.1,237.3,485.5,236.7,485.9,236.4z"/>
		<path class="st2" d="M485.9,241.9c0.4-0.3,0.8,0,0.8,0.5s-0.4,1.1-0.8,1.4c-0.4,0.3-0.8,0-0.8-0.5
			C485.1,242.8,485.5,242.2,485.9,241.9z"/>
		<path class="st2" d="M485.9,247.5c0.4-0.3,0.8,0,0.8,0.5c0,0.5-0.4,1.1-0.8,1.4c-0.4,0.3-0.8,0-0.8-0.5S485.5,247.7,485.9,247.5z"
			/>
		<path class="st2" d="M495.4,217.1c0.4-0.3,0.8,0,0.8,0.5c0,0.5-0.4,1.1-0.8,1.4s-0.8,0-0.8-0.5C494.6,217.9,495,217.3,495.4,217.1
			z"/>
		<path class="st2" d="M495.4,222.6c0.4-0.3,0.8,0,0.8,0.5s-0.4,1.1-0.8,1.4c-0.4,0.3-0.8,0-0.8-0.5
			C494.6,223.5,495,222.8,495.4,222.6z"/>
		<path class="st2" d="M495.4,228.1c0.4-0.3,0.8,0,0.8,0.5c0,0.5-0.4,1.1-0.8,1.4c-0.4,0.3-0.8,0-0.8-0.5
			C494.6,229,495,228.4,495.4,228.1z"/>
		<path class="st2" d="M495.4,233.6c0.4-0.3,0.8,0,0.8,0.5c0,0.5-0.4,1.1-0.8,1.4s-0.8,0-0.8-0.5C494.6,234.5,495,233.9,495.4,233.6
			z"/>
		<path class="st2" d="M495.4,239.2c0.4-0.3,0.8,0,0.8,0.5c0,0.5-0.4,1.1-0.8,1.4c-0.4,0.3-0.8,0-0.8-0.5
			C494.6,240.1,495,239.4,495.4,239.2z"/>
		<path class="st2" d="M495.4,244.7c0.4-0.3,0.8,0,0.8,0.5s-0.4,1.1-0.8,1.4c-0.4,0.3-0.8,0-0.8-0.5S495,245,495.4,244.7z"/>
		<path class="st2" d="M495.4,219.8c0.4-0.3,0.8,0,0.8,0.5c0,0.5-0.4,1.1-0.8,1.4c-0.4,0.3-0.8,0-0.8-0.5
			C494.6,220.7,495,220.1,495.4,219.8z"/>
		<path class="st2" d="M495.4,225.4c0.4-0.3,0.8,0,0.8,0.5s-0.4,1.1-0.8,1.4c-0.4,0.3-0.8,0-0.8-0.5S495,225.6,495.4,225.4z"/>
		<path class="st2" d="M495.4,230.9c0.4-0.3,0.8,0,0.8,0.5s-0.4,1.1-0.8,1.4s-0.8,0-0.8-0.5C494.6,231.8,495,231.1,495.4,230.9z"/>
		<path class="st2" d="M495.4,236.4c0.4-0.3,0.8,0,0.8,0.5c0,0.5-0.4,1.1-0.8,1.4s-0.8,0-0.8-0.5C494.6,237.3,495,236.7,495.4,236.4
			z"/>
		<path class="st2" d="M495.4,241.9c0.4-0.3,0.8,0,0.8,0.5s-0.4,1.1-0.8,1.4c-0.4,0.3-0.8,0-0.8-0.5
			C494.6,242.8,495,242.2,495.4,241.9z"/>
		<path class="st2" d="M464.5,235c0.4-0.3,0.8,0,0.8,0.5s-0.4,1.1-0.8,1.4c-0.4,0.3-0.8,0-0.8-0.5S464.1,235.3,464.5,235z"/>
		<path class="st2" d="M464.5,240.6c0.4-0.3,0.8,0,0.8,0.5s-0.4,1.1-0.8,1.4c-0.4,0.3-0.8,0-0.8-0.5
			C463.8,241.4,464.1,240.8,464.5,240.6z"/>
		<path class="st2" d="M464.5,246.1c0.4-0.3,0.8,0,0.8,0.5c0,0.5-0.4,1.1-0.8,1.4c-0.4,0.3-0.8,0-0.8-0.5
			C463.8,247,464.1,246.3,464.5,246.1z"/>
		<path class="st2" d="M464.5,251.6c0.4-0.3,0.8,0,0.8,0.5c0,0.5-0.4,1.1-0.8,1.4c-0.4,0.3-0.8,0-0.8-0.5
			C463.8,252.5,464.1,251.9,464.5,251.6z"/>
		<path class="st2" d="M464.5,257.2c0.4-0.3,0.8,0,0.8,0.5c0,0.5-0.4,1.1-0.8,1.4c-0.4,0.3-0.8,0-0.8-0.5S464.1,257.4,464.5,257.2z"
			/>
		<path class="st2" d="M464.5,262.7c0.4-0.3,0.8,0,0.8,0.5s-0.4,1.1-0.8,1.4c-0.4,0.3-0.8,0-0.8-0.5
			C463.8,263.6,464.1,262.9,464.5,262.7z"/>
		<path class="st2" d="M464.5,237.8c0.4-0.3,0.8,0,0.8,0.5c0,0.5-0.4,1.1-0.8,1.4c-0.4,0.3-0.8,0-0.8-0.5
			C463.8,238.7,464.1,238,464.5,237.8z"/>
		<path class="st2" d="M464.5,243.3c0.4-0.3,0.8,0,0.8,0.5s-0.4,1.1-0.8,1.4c-0.4,0.3-0.8,0-0.8-0.5
			C463.8,244.2,464.1,243.6,464.5,243.3z"/>
		<path class="st2" d="M464.5,248.9c0.4-0.3,0.8,0,0.8,0.5c0,0.5-0.4,1.1-0.8,1.4c-0.4,0.3-0.8,0-0.8-0.5
			C463.8,249.7,464.1,249.1,464.5,248.9z"/>
		<path class="st2" d="M464.5,254.4c0.4-0.3,0.8,0,0.8,0.5c0,0.5-0.4,1.1-0.8,1.4c-0.4,0.3-0.8,0-0.8-0.5
			C463.8,255.3,464.1,254.6,464.5,254.4z"/>
		<path class="st2" d="M464.5,259.9c0.4-0.3,0.8,0,0.8,0.5s-0.4,1.1-0.8,1.4c-0.4,0.3-0.8,0-0.8-0.5
			C463.8,260.8,464.1,260.2,464.5,259.9z"/>
		<path class="st2" d="M474,229.5c0.4-0.3,0.8,0,0.8,0.5c0,0.5-0.4,1.1-0.8,1.4c-0.4,0.3-0.8,0-0.8-0.5S473.6,229.8,474,229.5z"/>
		<path class="st2" d="M474,235c0.4-0.3,0.8,0,0.8,0.5s-0.4,1.1-0.8,1.4c-0.4,0.3-0.8,0-0.8-0.5S473.6,235.3,474,235z"/>
		<path class="st2" d="M474,240.6c0.4-0.3,0.8,0,0.8,0.5s-0.4,1.1-0.8,1.4c-0.4,0.3-0.8,0-0.8-0.5
			C473.2,241.4,473.6,240.8,474,240.6z"/>
		<path class="st2" d="M474,246.1c0.4-0.3,0.8,0,0.8,0.5c0,0.5-0.4,1.1-0.8,1.4c-0.4,0.3-0.8,0-0.8-0.5
			C473.2,247,473.6,246.3,474,246.1z"/>
		<path class="st2" d="M474,251.6c0.4-0.3,0.8,0,0.8,0.5c0,0.5-0.4,1.1-0.8,1.4c-0.4,0.3-0.8,0-0.8-0.5
			C473.2,252.5,473.6,251.9,474,251.6z"/>
		<path class="st2" d="M474,257.2c0.4-0.3,0.8,0,0.8,0.5c0,0.5-0.4,1.1-0.8,1.4c-0.4,0.3-0.8,0-0.8-0.5S473.6,257.4,474,257.2z"/>
		<path class="st2" d="M474,232.3c0.4-0.3,0.8,0,0.8,0.5c0,0.5-0.4,1.1-0.8,1.4c-0.4,0.3-0.8,0-0.8-0.5
			C473.2,233.1,473.6,232.5,474,232.3z"/>
		<path class="st2" d="M474,237.8c0.4-0.3,0.8,0,0.8,0.5c0,0.5-0.4,1.1-0.8,1.4c-0.4,0.3-0.8,0-0.8-0.5
			C473.2,238.7,473.6,238,474,237.8z"/>
		<path class="st2" d="M474,243.3c0.4-0.3,0.8,0,0.8,0.5s-0.4,1.1-0.8,1.4c-0.4,0.3-0.8,0-0.8-0.5
			C473.2,244.2,473.6,243.6,474,243.3z"/>
		<path class="st2" d="M474,248.9c0.4-0.3,0.8,0,0.8,0.5c0,0.5-0.4,1.1-0.8,1.4c-0.4,0.3-0.8,0-0.8-0.5
			C473.2,249.7,473.6,249.1,474,248.9z"/>
		<path class="st2" d="M474,254.4c0.4-0.3,0.8,0,0.8,0.5c0,0.5-0.4,1.1-0.8,1.4c-0.4,0.3-0.8,0-0.8-0.5
			C473.2,255.3,473.6,254.6,474,254.4z"/>
		<path class="st2" d="M483.5,224c0.4-0.3,0.8,0,0.8,0.5c0,0.5-0.4,1.1-0.8,1.4c-0.4,0.3-0.8,0-0.8-0.5
			C482.7,224.8,483.1,224.2,483.5,224z"/>
		<path class="st2" d="M483.5,229.5c0.4-0.3,0.8,0,0.8,0.5c0,0.5-0.4,1.1-0.8,1.4c-0.4,0.3-0.8,0-0.8-0.5S483.1,229.8,483.5,229.5z"
			/>
		<path class="st2" d="M483.5,235c0.4-0.3,0.8,0,0.8,0.5s-0.4,1.1-0.8,1.4c-0.4,0.3-0.8,0-0.8-0.5S483.1,235.3,483.5,235z"/>
		<path class="st2" d="M483.5,240.6c0.4-0.3,0.8,0,0.8,0.5s-0.4,1.1-0.8,1.4c-0.4,0.3-0.8,0-0.8-0.5
			C482.7,241.4,483.1,240.8,483.5,240.6z"/>
		<path class="st2" d="M483.5,246.1c0.4-0.3,0.8,0,0.8,0.5c0,0.5-0.4,1.1-0.8,1.4c-0.4,0.3-0.8,0-0.8-0.5
			C482.7,247,483.1,246.3,483.5,246.1z"/>
		<path class="st2" d="M483.5,251.6c0.4-0.3,0.8,0,0.8,0.5c0,0.5-0.4,1.1-0.8,1.4c-0.4,0.3-0.8,0-0.8-0.5
			C482.7,252.5,483.1,251.9,483.5,251.6z"/>
		<path class="st2" d="M483.5,226.7c0.4-0.3,0.8,0,0.8,0.5c0,0.5-0.4,1.1-0.8,1.4c-0.4,0.3-0.8,0-0.8-0.5
			C482.7,227.6,483.1,227,483.5,226.7z"/>
		<path class="st2" d="M483.5,232.3c0.4-0.3,0.8,0,0.8,0.5c0,0.5-0.4,1.1-0.8,1.4c-0.4,0.3-0.8,0-0.8-0.5
			C482.7,233.1,483.1,232.5,483.5,232.3z"/>
		<path class="st2" d="M483.5,237.8c0.4-0.3,0.8,0,0.8,0.5c0,0.5-0.4,1.1-0.8,1.4c-0.4,0.3-0.8,0-0.8-0.5
			C482.7,238.7,483.1,238,483.5,237.8z"/>
		<path class="st2" d="M483.5,243.3c0.4-0.3,0.8,0,0.8,0.5s-0.4,1.1-0.8,1.4c-0.4,0.3-0.8,0-0.8-0.5
			C482.7,244.2,483.1,243.6,483.5,243.3z"/>
		<path class="st2" d="M483.5,248.9c0.4-0.3,0.8,0,0.8,0.5c0,0.5-0.4,1.1-0.8,1.4c-0.4,0.3-0.8,0-0.8-0.5
			C482.7,249.7,483.1,249.1,483.5,248.9z"/>
		<path class="st2" d="M493,218.4c0.4-0.3,0.8,0,0.8,0.5c0,0.5-0.4,1.1-0.8,1.4c-0.4,0.3-0.8,0-0.8-0.5
			C492.2,219.3,492.6,218.7,493,218.4z"/>
		<path class="st2" d="M493,224c0.4-0.3,0.8,0,0.8,0.5c0,0.5-0.4,1.1-0.8,1.4c-0.4,0.3-0.8,0-0.8-0.5
			C492.2,224.8,492.6,224.2,493,224z"/>
		<path class="st2" d="M493,229.5c0.4-0.3,0.8,0,0.8,0.5c0,0.5-0.4,1.1-0.8,1.4c-0.4,0.3-0.8,0-0.8-0.5S492.6,229.8,493,229.5z"/>
		<path class="st2" d="M493,235c0.4-0.3,0.8,0,0.8,0.5s-0.4,1.1-0.8,1.4c-0.4,0.3-0.8,0-0.8-0.5S492.6,235.3,493,235z"/>
		<path class="st2" d="M493,240.6c0.4-0.3,0.8,0,0.8,0.5s-0.4,1.1-0.8,1.4c-0.4,0.3-0.8,0-0.8-0.5
			C492.2,241.4,492.6,240.8,493,240.6z"/>
		<path class="st2" d="M493,246.1c0.4-0.3,0.8,0,0.8,0.5c0,0.5-0.4,1.1-0.8,1.4c-0.4,0.3-0.8,0-0.8-0.5
			C492.2,247,492.6,246.3,493,246.1z"/>
		<path class="st2" d="M493,221.2c0.4-0.3,0.8,0,0.8,0.5c0,0.5-0.4,1.1-0.8,1.4c-0.4,0.3-0.8,0-0.8-0.5
			C492.2,222.1,492.6,221.5,493,221.2z"/>
		<path class="st2" d="M493,226.7c0.4-0.3,0.8,0,0.8,0.5c0,0.5-0.4,1.1-0.8,1.4c-0.4,0.3-0.8,0-0.8-0.5
			C492.2,227.6,492.6,227,493,226.7z"/>
		<path class="st2" d="M493,232.3c0.4-0.3,0.8,0,0.8,0.5c0,0.5-0.4,1.1-0.8,1.4c-0.4,0.3-0.8,0-0.8-0.5
			C492.2,233.1,492.6,232.5,493,232.3z"/>
		<path class="st2" d="M493,237.8c0.4-0.3,0.8,0,0.8,0.5c0,0.5-0.4,1.1-0.8,1.4c-0.4,0.3-0.8,0-0.8-0.5
			C492.2,238.7,492.6,238,493,237.8z"/>
		<path class="st2" d="M493,243.3c0.4-0.3,0.8,0,0.8,0.5s-0.4,1.1-0.8,1.4c-0.4,0.3-0.8,0-0.8-0.5
			C492.2,244.2,492.6,243.6,493,243.3z"/>
		<path class="st2" d="M469.3,232.3c0.4-0.3,0.8,0,0.8,0.5c0,0.5-0.4,1.1-0.8,1.4c-0.4,0.3-0.8,0-0.8-0.5
			C468.5,233.1,468.9,232.5,469.3,232.3z"/>
		<path class="st2" d="M469.3,237.8c0.4-0.3,0.8,0,0.8,0.5c0,0.5-0.4,1.1-0.8,1.4c-0.4,0.3-0.8,0-0.8-0.5
			C468.5,238.7,468.9,238,469.3,237.8z"/>
		<path class="st2" d="M469.3,243.3c0.4-0.3,0.8,0,0.8,0.5s-0.4,1.1-0.8,1.4c-0.4,0.3-0.8,0-0.8-0.5
			C468.5,244.2,468.9,243.6,469.3,243.3z"/>
		<path class="st2" d="M469.3,248.9c0.4-0.3,0.8,0,0.8,0.5c0,0.5-0.4,1.1-0.8,1.4c-0.4,0.3-0.8,0-0.8-0.5
			C468.5,249.7,468.9,249.1,469.3,248.9z"/>
		<path class="st2" d="M469.3,254.4c0.4-0.3,0.8,0,0.8,0.5c0,0.5-0.4,1.1-0.8,1.4c-0.4,0.3-0.8,0-0.8-0.5
			C468.5,255.3,468.9,254.6,469.3,254.4z"/>
		<path class="st2" d="M469.3,259.9c0.4-0.3,0.8,0,0.8,0.5s-0.4,1.1-0.8,1.4c-0.4,0.3-0.8,0-0.8-0.5
			C468.5,260.8,468.9,260.2,469.3,259.9z"/>
		<path class="st2" d="M469.3,235c0.4-0.3,0.8,0,0.8,0.5s-0.4,1.1-0.8,1.4c-0.4,0.3-0.8,0-0.8-0.5S468.9,235.3,469.3,235z"/>
		<path class="st2" d="M469.3,240.6c0.4-0.3,0.8,0,0.8,0.5s-0.4,1.1-0.8,1.4c-0.4,0.3-0.8,0-0.8-0.5
			C468.5,241.4,468.9,240.8,469.3,240.6z"/>
		<path class="st2" d="M469.3,246.1c0.4-0.3,0.8,0,0.8,0.5c0,0.5-0.4,1.1-0.8,1.4c-0.4,0.3-0.8,0-0.8-0.5
			C468.5,247,468.9,246.3,469.3,246.1z"/>
		<path class="st2" d="M469.3,251.6c0.4-0.3,0.8,0,0.8,0.5c0,0.5-0.4,1.1-0.8,1.4c-0.4,0.3-0.8,0-0.8-0.5
			C468.5,252.5,468.9,251.9,469.3,251.6z"/>
		<path class="st2" d="M469.3,257.2c0.4-0.3,0.8,0,0.8,0.5c0,0.5-0.4,1.1-0.8,1.4c-0.4,0.3-0.8,0-0.8-0.5S468.9,257.4,469.3,257.2z"
			/>
		<path class="st2" d="M478.8,226.7c0.4-0.3,0.8,0,0.8,0.5c0,0.5-0.4,1.1-0.8,1.4c-0.4,0.3-0.8,0-0.8-0.5
			C478,227.6,478.3,227,478.8,226.7z"/>
		<path class="st2" d="M478.8,232.3c0.4-0.3,0.8,0,0.8,0.5c0,0.5-0.4,1.1-0.8,1.4c-0.4,0.3-0.8,0-0.8-0.5
			C478,233.1,478.3,232.5,478.8,232.3z"/>
		<path class="st2" d="M478.8,237.8c0.4-0.3,0.8,0,0.8,0.5c0,0.5-0.4,1.1-0.8,1.4c-0.4,0.3-0.8,0-0.8-0.5
			C478,238.7,478.3,238,478.8,237.8z"/>
		<path class="st2" d="M478.8,243.3c0.4-0.3,0.8,0,0.8,0.5s-0.4,1.1-0.8,1.4c-0.4,0.3-0.8,0-0.8-0.5
			C478,244.2,478.3,243.6,478.8,243.3z"/>
		<path class="st2" d="M478.8,248.9c0.4-0.3,0.8,0,0.8,0.5c0,0.5-0.4,1.1-0.8,1.4c-0.4,0.3-0.8,0-0.8-0.5
			C478,249.7,478.3,249.1,478.8,248.9z"/>
		<path class="st2" d="M478.8,254.4c0.4-0.3,0.8,0,0.8,0.5c0,0.5-0.4,1.1-0.8,1.4c-0.4,0.3-0.8,0-0.8-0.5
			C478,255.3,478.3,254.6,478.8,254.4z"/>
		<path class="st2" d="M478.8,229.5c0.4-0.3,0.8,0,0.8,0.5c0,0.5-0.4,1.1-0.8,1.4c-0.4,0.3-0.8,0-0.8-0.5S478.3,229.8,478.8,229.5z"
			/>
		<path class="st2" d="M478.8,235c0.4-0.3,0.8,0,0.8,0.5s-0.4,1.1-0.8,1.4c-0.4,0.3-0.8,0-0.8-0.5S478.3,235.3,478.8,235z"/>
		<path class="st2" d="M478.8,240.6c0.4-0.3,0.8,0,0.8,0.5s-0.4,1.1-0.8,1.4c-0.4,0.3-0.8,0-0.8-0.5
			C478,241.4,478.3,240.8,478.8,240.6z"/>
		<path class="st2" d="M478.8,246.1c0.4-0.3,0.8,0,0.8,0.5c0,0.5-0.4,1.1-0.8,1.4c-0.4,0.3-0.8,0-0.8-0.5
			C478,247,478.3,246.3,478.8,246.1z"/>
		<path class="st2" d="M478.8,251.6c0.4-0.3,0.8,0,0.8,0.5c0,0.5-0.4,1.1-0.8,1.4c-0.4,0.3-0.8,0-0.8-0.5
			C478,252.5,478.3,251.9,478.8,251.6z"/>
		<path class="st2" d="M488.3,221.2c0.4-0.3,0.8,0,0.8,0.5c0,0.5-0.4,1.1-0.8,1.4c-0.4,0.3-0.8,0-0.8-0.5
			C487.5,222.1,487.8,221.5,488.3,221.2z"/>
		<path class="st2" d="M488.3,226.7c0.4-0.3,0.8,0,0.8,0.5c0,0.5-0.4,1.1-0.8,1.4c-0.4,0.3-0.8,0-0.8-0.5
			C487.5,227.6,487.8,227,488.3,226.7z"/>
		<path class="st2" d="M488.3,232.3c0.4-0.3,0.8,0,0.8,0.5c0,0.5-0.4,1.1-0.8,1.4c-0.4,0.3-0.8,0-0.8-0.5
			C487.5,233.1,487.8,232.5,488.3,232.3z"/>
		<path class="st2" d="M488.3,237.8c0.4-0.3,0.8,0,0.8,0.5c0,0.5-0.4,1.1-0.8,1.4c-0.4,0.3-0.8,0-0.8-0.5
			C487.5,238.7,487.8,238,488.3,237.8z"/>
		<path class="st2" d="M488.3,243.3c0.4-0.3,0.8,0,0.8,0.5s-0.4,1.1-0.8,1.4c-0.4,0.3-0.8,0-0.8-0.5
			C487.5,244.2,487.8,243.6,488.3,243.3z"/>
		<path class="st2" d="M488.3,248.9c0.4-0.3,0.8,0,0.8,0.5c0,0.5-0.4,1.1-0.8,1.4c-0.4,0.3-0.8,0-0.8-0.5
			C487.5,249.7,487.8,249.1,488.3,248.9z"/>
		<path class="st2" d="M488.3,224c0.4-0.3,0.8,0,0.8,0.5c0,0.5-0.4,1.1-0.8,1.4c-0.4,0.3-0.8,0-0.8-0.5
			C487.5,224.8,487.8,224.2,488.3,224z"/>
		<path class="st2" d="M488.3,229.5c0.4-0.3,0.8,0,0.8,0.5c0,0.5-0.4,1.1-0.8,1.4c-0.4,0.3-0.8,0-0.8-0.5S487.8,229.8,488.3,229.5z"
			/>
		<path class="st2" d="M488.3,235c0.4-0.3,0.8,0,0.8,0.5s-0.4,1.1-0.8,1.4c-0.4,0.3-0.8,0-0.8-0.5S487.8,235.3,488.3,235z"/>
		<path class="st2" d="M488.3,240.6c0.4-0.3,0.8,0,0.8,0.5s-0.4,1.1-0.8,1.4c-0.4,0.3-0.8,0-0.8-0.5
			C487.5,241.4,487.8,240.8,488.3,240.6z"/>
		<path class="st2" d="M488.3,246.1c0.4-0.3,0.8,0,0.8,0.5c0,0.5-0.4,1.1-0.8,1.4c-0.4,0.3-0.8,0-0.8-0.5
			C487.5,247,487.8,246.3,488.3,246.1z"/>
	</g>
	<polygon class="st1" points="255.7,52.5 493,190.8 331.6,284.8 94.3,146.5 	"/>
	<polygon class="st4" points="255.7,54.4 489.9,190.8 331.6,283 97.5,146.5 	"/>
	<polygon class="st0" points="257.3,62.6 288.9,81.1 143.4,165.9 111.7,147.5 	"/>
	<polygon class="st6" points="502.5,185.3 505.7,187.1 328.5,290.3 325.3,288.5 	"/>
	<polygon class="st4" points="328.5,290.3 328.5,347.5 325.3,345.6 325.3,288.5 	"/>
	<polygon class="st3" points="170.3,196.3 170.3,200 99.1,158.5 99.1,154.8 	"/>
	<polygon class="st3" points="170.3,201.8 170.3,205.5 99.1,164 99.1,160.4 	"/>
	<polygon class="st3" points="170.3,207.4 170.3,211.1 99.1,169.6 99.1,165.9 	"/>
	<polygon class="st3" points="170.3,212.9 170.3,216.6 99.1,175.1 99.1,171.4 	"/>
	<polygon class="st3" points="170.3,218.4 170.3,222.1 99.1,180.6 99.1,177 	"/>
	<polygon class="st3" points="170.3,224 170.3,227.7 99.1,186.2 99.1,182.5 	"/>
	<polygon class="st3" points="170.3,229.5 170.3,233.2 99.1,191.7 99.1,188 	"/>
	<polygon class="st3" points="170.3,235 170.3,238.7 99.1,197.2 99.1,193.5 	"/>
	<polygon class="st7" points="143.4,132.7 118.1,147.5 143.4,162.2 168.7,147.5 	"/>
	<path class="st0" d="M131.8,140.7c6.4-3.7,16.8-3.7,23.2,0c6.4,3.7,6.4,9.8,0,13.5c-6.4,3.7-16.8,3.7-23.2,0
		C125.4,150.5,125.4,144.4,131.8,140.7"/>
	<g>
		<defs>
			<path id="SVGID_1_" d="M131.8,140.7c-6.4,3.7-6.4,9.8,0,13.5c6.4,3.7,16.8,3.7,23.2,0c6.4-3.7,6.4-9.8,0-13.5
				c-3.2-1.9-7.4-2.8-11.6-2.8C139.2,137.9,135,138.8,131.8,140.7z"/>
		</defs>
		<clipPath id="SVGID_00000103955442574150456130000003276899980675692217_">
			<use xlink:href="#SVGID_1_"  style="overflow:visible;"/>
		</clipPath>
		
			<path style="clip-path:url(#SVGID_00000103955442574150456130000003276899980675692217_);fill-rule:evenodd;clip-rule:evenodd;fill:#273442;" d="
			M131.8,142.7c6.4-3.7,16.8-3.7,23.2,0c6.4,3.7,6.4,9.8,0,13.5c-6.4,3.7-16.8,3.7-23.2,0C125.4,152.5,125.4,146.5,131.8,142.7"/>
	</g>
	<polygon class="st9" points="143.6,148.1 143.6,148.2 143.7,148.3 143.4,148 	"/>
	<path class="st4" d="M143.4,147.5c-6-2-8.9-5.2-4.7-7.8c1.1-0.6,3.3-1.4,5.6-0.3C137.9,141.6,140.7,144.8,143.4,147.5"/>
	<path class="st4" d="M143.4,147.5c3.5-3.5,8.9-5.2,13.4-2.8c1,0.6,2.4,1.9,0.6,3.2C153.5,144.2,147.8,145.9,143.4,147.5"/>
	<path class="st4" d="M143.4,147.5c-1.6-3.9,0.3-7.3,6.4-7.4c1.5,0,4,0.4,4.3,2.1C146.9,141.1,144.7,144.5,143.4,147.5"/>
	<path class="st4" d="M143.4,147.5c6.7-1,12.6,0.1,12.7,3.7c-0.1,0.8-0.7,2.3-3.6,2.5C154.4,149.5,148.4,148.3,143.4,147.5"/>
	<path class="st4" d="M143.4,147.5c-6.7,1-12.6-0.1-12.7-3.7c0.1-0.8,0.7-2.3,3.6-2.5C132.4,145.4,138.3,146.7,143.4,147.5"/>
	<path class="st10" d="M140.7,147.3c1.5-0.8,3.8-0.8,5.3,0c1.5,0.8,1.5,2.2,0,3.1c-1.5,0.8-3.8,0.8-5.3,0
		C139.3,149.5,139.3,148.1,140.7,147.3"/>
	<path class="st0" d="M142,158.9c0.8-0.5,2-0.5,2.8,0c0.8,0.5,0.8,1.2,0,1.6c-0.8,0.5-2,0.5-2.8,0
		C141.2,160.1,141.2,159.4,142,158.9"/>
	<g>
		<defs>
			<path id="SVGID_00000106138495163051727230000014994971619700216455_" d="M142,158.9c-0.8,0.5-0.8,1.2,0,1.6c0.8,0.5,2,0.5,2.8,0
				c0.8-0.5,0.8-1.2,0-1.6c-0.4-0.2-0.9-0.3-1.4-0.3C142.9,158.6,142.4,158.7,142,158.9z"/>
		</defs>
		<clipPath id="SVGID_00000176734504761896814260000008993613370705620124_">
			<use xlink:href="#SVGID_00000106138495163051727230000014994971619700216455_"  style="overflow:visible;"/>
		</clipPath>
		
			<path style="clip-path:url(#SVGID_00000176734504761896814260000008993613370705620124_);fill-rule:evenodd;clip-rule:evenodd;fill:#273442;" d="
			M142,159.7c0.8-0.5,2-0.5,2.8,0c0.8,0.5,0.8,1.2,0,1.6c-0.8,0.5-2,0.5-2.8,0C141.2,160.9,141.2,160.2,142,159.7"/>
	</g>
	<path class="st0" d="M120.9,146.6c0.8-0.5,2-0.5,2.8,0c0.8,0.5,0.8,1.2,0,1.6c-0.8,0.5-2,0.5-2.8,0
		C120.1,147.8,120.1,147.1,120.9,146.6"/>
	<g>
		<defs>
			<path id="SVGID_00000047052327991295348730000006452904004128098973_" d="M120.9,146.6c-0.8,0.5-0.8,1.2,0,1.6
				c0.8,0.5,2,0.5,2.8,0c0.8-0.5,0.8-1.2,0-1.6c-0.4-0.2-0.9-0.3-1.4-0.3C121.8,146.3,121.3,146.4,120.9,146.6z"/>
		</defs>
		<clipPath id="SVGID_00000111894514830741695200000006465980571806583947_">
			<use xlink:href="#SVGID_00000047052327991295348730000006452904004128098973_"  style="overflow:visible;"/>
		</clipPath>
		
			<path style="clip-path:url(#SVGID_00000111894514830741695200000006465980571806583947_);fill-rule:evenodd;clip-rule:evenodd;fill:#273442;" d="
			M120.9,147.5c0.8-0.5,2-0.5,2.8,0c0.8,0.5,0.8,1.2,0,1.6c-0.8,0.5-2,0.5-2.8,0C120.1,148.6,120.1,147.9,120.9,147.5"/>
	</g>
	<path class="st0" d="M163.1,146.6c0.8-0.5,2-0.5,2.8,0c0.8,0.5,0.8,1.2,0,1.6c-0.8,0.5-2,0.5-2.8,0
		C162.3,147.8,162.3,147.1,163.1,146.6"/>
	<g>
		<defs>
			<path id="SVGID_00000036217186979833805830000002082838434370752405_" d="M163.1,146.6c-0.8,0.5-0.8,1.2,0,1.6
				c0.8,0.5,2,0.5,2.8,0c0.8-0.5,0.8-1.2,0-1.6c-0.4-0.2-0.9-0.3-1.4-0.3C164,146.3,163.4,146.4,163.1,146.6z"/>
		</defs>
		<clipPath id="SVGID_00000050636413923068886130000012958878492410962621_">
			<use xlink:href="#SVGID_00000036217186979833805830000002082838434370752405_"  style="overflow:visible;"/>
		</clipPath>
		
			<path style="clip-path:url(#SVGID_00000050636413923068886130000012958878492410962621_);fill-rule:evenodd;clip-rule:evenodd;fill:#273442;" d="
			M163.1,147.5c0.8-0.5,2-0.5,2.8,0c0.8,0.5,0.8,1.2,0,1.6c-0.8,0.5-2,0.5-2.8,0C162.3,148.6,162.3,147.9,163.1,147.5"/>
	</g>
	<path class="st0" d="M142,134.3c0.8-0.5,2-0.5,2.8,0c0.8,0.5,0.8,1.2,0,1.6c-0.8,0.5-2,0.5-2.8,0
		C141.2,135.5,141.2,134.8,142,134.3"/>
	<g>
		<defs>
			<path id="SVGID_00000047750254584549001610000006336485668192577959_" d="M142,134.3c-0.8,0.5-0.8,1.2,0,1.6c0.8,0.5,2,0.5,2.8,0
				c0.8-0.5,0.8-1.2,0-1.6c-0.4-0.2-0.9-0.3-1.4-0.3C142.9,134,142.4,134.1,142,134.3z"/>
		</defs>
		<clipPath id="SVGID_00000123399664102426534210000008183450950087594115_">
			<use xlink:href="#SVGID_00000047750254584549001610000006336485668192577959_"  style="overflow:visible;"/>
		</clipPath>
		
			<path style="clip-path:url(#SVGID_00000123399664102426534210000008183450950087594115_);fill-rule:evenodd;clip-rule:evenodd;fill:#273442;" d="
			M142,135.2c0.8-0.5,2-0.5,2.8,0c0.8,0.5,0.8,1.2,0,1.6c-0.8,0.5-2,0.5-2.8,0C141.2,136.4,141.2,135.6,142,135.2"/>
	</g>
	<path class="st4" d="M146.9,149c3.4,1.9,4.4,4.3,1.2,6.3c-1.1,0.6-3.3,1.4-5.6,0.3c4.4-1.6,4.4-3.6,3.1-5.6
		c0.1-0.1,0.3-0.1,0.4-0.2C146.4,149.6,146.7,149.3,146.9,149"/>
	<path class="st4" d="M141.7,150.2c0.7,0.2,1.5,0.3,2.2,0.2c-0.2,2.5-2.4,4.4-7,4.4c-1.5,0-4-0.4-4.3-2.1
		C137.6,153.5,140.2,152.1,141.7,150.2"/>
	<rect x="139.6" y="147.5" class="st10" width="7.5" height="1.4"/>
	<path class="st4" d="M140.5,149.7c-3.2,1.9-7.1,2.4-10.6,0.5c-1-0.6-2.4-1.9-0.6-3.2c2.9,2.7,6.7,2.6,10.4,1.6
		C139.8,149,140,149.4,140.5,149.7"/>
	<path class="st6" d="M140.7,145.9c1.5-0.8,3.8-0.8,5.3,0c1.5,0.8,1.5,2.2,0,3.1c-1.5,0.8-3.8,0.8-5.3,0
		C139.3,148.1,139.3,146.8,140.7,145.9"/>
	<polygon class="st7" points="171.8,116.1 146.5,130.9 171.8,145.6 197.2,130.9 	"/>
	<path class="st0" d="M160.2,124.1c6.4-3.7,16.8-3.7,23.2,0s6.4,9.8,0,13.5c-6.4,3.7-16.8,3.7-23.2,0
		C153.8,133.9,153.8,127.8,160.2,124.1"/>
	<g>
		<defs>
			<path id="SVGID_00000119113794071173848260000016257324952970089396_" d="M160.2,124.1c-6.4,3.7-6.4,9.8,0,13.5
				c6.4,3.7,16.8,3.7,23.2,0c6.4-3.7,6.4-9.8,0-13.5c-3.2-1.9-7.4-2.8-11.6-2.8C167.6,121.3,163.4,122.2,160.2,124.1z"/>
		</defs>
		<clipPath id="SVGID_00000172405656451277995280000010160787959987239074_">
			<use xlink:href="#SVGID_00000119113794071173848260000016257324952970089396_"  style="overflow:visible;"/>
		</clipPath>
		
			<path style="clip-path:url(#SVGID_00000172405656451277995280000010160787959987239074_);fill-rule:evenodd;clip-rule:evenodd;fill:#273442;" d="
			M160.2,126.2c6.4-3.7,16.8-3.7,23.2,0c6.4,3.7,6.4,9.8,0,13.5c-6.4,3.7-16.8,3.7-23.2,0C153.8,135.9,153.8,129.9,160.2,126.2"/>
	</g>
	<polygon class="st9" points="172.1,131.5 172.1,131.6 172.1,131.7 171.8,131.4 	"/>
	<path class="st4" d="M171.8,130.9c-6-2-8.9-5.2-4.7-7.8c1.1-0.6,3.3-1.4,5.6-0.3C166.3,125,169.2,128.3,171.8,130.9"/>
	<path class="st4" d="M171.8,130.9c3.5-3.5,8.9-5.2,13.4-2.8c1,0.6,2.4,1.9,0.6,3.2C182,127.7,176.3,129.3,171.8,130.9"/>
	<path class="st4" d="M171.8,130.9c-1.6-3.9,0.3-7.3,6.4-7.4c1.5,0,4,0.4,4.3,2.1C175.3,124.5,173.2,127.9,171.8,130.9"/>
	<path class="st4" d="M171.8,130.9c6.7-1,12.6,0.1,12.7,3.7c-0.1,0.8-0.7,2.3-3.6,2.5C182.8,132.9,176.9,131.7,171.8,130.9"/>
	<path class="st4" d="M171.8,130.9c-6.7,1-12.6-0.1-12.7-3.7c0.1-0.8,0.7-2.3,3.6-2.5C160.9,128.8,166.8,130.1,171.8,130.9"/>
	<path class="st10" d="M169.2,130.7c1.5-0.8,3.8-0.8,5.3,0c1.5,0.8,1.5,2.2,0,3.1c-1.5,0.8-3.8,0.8-5.3,0
		C167.8,132.9,167.8,131.6,169.2,130.7"/>
	<path class="st0" d="M170.4,142.3c0.8-0.5,2-0.5,2.8,0c0.8,0.5,0.8,1.2,0,1.6c-0.8,0.5-2,0.5-2.8,0
		C169.7,143.5,169.7,142.8,170.4,142.3"/>
	<g>
		<defs>
			<path id="SVGID_00000142144477486579831300000003194976222630545067_" d="M170.4,142.3c-0.8,0.5-0.8,1.2,0,1.6
				c0.8,0.5,2,0.5,2.8,0c0.8-0.5,0.8-1.2,0-1.6c-0.4-0.2-0.9-0.3-1.4-0.3C171.3,142,170.8,142.1,170.4,142.3z"/>
		</defs>
		<clipPath id="SVGID_00000092442592164046064950000010566804422312384180_">
			<use xlink:href="#SVGID_00000142144477486579831300000003194976222630545067_"  style="overflow:visible;"/>
		</clipPath>
		
			<path style="clip-path:url(#SVGID_00000092442592164046064950000010566804422312384180_);fill-rule:evenodd;clip-rule:evenodd;fill:#273442;" d="
			M170.4,143.2c0.8-0.5,2-0.5,2.8,0c0.8,0.5,0.8,1.2,0,1.6c-0.8,0.5-2,0.5-2.8,0C169.7,144.3,169.7,143.6,170.4,143.2"/>
	</g>
	<path class="st0" d="M149.3,130c0.8-0.5,2-0.5,2.8,0c0.8,0.5,0.8,1.2,0,1.6c-0.8,0.5-2,0.5-2.8,0
		C148.6,131.2,148.6,130.5,149.3,130"/>
	<g>
		<defs>
			<path id="SVGID_00000156584375362726426360000009276691455231104664_" d="M149.3,130c-0.8,0.5-0.8,1.2,0,1.6c0.8,0.5,2,0.5,2.8,0
				c0.8-0.5,0.8-1.2,0-1.6c-0.4-0.2-0.9-0.3-1.4-0.3C150.2,129.7,149.7,129.8,149.3,130z"/>
		</defs>
		<clipPath id="SVGID_00000054944689914349038290000004802297629738429630_">
			<use xlink:href="#SVGID_00000156584375362726426360000009276691455231104664_"  style="overflow:visible;"/>
		</clipPath>
		
			<path style="clip-path:url(#SVGID_00000054944689914349038290000004802297629738429630_);fill-rule:evenodd;clip-rule:evenodd;fill:#273442;" d="
			M149.3,130.9c0.8-0.5,2-0.5,2.8,0c0.8,0.5,0.8,1.2,0,1.6c-0.8,0.5-2,0.5-2.8,0C148.6,132,148.6,131.3,149.3,130.9"/>
	</g>
	<path class="st0" d="M191.5,130c0.8-0.5,2-0.5,2.8,0c0.8,0.5,0.8,1.2,0,1.6c-0.8,0.5-2,0.5-2.8,0
		C190.8,131.2,190.8,130.5,191.5,130"/>
	<g>
		<defs>
			<path id="SVGID_00000093866396733978441880000000725796849566427547_" d="M191.5,130c-0.8,0.5-0.8,1.2,0,1.6c0.8,0.5,2,0.5,2.8,0
				c0.8-0.5,0.8-1.2,0-1.6c-0.4-0.2-0.9-0.3-1.4-0.3C192.4,129.7,191.9,129.8,191.5,130z"/>
		</defs>
		<clipPath id="SVGID_00000036236591430993645410000011415026425507128499_">
			<use xlink:href="#SVGID_00000093866396733978441880000000725796849566427547_"  style="overflow:visible;"/>
		</clipPath>
		
			<path style="clip-path:url(#SVGID_00000036236591430993645410000011415026425507128499_);fill-rule:evenodd;clip-rule:evenodd;fill:#273442;" d="
			M191.5,130.9c0.8-0.5,2-0.5,2.8,0c0.8,0.5,0.8,1.2,0,1.6c-0.8,0.5-2,0.5-2.8,0C190.8,132,190.8,131.3,191.5,130.9"/>
	</g>
	<path class="st0" d="M170.4,117.8c0.8-0.5,2-0.5,2.8,0c0.8,0.5,0.8,1.2,0,1.6c-0.8,0.5-2,0.5-2.8,0
		C169.7,118.9,169.7,118.2,170.4,117.8"/>
	<g>
		<defs>
			<path id="SVGID_00000062875546651259544940000006698369709627671221_" d="M170.4,117.8c-0.8,0.5-0.8,1.2,0,1.6
				c0.8,0.5,2,0.5,2.8,0c0.8-0.5,0.8-1.2,0-1.6c-0.4-0.2-0.9-0.3-1.4-0.3C171.3,117.4,170.8,117.5,170.4,117.8z"/>
		</defs>
		<clipPath id="SVGID_00000118397958153577614350000009955080671650121640_">
			<use xlink:href="#SVGID_00000062875546651259544940000006698369709627671221_"  style="overflow:visible;"/>
		</clipPath>
		
			<path style="clip-path:url(#SVGID_00000118397958153577614350000009955080671650121640_);fill-rule:evenodd;clip-rule:evenodd;fill:#273442;" d="
			M170.4,118.6c0.8-0.5,2-0.5,2.8,0c0.8,0.5,0.8,1.2,0,1.6c-0.8,0.5-2,0.5-2.8,0C169.7,119.8,169.7,119,170.4,118.6"/>
	</g>
	<path class="st4" d="M175.4,132.4c3.4,1.9,4.4,4.3,1.2,6.3c-1.1,0.6-3.3,1.4-5.6,0.3c4.4-1.6,4.4-3.6,3.1-5.6
		c0.1-0.1,0.3-0.1,0.4-0.2C174.9,133,175.2,132.7,175.4,132.4"/>
	<path class="st4" d="M170.2,133.6c0.7,0.2,1.5,0.3,2.2,0.2c-0.2,2.5-2.4,4.4-7,4.4c-1.5,0-4-0.4-4.3-2.1
		C166.1,136.9,168.6,135.5,170.2,133.6"/>
	<rect x="168.1" y="130.9" class="st10" width="7.5" height="1.4"/>
	<path class="st4" d="M169,133.1c-3.2,1.9-7.1,2.4-10.6,0.5c-1-0.6-2.4-1.9-0.6-3.2c2.9,2.7,6.7,2.6,10.4,1.6
		C168.3,132.4,168.5,132.8,169,133.1"/>
	<path class="st6" d="M169.2,129.3c1.5-0.8,3.8-0.8,5.3,0c1.5,0.8,1.5,2.2,0,3.1c-1.5,0.8-3.8,0.8-5.3,0
		C167.8,131.6,167.8,130.2,169.2,129.3"/>
	<polygon class="st7" points="200.3,99.5 175,114.3 200.3,129 225.6,114.3 	"/>
	<path class="st0" d="M188.7,107.5c6.4-3.7,16.8-3.7,23.2,0c6.4,3.7,6.4,9.8,0,13.5c-6.4,3.7-16.8,3.7-23.2,0
		C182.3,117.3,182.3,111.2,188.7,107.5"/>
	<g>
		<defs>
			<path id="SVGID_00000171691869080532378630000014409289278693082297_" d="M188.7,107.5c-6.4,3.7-6.4,9.8,0,13.5
				c6.4,3.7,16.8,3.7,23.2,0c6.4-3.7,6.4-9.8,0-13.5c-3.2-1.9-7.4-2.8-11.6-2.8C196.1,104.7,191.9,105.6,188.7,107.5z"/>
		</defs>
		<clipPath id="SVGID_00000121249205239825321400000006538027104231029942_">
			<use xlink:href="#SVGID_00000171691869080532378630000014409289278693082297_"  style="overflow:visible;"/>
		</clipPath>
		
			<path style="clip-path:url(#SVGID_00000121249205239825321400000006538027104231029942_);fill-rule:evenodd;clip-rule:evenodd;fill:#273442;" d="
			M188.7,109.6c6.4-3.7,16.8-3.7,23.2,0c6.4,3.7,6.4,9.8,0,13.5c-6.4,3.7-16.8,3.7-23.2,0C182.3,119.3,182.3,113.3,188.7,109.6"/>
	</g>
	<polygon class="st9" points="200.6,114.9 200.6,115 200.6,115.1 200.3,114.8 	"/>
	<path class="st4" d="M200.3,114.3c-6-2-8.9-5.2-4.7-7.8c1.1-0.6,3.3-1.4,5.6-0.3C194.8,108.4,197.6,111.7,200.3,114.3"/>
	<path class="st4" d="M200.3,114.3c3.5-3.5,8.9-5.2,13.4-2.8c1,0.6,2.4,1.9,0.6,3.2C210.4,111.1,204.8,112.7,200.3,114.3"/>
	<path class="st4" d="M200.3,114.3c-1.6-3.9,0.3-7.3,6.4-7.4c1.5,0,4,0.4,4.3,2.1C203.8,107.9,201.7,111.3,200.3,114.3"/>
	<path class="st4" d="M200.3,114.3c6.7-1,12.6,0.1,12.7,3.7c-0.1,0.8-0.7,2.3-3.6,2.5C211.3,116.3,205.4,115.1,200.3,114.3"/>
	<path class="st4" d="M200.3,114.3c-6.7,1-12.6-0.1-12.7-3.7c0.1-0.8,0.7-2.3,3.6-2.5C189.3,112.2,195.3,113.5,200.3,114.3"/>
	<path class="st10" d="M197.7,114.1c1.5-0.8,3.8-0.8,5.3,0c1.5,0.8,1.5,2.2,0,3.1c-1.5,0.8-3.8,0.8-5.3,0
		C196.2,116.3,196.2,115,197.7,114.1"/>
	<path class="st0" d="M198.9,125.7c0.8-0.5,2-0.5,2.8,0c0.8,0.5,0.8,1.2,0,1.6c-0.8,0.5-2,0.5-2.8,0
		C198.1,126.9,198.1,126.2,198.9,125.7"/>
	<g>
		<defs>
			<path id="SVGID_00000018236229338220227110000014017904467885441962_" d="M198.9,125.7c-0.8,0.5-0.8,1.2,0,1.6
				c0.8,0.5,2,0.5,2.8,0c0.8-0.5,0.8-1.2,0-1.6c-0.4-0.2-0.9-0.3-1.4-0.3C199.8,125.4,199.3,125.5,198.9,125.7z"/>
		</defs>
		<clipPath id="SVGID_00000080913557547906523010000016181940733845531327_">
			<use xlink:href="#SVGID_00000018236229338220227110000014017904467885441962_"  style="overflow:visible;"/>
		</clipPath>
		
			<path style="clip-path:url(#SVGID_00000080913557547906523010000016181940733845531327_);fill-rule:evenodd;clip-rule:evenodd;fill:#273442;" d="
			M198.9,126.6c0.8-0.5,2-0.5,2.8,0c0.8,0.5,0.8,1.2,0,1.6c-0.8,0.5-2,0.5-2.8,0C198.1,127.7,198.1,127,198.9,126.6"/>
	</g>
	<path class="st0" d="M177.8,113.5c0.8-0.5,2-0.5,2.8,0c0.8,0.5,0.8,1.2,0,1.6c-0.8,0.5-2,0.5-2.8,0
		C177,114.6,177,113.9,177.8,113.5"/>
	<g>
		<defs>
			<path id="SVGID_00000081614952427126382460000011757517983350818989_" d="M177.8,113.5c-0.8,0.5-0.8,1.2,0,1.6
				c0.8,0.5,2,0.5,2.8,0c0.8-0.5,0.8-1.2,0-1.6c-0.4-0.2-0.9-0.3-1.4-0.3C178.7,113.1,178.2,113.2,177.8,113.5z"/>
		</defs>
		<clipPath id="SVGID_00000000210993736180994570000010770324578477869247_">
			<use xlink:href="#SVGID_00000081614952427126382460000011757517983350818989_"  style="overflow:visible;"/>
		</clipPath>
		
			<path style="clip-path:url(#SVGID_00000000210993736180994570000010770324578477869247_);fill-rule:evenodd;clip-rule:evenodd;fill:#273442;" d="
			M177.8,114.3c0.8-0.5,2-0.5,2.8,0c0.8,0.5,0.8,1.2,0,1.6c-0.8,0.5-2,0.5-2.8,0C177,115.5,177,114.7,177.8,114.3"/>
	</g>
	<path class="st0" d="M220,113.5c0.8-0.5,2-0.5,2.8,0c0.8,0.5,0.8,1.2,0,1.6c-0.8,0.5-2,0.5-2.8,0
		C219.2,114.6,219.2,113.9,220,113.5"/>
	<g>
		<defs>
			<path id="SVGID_00000168810797708232492360000003015090710641904274_" d="M220,113.5c-0.8,0.5-0.8,1.2,0,1.6c0.8,0.5,2,0.5,2.8,0
				c0.8-0.5,0.8-1.2,0-1.6c-0.4-0.2-0.9-0.3-1.4-0.3C220.9,113.1,220.4,113.2,220,113.5z"/>
		</defs>
		<clipPath id="SVGID_00000017506227675170320240000009104954356090234768_">
			<use xlink:href="#SVGID_00000168810797708232492360000003015090710641904274_"  style="overflow:visible;"/>
		</clipPath>
		
			<path style="clip-path:url(#SVGID_00000017506227675170320240000009104954356090234768_);fill-rule:evenodd;clip-rule:evenodd;fill:#273442;" d="
			M220,114.3c0.8-0.5,2-0.5,2.8,0c0.8,0.5,0.8,1.2,0,1.6c-0.8,0.5-2,0.5-2.8,0C219.2,115.5,219.2,114.7,220,114.3"/>
	</g>
	<path class="st0" d="M198.9,101.2c0.8-0.5,2-0.5,2.8,0c0.8,0.5,0.8,1.2,0,1.6c-0.8,0.5-2,0.5-2.8,0
		C198.1,102.3,198.1,101.6,198.9,101.2"/>
	<g>
		<defs>
			<path id="SVGID_00000066476657293614780270000002171895011174667653_" d="M198.9,101.2c-0.8,0.5-0.8,1.2,0,1.6
				c0.8,0.5,2,0.5,2.8,0c0.8-0.5,0.8-1.2,0-1.6c-0.4-0.2-0.9-0.3-1.4-0.3C199.8,100.8,199.3,100.9,198.9,101.2z"/>
		</defs>
		<clipPath id="SVGID_00000016757701533236285750000001001391889722664116_">
			<use xlink:href="#SVGID_00000066476657293614780270000002171895011174667653_"  style="overflow:visible;"/>
		</clipPath>
		
			<path style="clip-path:url(#SVGID_00000016757701533236285750000001001391889722664116_);fill-rule:evenodd;clip-rule:evenodd;fill:#273442;" d="
			M198.9,102c0.8-0.5,2-0.5,2.8,0c0.8,0.5,0.8,1.2,0,1.6c-0.8,0.5-2,0.5-2.8,0C198.1,103.2,198.1,102.4,198.9,102"/>
	</g>
	<path class="st4" d="M203.9,115.8c3.4,1.9,4.4,4.3,1.2,6.3c-1.1,0.6-3.3,1.4-5.6,0.3c4.4-1.6,4.4-3.6,3.1-5.6
		c0.1-0.1,0.3-0.1,0.4-0.2C203.4,116.4,203.7,116.1,203.9,115.8"/>
	<path class="st4" d="M198.7,117c0.7,0.2,1.5,0.3,2.2,0.2c-0.2,2.5-2.4,4.4-7,4.4c-1.5,0-4-0.4-4.3-2.1
		C194.6,120.3,197.1,118.9,198.7,117"/>
	<rect x="196.6" y="114.3" class="st10" width="7.5" height="1.4"/>
	<path class="st4" d="M197.4,116.5c-3.2,1.9-7.1,2.4-10.6,0.5c-1-0.6-2.4-1.9-0.6-3.2c2.9,2.7,6.7,2.6,10.4,1.6
		C196.7,115.8,197,116.2,197.4,116.5"/>
	<path class="st6" d="M197.7,112.7c1.5-0.8,3.8-0.8,5.3,0c1.5,0.8,1.5,2.2,0,3.1c-1.5,0.8-3.8,0.8-5.3,0
		C196.2,115,196.2,113.6,197.7,112.7"/>
	<polygon class="st7" points="228.8,82.9 203.5,97.7 228.8,112.4 254.1,97.7 	"/>
	<path class="st0" d="M217.2,90.9c6.4-3.7,16.8-3.7,23.2,0c6.4,3.7,6.4,9.8,0,13.5c-6.4,3.7-16.8,3.7-23.2,0
		C210.8,100.7,210.8,94.6,217.2,90.9"/>
	<g>
		<defs>
			<path id="SVGID_00000065784668542237602560000005186619048039413431_" d="M217.2,90.9c-6.4,3.7-6.4,9.8,0,13.5
				c6.4,3.7,16.8,3.7,23.2,0c6.4-3.7,6.4-9.8,0-13.5c-3.2-1.9-7.4-2.8-11.6-2.8C224.6,88.1,220.4,89.1,217.2,90.9z"/>
		</defs>
		<clipPath id="SVGID_00000031893673097901205800000017045463141676682175_">
			<use xlink:href="#SVGID_00000065784668542237602560000005186619048039413431_"  style="overflow:visible;"/>
		</clipPath>
		
			<path style="clip-path:url(#SVGID_00000031893673097901205800000017045463141676682175_);fill-rule:evenodd;clip-rule:evenodd;fill:#273442;" d="
			M217.2,93c6.4-3.7,16.8-3.7,23.2,0c6.4,3.7,6.4,9.8,0,13.5c-6.4,3.7-16.8,3.7-23.2,0C210.8,102.8,210.8,96.7,217.2,93"/>
	</g>
	<polygon class="st9" points="229,98.3 229.1,98.4 229.1,98.5 228.8,98.2 	"/>
	<path class="st4" d="M228.8,97.7c-6-2-8.9-5.2-4.7-7.8c1.1-0.6,3.3-1.4,5.6-0.3C223.3,91.8,226.1,95.1,228.8,97.7"/>
	<path class="st4" d="M228.8,97.7c3.5-3.5,8.9-5.2,13.4-2.8c1,0.6,2.4,1.9,0.6,3.2C238.9,94.5,233.3,96.1,228.8,97.7"/>
	<path class="st4" d="M228.8,97.7c-1.6-3.9,0.3-7.3,6.4-7.4c1.5,0,4,0.4,4.3,2.1C232.3,91.3,230.2,94.7,228.8,97.7"/>
	<path class="st4" d="M228.8,97.7c6.7-1,12.6,0.1,12.7,3.7c-0.1,0.8-0.7,2.3-3.6,2.5C239.8,99.7,233.8,98.5,228.8,97.7"/>
	<path class="st4" d="M228.8,97.7c-6.7,1-12.6-0.1-12.7-3.7c0.1-0.8,0.7-2.3,3.6-2.5C217.8,95.6,223.8,96.9,228.8,97.7"/>
	<path class="st10" d="M226.2,97.5c1.5-0.8,3.8-0.8,5.3,0c1.5,0.8,1.5,2.2,0,3.1c-1.5,0.8-3.8,0.8-5.3,0
		C224.7,99.7,224.7,98.4,226.2,97.5"/>
	<path class="st0" d="M227.4,109.1c0.8-0.5,2-0.5,2.8,0c0.8,0.5,0.8,1.2,0,1.6c-0.8,0.5-2,0.5-2.8,0
		C226.6,110.3,226.6,109.6,227.4,109.1"/>
	<g>
		<defs>
			<path id="SVGID_00000124122173722184835220000006219654559439106181_" d="M227.4,109.1c-0.8,0.5-0.8,1.2,0,1.6
				c0.8,0.5,2,0.5,2.8,0c0.8-0.5,0.8-1.2,0-1.6c-0.4-0.2-0.9-0.3-1.4-0.3C228.3,108.8,227.8,108.9,227.4,109.1z"/>
		</defs>
		<clipPath id="SVGID_00000043443518081334085880000015661137552301375881_">
			<use xlink:href="#SVGID_00000124122173722184835220000006219654559439106181_"  style="overflow:visible;"/>
		</clipPath>
		
			<path style="clip-path:url(#SVGID_00000043443518081334085880000015661137552301375881_);fill-rule:evenodd;clip-rule:evenodd;fill:#273442;" d="
			M227.4,110c0.8-0.5,2-0.5,2.8,0c0.8,0.5,0.8,1.2,0,1.6c-0.8,0.5-2,0.5-2.8,0C226.6,111.2,226.6,110.4,227.4,110"/>
	</g>
	<path class="st0" d="M206.3,96.9c0.8-0.5,2-0.5,2.8,0c0.8,0.5,0.8,1.2,0,1.6c-0.8,0.5-2,0.5-2.8,0C205.5,98,205.5,97.3,206.3,96.9"
		/>
	<g>
		<defs>
			<path id="SVGID_00000096047554931613999030000017244982874890117811_" d="M206.3,96.9c-0.8,0.5-0.8,1.2,0,1.6
				c0.8,0.5,2,0.5,2.8,0c0.8-0.5,0.8-1.2,0-1.6c-0.4-0.2-0.9-0.3-1.4-0.3C207.2,96.5,206.7,96.6,206.3,96.9z"/>
		</defs>
		<clipPath id="SVGID_00000106833887960213230620000016425213992918687377_">
			<use xlink:href="#SVGID_00000096047554931613999030000017244982874890117811_"  style="overflow:visible;"/>
		</clipPath>
		
			<path style="clip-path:url(#SVGID_00000106833887960213230620000016425213992918687377_);fill-rule:evenodd;clip-rule:evenodd;fill:#273442;" d="
			M206.3,97.7c0.8-0.5,2-0.5,2.8,0c0.8,0.5,0.8,1.2,0,1.6c-0.8,0.5-2,0.5-2.8,0C205.5,98.9,205.5,98.1,206.3,97.7"/>
	</g>
	<path class="st0" d="M248.5,96.9c0.8-0.5,2-0.5,2.8,0c0.8,0.5,0.8,1.2,0,1.6c-0.8,0.5-2,0.5-2.8,0C247.7,98,247.7,97.3,248.5,96.9"
		/>
	<g>
		<defs>
			<path id="SVGID_00000178170998339117990610000005337749699897606798_" d="M248.5,96.9c-0.8,0.5-0.8,1.2,0,1.6
				c0.8,0.5,2,0.5,2.8,0c0.8-0.5,0.8-1.2,0-1.6c-0.4-0.2-0.9-0.3-1.4-0.3C249.4,96.5,248.9,96.6,248.5,96.9z"/>
		</defs>
		<clipPath id="SVGID_00000132768351751381182320000014780717195659576711_">
			<use xlink:href="#SVGID_00000178170998339117990610000005337749699897606798_"  style="overflow:visible;"/>
		</clipPath>
		
			<path style="clip-path:url(#SVGID_00000132768351751381182320000014780717195659576711_);fill-rule:evenodd;clip-rule:evenodd;fill:#273442;" d="
			M248.5,97.7c0.8-0.5,2-0.5,2.8,0c0.8,0.5,0.8,1.2,0,1.6c-0.8,0.5-2,0.5-2.8,0C247.7,98.9,247.7,98.1,248.5,97.7"/>
	</g>
	<path class="st0" d="M227.4,84.6c0.8-0.5,2-0.5,2.8,0c0.8,0.5,0.8,1.2,0,1.6c-0.8,0.5-2,0.5-2.8,0C226.6,85.8,226.6,85,227.4,84.6"
		/>
	<g>
		<defs>
			<path id="SVGID_00000003067050048604162330000007489455381971269255_" d="M227.4,84.6c-0.8,0.5-0.8,1.2,0,1.6
				c0.8,0.5,2,0.5,2.8,0c0.8-0.5,0.8-1.2,0-1.6c-0.4-0.2-0.9-0.3-1.4-0.3C228.3,84.2,227.8,84.3,227.4,84.6z"/>
		</defs>
		<clipPath id="SVGID_00000114771638966931614430000001176997426983815823_">
			<use xlink:href="#SVGID_00000003067050048604162330000007489455381971269255_"  style="overflow:visible;"/>
		</clipPath>
		
			<path style="clip-path:url(#SVGID_00000114771638966931614430000001176997426983815823_);fill-rule:evenodd;clip-rule:evenodd;fill:#273442;" d="
			M227.4,85.4c0.8-0.5,2-0.5,2.8,0c0.8,0.5,0.8,1.2,0,1.6c-0.8,0.5-2,0.5-2.8,0C226.6,86.6,226.6,85.8,227.4,85.4"/>
	</g>
	<path class="st4" d="M232.3,99.2c3.4,1.9,4.4,4.3,1.2,6.3c-1.1,0.6-3.3,1.4-5.6,0.3c4.4-1.6,4.4-3.6,3.1-5.6
		c0.1-0.1,0.3-0.1,0.4-0.2C231.9,99.8,232.2,99.5,232.3,99.2"/>
	<path class="st4" d="M227.1,100.5c0.7,0.2,1.5,0.3,2.2,0.2c-0.2,2.5-2.4,4.4-7,4.4c-1.5,0-4-0.4-4.3-2.1
		C223,103.7,225.6,102.3,227.1,100.5"/>
	<rect x="225.1" y="97.7" class="st10" width="7.5" height="1.4"/>
	<path class="st4" d="M225.9,99.9c-3.2,1.9-7.1,2.4-10.6,0.5c-1-0.6-2.4-1.9-0.6-3.2c2.9,2.7,6.7,2.6,10.4,1.6
		C225.2,99.2,225.5,99.6,225.9,99.9"/>
	<path class="st6" d="M226.2,96.1c1.5-0.8,3.8-0.8,5.3,0c1.5,0.8,1.5,2.2,0,3.1c-1.5,0.8-3.8,0.8-5.3,0
		C224.7,98.4,224.7,97,226.2,96.1"/>
	<polygon class="st7" points="257.3,66.3 232,81.1 257.3,95.8 282.6,81.1 	"/>
	<path class="st0" d="M245.7,74.3c6.4-3.7,16.8-3.7,23.2,0c6.4,3.7,6.4,9.8,0,13.5c-6.4,3.7-16.8,3.7-23.2,0
		C239.3,84.1,239.3,78.1,245.7,74.3"/>
	<g>
		<defs>
			<path id="SVGID_00000038383640899195735600000011289115983682317202_" d="M245.7,74.3c-6.4,3.7-6.4,9.8,0,13.5
				c6.4,3.7,16.8,3.7,23.2,0c6.4-3.7,6.4-9.8,0-13.5c-3.2-1.9-7.4-2.8-11.6-2.8C253.1,71.5,248.9,72.5,245.7,74.3z"/>
		</defs>
		<clipPath id="SVGID_00000029756726932174084920000011244985596879080845_">
			<use xlink:href="#SVGID_00000038383640899195735600000011289115983682317202_"  style="overflow:visible;"/>
		</clipPath>
		
			<path style="clip-path:url(#SVGID_00000029756726932174084920000011244985596879080845_);fill-rule:evenodd;clip-rule:evenodd;fill:#273442;" d="
			M245.7,76.4c6.4-3.7,16.8-3.7,23.2,0c6.4,3.7,6.4,9.8,0,13.5c-6.4,3.7-16.8,3.7-23.2,0C239.3,86.2,239.3,80.1,245.7,76.4"/>
	</g>
	<polygon class="st9" points="257.5,81.7 257.5,81.8 257.6,81.9 257.3,81.6 	"/>
	<path class="st4" d="M257.3,81.1c-6-2-8.9-5.2-4.7-7.8c1.1-0.6,3.3-1.4,5.6-0.3C251.8,75.2,254.6,78.5,257.3,81.1"/>
	<path class="st4" d="M257.3,81.1c3.5-3.5,8.9-5.2,13.4-2.8c1,0.6,2.4,1.9,0.6,3.2C267.4,77.9,261.8,79.5,257.3,81.1"/>
	<path class="st4" d="M257.3,81.1c-1.6-3.9,0.3-7.3,6.4-7.4c1.5,0,4,0.4,4.3,2.1C260.8,74.7,258.6,78.1,257.3,81.1"/>
	<path class="st4" d="M257.3,81.1c6.7-1,12.6,0.1,12.7,3.7c-0.1,0.8-0.7,2.3-3.6,2.5C268.3,83.1,262.3,81.9,257.3,81.1"/>
	<path class="st4" d="M257.3,81.1c-6.7,1-12.6-0.1-12.7-3.7c0.1-0.8,0.7-2.3,3.6-2.5C246.3,79.1,252.2,80.3,257.3,81.1"/>
	<path class="st10" d="M254.6,80.9c1.5-0.8,3.8-0.8,5.3,0c1.5,0.8,1.5,2.2,0,3.1c-1.5,0.8-3.8,0.8-5.3,0
		C253.2,83.2,253.2,81.8,254.6,80.9"/>
	<path class="st0" d="M255.9,92.6c0.8-0.5,2-0.5,2.8,0c0.8,0.5,0.8,1.2,0,1.6c-0.8,0.5-2,0.5-2.8,0C255.1,93.7,255.1,93,255.9,92.6"
		/>
	<g>
		<defs>
			<path id="SVGID_00000087406893062145968660000008710845946894452656_" d="M255.9,92.6c-0.8,0.5-0.8,1.2,0,1.6
				c0.8,0.5,2,0.5,2.8,0c0.8-0.5,0.8-1.2,0-1.6c-0.4-0.2-0.9-0.3-1.4-0.3C256.8,92.2,256.3,92.3,255.9,92.6z"/>
		</defs>
		<clipPath id="SVGID_00000142161012235337066280000004321759845675685785_">
			<use xlink:href="#SVGID_00000087406893062145968660000008710845946894452656_"  style="overflow:visible;"/>
		</clipPath>
		
			<path style="clip-path:url(#SVGID_00000142161012235337066280000004321759845675685785_);fill-rule:evenodd;clip-rule:evenodd;fill:#273442;" d="
			M255.9,93.4c0.8-0.5,2-0.5,2.8,0c0.8,0.5,0.8,1.2,0,1.6c-0.8,0.5-2,0.5-2.8,0C255.1,94.6,255.1,93.8,255.9,93.4"/>
	</g>
	<path class="st0" d="M234.8,80.3c0.8-0.5,2-0.5,2.8,0c0.8,0.5,0.8,1.2,0,1.6c-0.8,0.5-2,0.5-2.8,0C234,81.5,234,80.7,234.8,80.3"/>
	<g>
		<defs>
			<path id="SVGID_00000177464400748562914580000016518827499634846090_" d="M234.8,80.3c-0.8,0.5-0.8,1.2,0,1.6
				c0.8,0.5,2,0.5,2.8,0c0.8-0.5,0.8-1.2,0-1.6c-0.4-0.2-0.9-0.3-1.4-0.3C235.7,79.9,235.2,80,234.8,80.3z"/>
		</defs>
		<clipPath id="SVGID_00000108267742027366685570000016249868259638507435_">
			<use xlink:href="#SVGID_00000177464400748562914580000016518827499634846090_"  style="overflow:visible;"/>
		</clipPath>
		
			<path style="clip-path:url(#SVGID_00000108267742027366685570000016249868259638507435_);fill-rule:evenodd;clip-rule:evenodd;fill:#273442;" d="
			M234.8,81.1c0.8-0.5,2-0.5,2.8,0c0.8,0.5,0.8,1.2,0,1.6c-0.8,0.5-2,0.5-2.8,0C234,82.3,234,81.5,234.8,81.1"/>
	</g>
	<path class="st0" d="M277,80.3c0.8-0.5,2-0.5,2.8,0c0.8,0.5,0.8,1.2,0,1.6c-0.8,0.5-2,0.5-2.8,0C276.2,81.5,276.2,80.7,277,80.3"/>
	<g>
		<defs>
			<path id="SVGID_00000100352553376605542620000010200807102332504234_" d="M277,80.3c-0.8,0.5-0.8,1.2,0,1.6c0.8,0.5,2,0.5,2.8,0
				c0.8-0.5,0.8-1.2,0-1.6c-0.4-0.2-0.9-0.3-1.4-0.3C277.9,79.9,277.4,80,277,80.3z"/>
		</defs>
		<clipPath id="SVGID_00000168091663676305091980000000297174626112712066_">
			<use xlink:href="#SVGID_00000100352553376605542620000010200807102332504234_"  style="overflow:visible;"/>
		</clipPath>
		
			<path style="clip-path:url(#SVGID_00000168091663676305091980000000297174626112712066_);fill-rule:evenodd;clip-rule:evenodd;fill:#273442;" d="
			M277,81.1c0.8-0.5,2-0.5,2.8,0c0.8,0.5,0.8,1.2,0,1.6c-0.8,0.5-2,0.5-2.8,0C276.2,82.3,276.2,81.5,277,81.1"/>
	</g>
	<path class="st0" d="M255.9,68c0.8-0.5,2-0.5,2.8,0c0.8,0.5,0.8,1.2,0,1.6c-0.8,0.5-2,0.5-2.8,0C255.1,69.2,255.1,68.4,255.9,68"/>
	<g>
		<defs>
			<path id="SVGID_00000065070619776346949890000015985972581366215584_" d="M255.9,68c-0.8,0.5-0.8,1.2,0,1.6c0.8,0.5,2,0.5,2.8,0
				c0.8-0.5,0.8-1.2,0-1.6c-0.4-0.2-0.9-0.3-1.4-0.3C256.8,67.6,256.3,67.7,255.9,68z"/>
		</defs>
		<clipPath id="SVGID_00000152262296935765160100000011919486783919016869_">
			<use xlink:href="#SVGID_00000065070619776346949890000015985972581366215584_"  style="overflow:visible;"/>
		</clipPath>
		
			<path style="clip-path:url(#SVGID_00000152262296935765160100000011919486783919016869_);fill-rule:evenodd;clip-rule:evenodd;fill:#273442;" d="
			M255.9,68.8c0.8-0.5,2-0.5,2.8,0c0.8,0.5,0.8,1.2,0,1.6c-0.8,0.5-2,0.5-2.8,0C255.1,70,255.1,69.2,255.9,68.8"/>
	</g>
	<path class="st4" d="M260.8,82.6c3.4,1.9,4.4,4.3,1.2,6.3c-1.1,0.6-3.3,1.4-5.6,0.3c4.4-1.6,4.4-3.6,3.1-5.6
		c0.1-0.1,0.3-0.1,0.4-0.2C260.3,83.2,260.6,82.9,260.8,82.6"/>
	<path class="st4" d="M255.6,83.9c0.7,0.2,1.5,0.3,2.2,0.2c-0.2,2.5-2.4,4.4-7,4.4c-1.5,0-4-0.4-4.3-2.1
		C251.5,87.1,254.1,85.8,255.6,83.9"/>
	<rect x="253.6" y="81.1" class="st10" width="7.5" height="1.4"/>
	<path class="st4" d="M254.4,83.3c-3.2,1.9-7.1,2.4-10.6,0.5c-1-0.6-2.4-1.9-0.6-3.2c2.9,2.7,6.7,2.6,10.4,1.6
		C253.7,82.6,254,83,254.4,83.3"/>
	<path class="st6" d="M254.6,79.5c1.5-0.8,3.8-0.8,5.3,0c1.5,0.8,1.5,2.2,0,3.1c-1.5,0.8-3.8,0.8-5.3,0
		C253.2,81.8,253.2,80.4,254.6,79.5"/>
	<g>
		<defs>
			<polygon id="SVGID_00000046305906422101076850000012869190083078416044_" points="170.3,196.3 170.3,200 99.1,158.5 99.1,154.8 
							"/>
		</defs>
		<clipPath id="SVGID_00000164497390422196532460000011814694876306003102_">
			<use xlink:href="#SVGID_00000046305906422101076850000012869190083078416044_"  style="overflow:visible;"/>
		</clipPath>
		
			<polygon style="clip-path:url(#SVGID_00000164497390422196532460000011814694876306003102_);fill-rule:evenodd;clip-rule:evenodd;fill:#141C26;" points="
			102.2,153 102.2,156.7 99.1,158.5 99.1,154.8 		"/>
	</g>
	<g>
		<defs>
			<polygon id="SVGID_00000134933429777287766110000016577146284081282461_" points="170.3,201.8 170.3,205.5 99.1,164 99.1,160.4 
							"/>
		</defs>
		<clipPath id="SVGID_00000072267294405246564530000001319311184695643012_">
			<use xlink:href="#SVGID_00000134933429777287766110000016577146284081282461_"  style="overflow:visible;"/>
		</clipPath>
		
			<polygon style="clip-path:url(#SVGID_00000072267294405246564530000001319311184695643012_);fill-rule:evenodd;clip-rule:evenodd;fill:#141C26;" points="
			102.2,158.5 102.2,162.2 99.1,164 99.1,160.4 		"/>
	</g>
	<g>
		<defs>
			<polygon id="SVGID_00000099658343557453561830000010682561342577569942_" points="170.3,207.4 170.3,211.1 99.1,169.6 
				99.1,165.9 			"/>
		</defs>
		<clipPath id="SVGID_00000052824160376095721850000008524547498733659827_">
			<use xlink:href="#SVGID_00000099658343557453561830000010682561342577569942_"  style="overflow:visible;"/>
		</clipPath>
		
			<polygon style="clip-path:url(#SVGID_00000052824160376095721850000008524547498733659827_);fill-rule:evenodd;clip-rule:evenodd;fill:#141C26;" points="
			102.2,164 102.2,167.7 99.1,169.6 99.1,165.9 		"/>
	</g>
	<g>
		<defs>
			<polygon id="SVGID_00000027568450461478497140000009989197443230887865_" points="170.3,212.9 170.3,216.6 99.1,175.1 
				99.1,171.4 			"/>
		</defs>
		<clipPath id="SVGID_00000052066795463670418700000004182256817445414578_">
			<use xlink:href="#SVGID_00000027568450461478497140000009989197443230887865_"  style="overflow:visible;"/>
		</clipPath>
		
			<polygon style="clip-path:url(#SVGID_00000052066795463670418700000004182256817445414578_);fill-rule:evenodd;clip-rule:evenodd;fill:#141C26;" points="
			102.2,169.6 102.2,173.3 99.1,175.1 99.1,171.4 		"/>
	</g>
	<g>
		<defs>
			<polygon id="SVGID_00000119076882795584779690000010642460645527549835_" points="170.3,218.4 170.3,222.1 99.1,180.6 99.1,177 
							"/>
		</defs>
		<clipPath id="SVGID_00000008141213812537249410000003207876325964822675_">
			<use xlink:href="#SVGID_00000119076882795584779690000010642460645527549835_"  style="overflow:visible;"/>
		</clipPath>
		
			<polygon style="clip-path:url(#SVGID_00000008141213812537249410000003207876325964822675_);fill-rule:evenodd;clip-rule:evenodd;fill:#141C26;" points="
			102.2,175.1 102.2,178.8 99.1,180.6 99.1,177 		"/>
	</g>
	<g>
		<defs>
			<polygon id="SVGID_00000008837316955778257010000005161404547218808767_" points="170.3,224 170.3,227.7 99.1,186.2 99.1,182.5 
							"/>
		</defs>
		<clipPath id="SVGID_00000005252772514700536760000003772507798168896671_">
			<use xlink:href="#SVGID_00000008837316955778257010000005161404547218808767_"  style="overflow:visible;"/>
		</clipPath>
		
			<polygon style="clip-path:url(#SVGID_00000005252772514700536760000003772507798168896671_);fill-rule:evenodd;clip-rule:evenodd;fill:#141C26;" points="
			102.2,180.6 102.2,184.3 99.1,186.2 99.1,182.5 		"/>
	</g>
	<g>
		<defs>
			<polygon id="SVGID_00000103241241703915447940000006294208140971797671_" points="170.3,229.5 170.3,233.2 99.1,191.7 99.1,188 
							"/>
		</defs>
		<clipPath id="SVGID_00000021815100063081568060000006177501390874389661_">
			<use xlink:href="#SVGID_00000103241241703915447940000006294208140971797671_"  style="overflow:visible;"/>
		</clipPath>
		
			<polygon style="clip-path:url(#SVGID_00000021815100063081568060000006177501390874389661_);fill-rule:evenodd;clip-rule:evenodd;fill:#141C26;" points="
			102.2,186.2 102.2,189.9 99.1,191.7 99.1,188 		"/>
	</g>
	<g>
		<defs>
			<polygon id="SVGID_00000069374956491356341910000002277538426688603530_" points="170.3,235 170.3,238.7 99.1,197.2 99.1,193.5 
							"/>
		</defs>
		<clipPath id="SVGID_00000033357085258292252760000017475602912492288679_">
			<use xlink:href="#SVGID_00000069374956491356341910000002277538426688603530_"  style="overflow:visible;"/>
		</clipPath>
		
			<polygon style="clip-path:url(#SVGID_00000033357085258292252760000017475602912492288679_);fill-rule:evenodd;clip-rule:evenodd;fill:#141C26;" points="
			102.2,191.7 102.2,195.4 99.1,197.2 99.1,193.5 		"/>
	</g>
	<g>
		<polygon class="st0" points="383.9,261.8 383.9,285.7 363.3,297.7 363.3,273.7 		"/>
		<g>
			<defs>
				<polygon id="SVGID_00000075125120153019432780000013118166564205353914_" points="382.3,264.5 382.3,284.8 364.9,294.9 
					364.9,274.7 				"/>
			</defs>
			<clipPath id="SVGID_00000065772936339442260090000012304688726996214673_">
				<use xlink:href="#SVGID_00000075125120153019432780000013118166564205353914_"  style="overflow:visible;"/>
			</clipPath>
			
				<polygon style="clip-path:url(#SVGID_00000065772936339442260090000012304688726996214673_);fill-rule:evenodd;clip-rule:evenodd;fill:#141C26;" points="
				363.3,273.7 382.3,284.8 364.9,294.9 345.9,283.9 			"/>
			
				<polygon style="clip-path:url(#SVGID_00000065772936339442260090000012304688726996214673_);fill-rule:evenodd;clip-rule:evenodd;fill:#273442;" points="
				382.3,264.5 382.3,284.8 363.3,273.7 363.3,253.5 			"/>
		</g>
	</g>
	<g>
		<polygon class="st0" points="450.3,248.9 450.3,272.8 429.7,284.8 429.7,260.8 		"/>
		<g>
			<defs>
				<polygon id="SVGID_00000005956090378853209550000007492499834687094938_" points="448.7,251.6 448.7,271.9 431.3,282 
					431.3,261.8 				"/>
			</defs>
			<clipPath id="SVGID_00000014631343570402177840000016906138500084124342_">
				<use xlink:href="#SVGID_00000005956090378853209550000007492499834687094938_"  style="overflow:visible;"/>
			</clipPath>
			
				<polygon style="clip-path:url(#SVGID_00000014631343570402177840000016906138500084124342_);fill-rule:evenodd;clip-rule:evenodd;fill:#141C26;" points="
				429.7,260.8 448.7,271.9 431.3,282 412.3,271 			"/>
			
				<polygon style="clip-path:url(#SVGID_00000014631343570402177840000016906138500084124342_);fill-rule:evenodd;clip-rule:evenodd;fill:#273442;" points="
				448.7,251.6 448.7,271.9 429.7,260.8 429.7,240.6 			"/>
		</g>
	</g>
	<g>
		<polygon class="st0" points="450.3,223 450.3,247 429.7,259 429.7,235 		"/>
		<g>
			<defs>
				<polygon id="SVGID_00000124155559460485072720000011887205544055987337_" points="448.7,225.8 448.7,246.1 431.3,256.2 
					431.3,236 				"/>
			</defs>
			<clipPath id="SVGID_00000109737027836519110730000013377082494014323131_">
				<use xlink:href="#SVGID_00000124155559460485072720000011887205544055987337_"  style="overflow:visible;"/>
			</clipPath>
			
				<polygon style="clip-path:url(#SVGID_00000109737027836519110730000013377082494014323131_);fill-rule:evenodd;clip-rule:evenodd;fill:#141C26;" points="
				429.7,235 448.7,246.1 431.3,256.2 412.3,245.2 			"/>
			
				<polygon style="clip-path:url(#SVGID_00000109737027836519110730000013377082494014323131_);fill-rule:evenodd;clip-rule:evenodd;fill:#273442;" points="
				448.7,225.8 448.7,246.1 429.7,235 429.7,214.7 			"/>
		</g>
	</g>
	<g>
		<polygon class="st0" points="428.2,261.8 428.2,285.7 407.6,297.7 407.6,273.7 		"/>
		<g>
			<defs>
				<polygon id="SVGID_00000003805462664207179970000013270879382344916405_" points="426.6,264.5 426.6,284.8 409.2,294.9 
					409.2,274.7 				"/>
			</defs>
			<clipPath id="SVGID_00000008865347666857346450000003050838837759455671_">
				<use xlink:href="#SVGID_00000003805462664207179970000013270879382344916405_"  style="overflow:visible;"/>
			</clipPath>
			
				<polygon style="clip-path:url(#SVGID_00000008865347666857346450000003050838837759455671_);fill-rule:evenodd;clip-rule:evenodd;fill:#141C26;" points="
				407.6,273.7 426.6,284.8 409.2,294.9 390.2,283.9 			"/>
			
				<polygon style="clip-path:url(#SVGID_00000008865347666857346450000003050838837759455671_);fill-rule:evenodd;clip-rule:evenodd;fill:#273442;" points="
				426.6,264.5 426.6,284.8 407.6,273.7 407.6,253.5 			"/>
		</g>
	</g>
	<g>
		<polygon class="st0" points="383.9,287.6 383.9,311.5 363.3,323.5 363.3,299.6 		"/>
		<g>
			<defs>
				<polygon id="SVGID_00000000213326227480852470000009460806625715395762_" points="382.3,290.3 382.3,310.6 364.9,320.8 
					364.9,300.5 				"/>
			</defs>
			<clipPath id="SVGID_00000101793614896429316380000013811843091851257995_">
				<use xlink:href="#SVGID_00000000213326227480852470000009460806625715395762_"  style="overflow:visible;"/>
			</clipPath>
			
				<polygon style="clip-path:url(#SVGID_00000101793614896429316380000013811843091851257995_);fill-rule:evenodd;clip-rule:evenodd;fill:#141C26;" points="
				363.3,299.6 382.3,310.6 364.9,320.8 345.9,309.7 			"/>
			
				<polygon style="clip-path:url(#SVGID_00000101793614896429316380000013811843091851257995_);fill-rule:evenodd;clip-rule:evenodd;fill:#273442;" points="
				382.3,290.3 382.3,310.6 363.3,299.6 363.3,279.3 			"/>
		</g>
	</g>
	<g>
		<polygon class="st0" points="428.2,236 428.2,259.9 407.6,271.9 407.6,247.9 		"/>
		<g>
			<defs>
				<polygon id="SVGID_00000109740149819410694290000017626207027290301828_" points="426.6,238.7 426.6,259 409.2,269.1 
					409.2,248.9 				"/>
			</defs>
			<clipPath id="SVGID_00000123424750766726744200000015217565174650201759_">
				<use xlink:href="#SVGID_00000109740149819410694290000017626207027290301828_"  style="overflow:visible;"/>
			</clipPath>
			
				<polygon style="clip-path:url(#SVGID_00000123424750766726744200000015217565174650201759_);fill-rule:evenodd;clip-rule:evenodd;fill:#141C26;" points="
				407.6,247.9 426.6,259 409.2,269.1 390.2,258.1 			"/>
			
				<polygon style="clip-path:url(#SVGID_00000123424750766726744200000015217565174650201759_);fill-rule:evenodd;clip-rule:evenodd;fill:#273442;" points="
				426.6,238.7 426.6,259 407.6,247.9 407.6,227.7 			"/>
		</g>
	</g>
	<g>
		<polygon class="st0" points="406,274.7 406,298.6 385.4,310.6 385.4,286.6 		"/>
		<g>
			<defs>
				<polygon id="SVGID_00000023971439145674525110000015269362898207206035_" points="404.4,277.4 404.4,297.7 387,307.8 387,287.6 
									"/>
			</defs>
			<clipPath id="SVGID_00000181803075828494048260000007615237784111916440_">
				<use xlink:href="#SVGID_00000023971439145674525110000015269362898207206035_"  style="overflow:visible;"/>
			</clipPath>
			
				<polygon style="clip-path:url(#SVGID_00000181803075828494048260000007615237784111916440_);fill-rule:evenodd;clip-rule:evenodd;fill:#141C26;" points="
				385.4,286.6 404.4,297.7 387,307.8 368,296.8 			"/>
			
				<polygon style="clip-path:url(#SVGID_00000181803075828494048260000007615237784111916440_);fill-rule:evenodd;clip-rule:evenodd;fill:#273442;" points="
				404.4,277.4 404.4,297.7 385.4,286.6 385.4,266.4 			"/>
		</g>
	</g>
	<g>
		<polygon class="st0" points="406,248.9 406,272.8 385.4,284.8 385.4,260.8 		"/>
		<g>
			<defs>
				<polygon id="SVGID_00000140714526329174712570000007639270653988598691_" points="404.4,251.6 404.4,271.9 387,282 387,261.8 
									"/>
			</defs>
			<clipPath id="SVGID_00000083795239748625383140000015723511432876908720_">
				<use xlink:href="#SVGID_00000140714526329174712570000007639270653988598691_"  style="overflow:visible;"/>
			</clipPath>
			
				<polygon style="clip-path:url(#SVGID_00000083795239748625383140000015723511432876908720_);fill-rule:evenodd;clip-rule:evenodd;fill:#141C26;" points="
				385.4,260.8 404.4,271.9 387,282 368,271 			"/>
			
				<polygon style="clip-path:url(#SVGID_00000083795239748625383140000015723511432876908720_);fill-rule:evenodd;clip-rule:evenodd;fill:#273442;" points="
				404.4,251.6 404.4,271.9 385.4,260.8 385.4,240.6 			"/>
		</g>
	</g>
	<g>
		<g>
			<defs>
				<polygon id="SVGID_00000096026838679035829520000018141886655044960676_" points="451.9,220.3 451.9,273.7 361.7,326.3 
					361.7,272.8 				"/>
			</defs>
			
				<use xlink:href="#SVGID_00000096026838679035829520000018141886655044960676_"  style="overflow:visible;opacity:0.36;fill-rule:evenodd;clip-rule:evenodd;fill:#0E57AF;"/>
			<clipPath id="SVGID_00000147205010815547522790000012323554624590977938_">
				<use xlink:href="#SVGID_00000096026838679035829520000018141886655044960676_"  style="overflow:visible;opacity:0.36;"/>
			</clipPath>
			<g style="opacity:0.2;clip-path:url(#SVGID_00000147205010815547522790000012323554624590977938_);">
				<polygon class="st60" points="365.5,232.8 374,223.8 435,290.3 441.4,312 437.4,316.4 367.8,240.4 				"/>
				<polygon class="st60" points="356.9,235.6 420.4,304.9 414.9,310.7 362,252.9 				"/>
				<polygon class="st60" points="415.3,237.9 455.2,281.4 457.7,290 412.6,240.8 				"/>
			</g>
		</g>
	</g>
</g>
</svg>
