<?xml version="1.0" encoding="utf-8"?>
<!-- Generator: Adobe Illustrator 26.0.1, SVG Export Plug-In . SVG Version: 6.00 Build 0)  -->
<svg version="1.1" id="Layer_1" xmlns="http://www.w3.org/2000/svg" xmlns:xlink="http://www.w3.org/1999/xlink" x="0px" y="0px"
	 viewBox="0 0 600 400" style="enable-background:new 0 0 600 400;" xml:space="preserve">
<style type="text/css">
	.st0{fill:#FFC034;}
	.st1{fill:#FF9430;}
	.st2{fill:#027065;}
	.st3{fill:#B4CCDA;}
	.st4{fill:#353237;}
	.st5{fill:#DBEFFA;}
	.st6{fill:#D7ABB6;}
	.st7{fill:#CBD6B6;}
	.st8{fill:#96C7CE;}
	.st9{fill:#E2A63D;}
</style>
<g id="XMLID_572_">
	<g id="XMLID_565_">
		<g id="XMLID_528_">
			<rect id="XMLID_564_" x="264.6" y="269.7" class="st0" width="173.1" height="19.9"/>
			<g id="XMLID_529_">
				<rect id="XMLID_563_" x="264.6" y="269.7" class="st1" width="1.7" height="19.9"/>
				<rect id="XMLID_562_" x="269.8" y="269.7" class="st1" width="1.7" height="19.9"/>
				<rect id="XMLID_561_" x="275" y="269.7" class="st1" width="1.7" height="19.9"/>
				<rect id="XMLID_560_" x="280.2" y="269.7" class="st1" width="1.7" height="19.9"/>
				<rect id="XMLID_559_" x="285.3" y="269.7" class="st1" width="1.7" height="19.9"/>
				<rect id="XMLID_558_" x="290.5" y="269.7" class="st1" width="1.7" height="19.9"/>
				<rect id="XMLID_557_" x="295.7" y="269.7" class="st1" width="1.7" height="19.9"/>
				<rect id="XMLID_556_" x="300.9" y="269.7" class="st1" width="1.7" height="19.9"/>
				<rect id="XMLID_555_" x="306.1" y="269.7" class="st1" width="1.7" height="19.9"/>
				<rect id="XMLID_554_" x="311.3" y="269.7" class="st1" width="1.7" height="19.9"/>
				<rect id="XMLID_553_" x="316.5" y="269.7" class="st1" width="1.7" height="19.9"/>
				<rect id="XMLID_552_" x="321.7" y="269.7" class="st1" width="1.7" height="19.9"/>
				<rect id="XMLID_551_" x="326.9" y="269.7" class="st1" width="1.7" height="19.9"/>
				<rect id="XMLID_550_" x="332.1" y="269.7" class="st1" width="1.7" height="19.9"/>
				<rect id="XMLID_549_" x="337.3" y="269.7" class="st1" width="1.7" height="19.9"/>
				<rect id="XMLID_548_" x="342.5" y="269.7" class="st1" width="1.7" height="19.9"/>
				<rect id="XMLID_547_" x="347.6" y="269.7" class="st1" width="1.7" height="19.9"/>
				<rect id="XMLID_546_" x="352.8" y="269.7" class="st1" width="1.7" height="19.9"/>
				<rect id="XMLID_545_" x="358" y="269.7" class="st1" width="1.7" height="19.9"/>
				<rect id="XMLID_544_" x="363.2" y="269.7" class="st1" width="1.7" height="19.9"/>
				<rect id="XMLID_543_" x="368.4" y="269.7" class="st1" width="1.7" height="19.9"/>
				<rect id="XMLID_542_" x="373.6" y="269.7" class="st1" width="1.7" height="19.9"/>
				<rect id="XMLID_541_" x="378.8" y="269.7" class="st1" width="1.7" height="19.9"/>
				<rect id="XMLID_540_" x="384" y="269.7" class="st1" width="1.7" height="19.9"/>
				<rect id="XMLID_539_" x="389.2" y="269.7" class="st1" width="1.7" height="19.9"/>
				<rect id="XMLID_538_" x="394.4" y="269.7" class="st1" width="1.7" height="19.9"/>
				<rect id="XMLID_537_" x="399.6" y="269.7" class="st1" width="1.7" height="19.9"/>
				<rect id="XMLID_536_" x="404.8" y="269.7" class="st1" width="1.7" height="19.9"/>
				<rect id="XMLID_535_" x="410" y="269.7" class="st1" width="1.7" height="19.9"/>
				<rect id="XMLID_534_" x="415.2" y="269.7" class="st1" width="1.7" height="19.9"/>
				<rect id="XMLID_533_" x="420.4" y="269.7" class="st1" width="1.7" height="19.9"/>
				<rect id="XMLID_532_" x="425.6" y="269.7" class="st1" width="1.7" height="19.9"/>
				<rect id="XMLID_531_" x="430.7" y="269.7" class="st1" width="1.7" height="19.9"/>
				<rect id="XMLID_530_" x="435.9" y="269.7" class="st1" width="1.7" height="19.9"/>
			</g>
		</g>
		<g id="XMLID_566_">
			<rect id="XMLID_602_" x="451.5" y="269.7" class="st0" width="17.3" height="19.9"/>
			<g id="XMLID_567_">
				<rect id="XMLID_571_" x="451.5" y="269.7" class="st1" width="1.7" height="19.9"/>
				<rect id="XMLID_570_" x="456.7" y="269.7" class="st1" width="1.7" height="19.9"/>
				<rect id="XMLID_569_" x="461.9" y="269.7" class="st1" width="1.7" height="19.9"/>
				<rect id="XMLID_568_" x="467.1" y="269.7" class="st1" width="1.7" height="19.9"/>
			</g>
		</g>
	</g>
	<polygon id="XMLID_494_" class="st2" points="468.8,190.7 197.5,190.7 197.5,155.9 146.8,155.9 146.8,190.7 146.8,269.7 
		146.8,296.2 197.5,296.2 197.5,269.7 468.8,269.7 	"/>
	<rect id="XMLID_461_" x="138.7" y="59.4" class="st3" width="8.2" height="281.1"/>
	<rect id="XMLID_477_" x="351.1" y="200" class="st4" width="56.1" height="36.5"/>
	<path id="XMLID_483_" class="st5" d="M441,201.9c-3.6,0-6.5,2.9-6.5,6.5v15.3c0,3.6,2.9,6.5,6.5,6.5c3.6,0,6.5-2.9,6.5-6.5v-15.3
		C447.6,204.8,444.7,201.9,441,201.9z"/>
	<g id="XMLID_526_">
		<rect id="XMLID_481_" x="246.7" y="203.4" class="st4" width="22.4" height="8.8"/>
		<rect id="XMLID_485_" x="287.8" y="203.4" class="st4" width="22.4" height="8.8"/>
		<rect id="XMLID_484_" x="246.7" y="216.7" class="st4" width="22.4" height="8.8"/>
	</g>
	<rect id="XMLID_482_" x="269.1" y="244.3" class="st4" width="12.5" height="12.5"/>
	<g id="XMLID_497_">
		<path id="XMLID_487_" class="st3" d="M306.7,250.5c0,4.3-3.5,7.9-7.9,7.9c-4.3,0-7.9-3.5-7.9-7.9s3.5-7.9,7.9-7.9
			C303.2,242.6,306.7,246.2,306.7,250.5z"/>
		<circle id="XMLID_486_" class="st5" cx="298.9" cy="250.5" r="5.4"/>
	</g>
	<g id="XMLID_500_">
		<g id="XMLID_503_">
			<path id="XMLID_505_" class="st3" d="M211.1,250.5c0,4.3-3.5,7.9-7.9,7.9c-4.3,0-7.9-3.5-7.9-7.9s3.5-7.9,7.9-7.9
				C207.6,242.6,211.1,246.2,211.1,250.5z"/>
			<circle id="XMLID_504_" class="st5" cx="203.3" cy="250.5" r="5.4"/>
		</g>
		<g id="XMLID_506_">
			<path id="XMLID_508_" class="st3" d="M229.8,250.5c0,4.3-3.5,7.9-7.9,7.9s-7.9-3.5-7.9-7.9s3.5-7.9,7.9-7.9
				S229.8,246.2,229.8,250.5z"/>
			<path id="XMLID_507_" class="st5" d="M227.3,250.5c0,3-2.4,5.4-5.4,5.4c-3,0-5.4-2.4-5.4-5.4c0-3,2.4-5.4,5.4-5.4
				C224.9,245.1,227.3,247.5,227.3,250.5z"/>
		</g>
		<g id="XMLID_512_">
			<path id="XMLID_514_" class="st3" d="M211.1,232.9c0,4.3-3.5,7.9-7.9,7.9c-4.3,0-7.9-3.5-7.9-7.9c0-4.3,3.5-7.9,7.9-7.9
				C207.6,225,211.1,228.5,211.1,232.9z"/>
			<path id="XMLID_513_" class="st5" d="M208.6,232.9c0,3-2.4,5.4-5.4,5.4c-3,0-5.4-2.4-5.4-5.4c0-3,2.4-5.4,5.4-5.4
				C206.2,227.5,208.6,229.9,208.6,232.9z"/>
		</g>
		<g id="XMLID_509_">
			<path id="XMLID_511_" class="st3" d="M229.8,232.9c0,4.3-3.5,7.9-7.9,7.9s-7.9-3.5-7.9-7.9c0-4.3,3.5-7.9,7.9-7.9
				S229.8,228.5,229.8,232.9z"/>
			<path id="XMLID_510_" class="st5" d="M227.3,232.9c0,3-2.4,5.4-5.4,5.4c-3,0-5.4-2.4-5.4-5.4c0-3,2.4-5.4,5.4-5.4
				C224.9,227.5,227.3,229.9,227.3,232.9z"/>
		</g>
		<g id="XMLID_518_">
			<path id="XMLID_520_" class="st3" d="M211.1,214.4c0,4.3-3.5,7.9-7.9,7.9c-4.3,0-7.9-3.5-7.9-7.9s3.5-7.9,7.9-7.9
				C207.6,206.6,211.1,210.1,211.1,214.4z"/>
			<circle id="XMLID_519_" class="st5" cx="203.3" cy="214.4" r="5.4"/>
		</g>
		<g id="XMLID_515_">
			<path id="XMLID_517_" class="st3" d="M229.8,214.4c0,4.3-3.5,7.9-7.9,7.9s-7.9-3.5-7.9-7.9s3.5-7.9,7.9-7.9
				S229.8,210.1,229.8,214.4z"/>
			<path id="XMLID_516_" class="st5" d="M227.3,214.4c0,3-2.4,5.4-5.4,5.4c-3,0-5.4-2.4-5.4-5.4c0-3,2.4-5.4,5.4-5.4
				C224.9,209,227.3,211.5,227.3,214.4z"/>
		</g>
	</g>
	<g id="XMLID_527_">
		<rect id="XMLID_488_" x="355.1" y="249.6" class="st4" width="6.7" height="11.3"/>
		<rect id="XMLID_490_" x="368.3" y="249.6" class="st4" width="6.7" height="11.3"/>
	</g>
	<g id="XMLID_489_">
		<circle id="XMLID_435_" class="st0" cx="168.1" cy="292" r="6.1"/>
		<circle id="XMLID_493_" class="st0" cx="168.1" cy="157.3" r="6.1"/>
	</g>
	<g id="XMLID_525_">
		<g id="XMLID_524_">
			<rect id="XMLID_491_" x="146.8" y="256.7" class="st6" width="42.5" height="26.6"/>
			<rect id="XMLID_492_" x="131.2" y="261.2" class="st6" width="7.5" height="17.6"/>
		</g>
		<g id="XMLID_523_">
			<rect id="XMLID_496_" x="146.8" y="225" class="st7" width="42.5" height="26.6"/>
			<rect id="XMLID_495_" x="131.2" y="229.5" class="st7" width="7.5" height="17.6"/>
		</g>
		<g id="XMLID_522_">
			<rect id="XMLID_499_" x="146.8" y="193.3" class="st8" width="42.5" height="26.6"/>
			<rect id="XMLID_498_" x="131.2" y="197.8" class="st8" width="7.5" height="17.6"/>
		</g>
		<g id="XMLID_521_">
			<rect id="XMLID_502_" x="146.8" y="161.5" class="st9" width="42.5" height="26.6"/>
			<rect id="XMLID_501_" x="131.2" y="166" class="st9" width="7.5" height="17.6"/>
		</g>
	</g>
</g>
</svg>
